<svg version="1.1" xmlns="http://www.w3.org/2000/svg" viewBox="0 0 453.2550048828125 228.6544189453125" width="906.510009765625" height="457.308837890625">
  <!-- svg-source:excalidraw -->
  
  <defs>
    <style class="style-fonts">
      @font-face {
        font-family: "Virgil";
        src: url("https://excalidraw.com/Virgil.woff2");
      }
      @font-face {
        font-family: "Cascadia";
        src: url("https://excalidraw.com/Cascadia.woff2");
      }
      @font-face {
        font-family: "Assistant";
        src: url("https://excalidraw.com/Assistant-Regular.woff2");
      }
    </style>
    
  </defs>
  <g stroke-linecap="round" transform="translate(10 10) rotate(0 216.62750244140625 104.32720947265625)"><path d="M32 0 C168.64 1.08, 305.24 -0.41, 401.26 0 C423.85 -2.37, 433.5 10.04, 433.26 32 C436.28 79.98, 431.36 122.14, 433.26 176.65 C435.47 199.46, 425.37 208.41, 401.26 208.65 C278.55 207.77, 153.7 208.39, 32 208.65 C9.73 208.78, 1 197.66, 0 176.65 C1.34 129.92, 2.12 84.89, 0 32 C3.26 11.94, 12.34 -2.93, 32 0" stroke="none" stroke-width="0" fill="#e9ecef"></path><path d="M32 0 C120.69 1.77, 208.37 1.93, 401.26 0 M32 0 C167.33 -0.22, 302.86 -0.42, 401.26 0 M401.26 0 C421.4 1.6, 433.09 11.34, 433.26 32 M401.26 0 C423.23 2.23, 431.65 10.04, 433.26 32 M433.26 32 C433.74 69.3, 436.04 107.37, 433.26 176.65 M433.26 32 C432.67 75.98, 433.5 120.15, 433.26 176.65 M433.26 176.65 C432.67 196.2, 423.77 206.74, 401.26 208.65 M433.26 176.65 C433.28 199.53, 424.25 208.82, 401.26 208.65 M401.26 208.65 C317.17 208.09, 231.39 207.7, 32 208.65 M401.26 208.65 C262.6 208.72, 122.93 208.75, 32 208.65 M32 208.65 C10.09 208, -1.76 199.9, 0 176.65 M32 208.65 C8.51 209.13, 0.54 199.31, 0 176.65 M0 176.65 C-2.16 144.18, -1.15 115.75, 0 32 M0 176.65 C0.75 136.3, 0.2 95.78, 0 32 M0 32 C-1.54 10.11, 10.15 -0.27, 32 0 M0 32 C0.23 10.53, 12.83 0.37, 32 0" stroke="#1e1e1e" stroke-width="2" fill="none"></path></g><g stroke-linecap="round" transform="translate(83.3739013671875 48.789398193359375) rotate(0 54.50946044921875 19.938980102539062)"><path d="M9.97 0 C42.54 1.21, 83.22 0.72, 99.05 0 C104.68 -1.06, 107.9 6.68, 109.02 9.97 C112.07 11.8, 112.05 19.89, 109.02 29.91 C105.57 38.81, 102.87 43.11, 99.05 39.88 C69.58 37.99, 39.78 38.31, 9.97 39.88 C4.84 38.8, 2.39 38.44, 0 29.91 C-1.91 25.04, -3.29 13.37, 0 9.97 C1.57 2.34, 4.15 -2.37, 9.97 0" stroke="none" stroke-width="0" fill="#a5d8ff"></path><path d="M9.97 0 C40.3 -0.58, 69.57 -2.47, 99.05 0 M9.97 0 C43.93 -1.04, 75.82 -0.25, 99.05 0 M99.05 0 C107.22 -0.22, 110.5 4.85, 109.02 9.97 M99.05 0 C105.68 -1.28, 108.83 3.73, 109.02 9.97 M109.02 9.97 C108.63 13.24, 109.76 18.17, 109.02 29.91 M109.02 9.97 C108.61 16.89, 108.21 21.89, 109.02 29.91 M109.02 29.91 C107.93 38.38, 106.48 41.34, 99.05 39.88 M109.02 29.91 C107.44 38.52, 107.29 38.66, 99.05 39.88 M99.05 39.88 C70.85 40.37, 41.37 39.5, 9.97 39.88 M99.05 39.88 C70.5 40.35, 41.21 40.1, 9.97 39.88 M9.97 39.88 C2.16 39.06, -0.73 37.42, 0 29.91 M9.97 39.88 C3.89 38.49, 1.78 37.95, 0 29.91 M0 29.91 C-1.29 25.93, 0.43 18.51, 0 9.97 M0 29.91 C-0.85 24.74, -0.42 17.67, 0 9.97 M0 9.97 C-1.97 1.38, 2.12 -1.16, 9.97 0 M0 9.97 C0.61 1.15, 3.79 0, 9.97 0" stroke="#1e1e1e" stroke-width="2" fill="none"></path></g><g transform="translate(130.3033676147461 56.22837829589844) rotate(0 7.579994201660156 12.5)"><text x="7.579994201660156" y="0" font-family="Virgil, Segoe UI Emoji" font-size="20px" fill="#1e1e1e" text-anchor="middle" style="white-space: pre;" direction="ltr" dominant-baseline="text-before-edge">k1</text></g><g stroke-linecap="round" transform="translate(250.368896484375 49.13311767578125) rotate(0 54.50946044921875 19.004531860351562)"><path d="M9.5 0 C31.61 1.45, 53.37 -0.75, 99.52 0 C102.84 1.9, 107.83 2.69, 109.02 9.5 C111.8 13.23, 112.14 15.29, 109.02 28.51 C111.82 35.32, 102.53 40.18, 99.52 38.01 C70.86 35.24, 38.75 35.32, 9.5 38.01 C2.08 34.7, 3.58 33.48, 0 28.51 C-1.87 24.04, -2.96 21.86, 0 9.5 C2.19 -0.04, 4.72 1.75, 9.5 0" stroke="none" stroke-width="0" fill="#ffec99"></path><path d="M9.5 0 C36.77 -0.12, 65.07 0.51, 99.52 0 M9.5 0 C41.71 -0.51, 72.65 -0.17, 99.52 0 M99.52 0 C106.62 -0.95, 107.51 2.4, 109.02 9.5 M99.52 0 C108.02 2.22, 110.15 1.82, 109.02 9.5 M109.02 9.5 C110.7 15.48, 108.12 24.87, 109.02 28.51 M109.02 9.5 C108.28 15.83, 109.11 21.84, 109.02 28.51 M109.02 28.51 C109.27 36.64, 107.06 37.73, 99.52 38.01 M109.02 28.51 C110.58 33.95, 104.21 35.83, 99.52 38.01 M99.52 38.01 C80.9 40.74, 60.79 37.61, 9.5 38.01 M99.52 38.01 C78.53 37.39, 59.19 37.61, 9.5 38.01 M9.5 38.01 C4.65 36.55, -0.65 35.57, 0 28.51 M9.5 38.01 C3.79 36.77, -1.38 36.05, 0 28.51 M0 28.51 C0.52 23.27, 1.7 18.67, 0 9.5 M0 28.51 C-0.96 23.96, 0.76 19.2, 0 9.5 M0 9.5 C-0.81 1.79, 3.68 0.71, 9.5 0 M0 9.5 C-0.11 3.87, 2.02 0.45, 9.5 0" stroke="#1e1e1e" stroke-width="2" fill="none"></path></g><g transform="translate(296.93836212158203 55.63764953613281) rotate(0 7.939994812011719 12.5)"><text x="7.939994812011719" y="0" font-family="Virgil, Segoe UI Emoji" font-size="20px" fill="#1e1e1e" text-anchor="middle" style="white-space: pre;" direction="ltr" dominant-baseline="text-before-edge">v1</text></g><g stroke-linecap="round"><g transform="translate(193.3928222656251 63.52546599322724) rotate(0 29.323730468749943 -0.5436473032542466)"><path d="M0.56 1.11 C10.03 0.58, 47.83 -1.88, 57.53 -2.23 M-0.6 0.65 C9.16 0.14, 49.88 -1.25, 59.65 -1.29" stroke="#1e1e1e" stroke-width="2" fill="none"></path></g><g transform="translate(193.3928222656251 63.52546599322724) rotate(0 29.323730468749943 -0.5436473032542466)"><path d="M36.35 7.78 C46.45 2.56, 51.01 1.35, 59.65 -1.29 M36.35 7.78 C43.62 4.52, 51.21 1.27, 59.65 -1.29" stroke="#1e1e1e" stroke-width="2" fill="none"></path></g><g transform="translate(193.3928222656251 63.52546599322724) rotate(0 29.323730468749943 -0.5436473032542466)"><path d="M35.97 -9.32 C46.33 -8.43, 51.03 -3.55, 59.65 -1.29 M35.97 -9.32 C43.43 -7.31, 51.13 -5.29, 59.65 -1.29" stroke="#1e1e1e" stroke-width="2" fill="none"></path></g></g><mask></mask><g stroke-linecap="round" transform="translate(81.78631591796875 100.53239440917969) rotate(0 54.50946044921875 19.938980102539062)"><path d="M9.97 0 C37.84 -0.1, 61.69 1.83, 99.05 0 C107.64 -2.26, 105.45 4.61, 109.02 9.97 C111.62 13.19, 111.86 21.85, 109.02 29.91 C111.02 39.85, 106.2 40.95, 99.05 39.88 C81.73 42.93, 64.93 41.75, 9.97 39.88 C2.79 37.21, -0.47 38.36, 0 29.91 C-0.36 23.75, 3.14 21.84, 0 9.97 C-0.38 0.31, 3.8 -0.3, 9.97 0" stroke="none" stroke-width="0" fill="#a5d8ff"></path><path d="M9.97 0 C40.65 -2.24, 75.72 -1.56, 99.05 0 M9.97 0 C36.15 -0.04, 59.77 -1.07, 99.05 0 M99.05 0 C105.48 0.16, 107.13 2.67, 109.02 9.97 M99.05 0 C104.19 0.92, 110.83 3.07, 109.02 9.97 M109.02 9.97 C110.42 17.36, 109.8 24.66, 109.02 29.91 M109.02 9.97 C109.6 15.59, 109.58 19.4, 109.02 29.91 M109.02 29.91 C110.59 34.79, 105.08 39.74, 99.05 39.88 M109.02 29.91 C107.44 35.41, 107.42 38.51, 99.05 39.88 M99.05 39.88 C69.02 40.45, 40.78 39.03, 9.97 39.88 M99.05 39.88 C80.31 39.41, 62.02 39.76, 9.97 39.88 M9.97 39.88 C2.75 41.35, 0.62 35.01, 0 29.91 M9.97 39.88 C5.4 38.53, -0.81 38.42, 0 29.91 M0 29.91 C0.45 24.36, 0.79 19.8, 0 9.97 M0 29.91 C-0.7 23.13, -0.94 17.41, 0 9.97 M0 9.97 C1.82 3.65, 2.74 -1.54, 9.97 0 M0 9.97 C-1.22 3.89, 1.96 1.5, 9.97 0" stroke="#1e1e1e" stroke-width="2" fill="none"></path></g><g transform="translate(124.3057861328125 107.97137451171875) rotate(0 11.989990234375 12.5)"><text x="11.989990234375" y="0" font-family="Virgil, Segoe UI Emoji" font-size="20px" fill="#1e1e1e" text-anchor="middle" style="white-space: pre;" direction="ltr" dominant-baseline="text-before-edge">k2</text></g><g stroke-linecap="round" transform="translate(248.78131103515625 100.87611389160156) rotate(0 54.50946044921875 19.004531860351562)"><path d="M9.5 0 C40.67 -3.52, 64.38 0.02, 99.52 0 C104.39 -2.66, 110.56 6.04, 109.02 9.5 C111.21 17.3, 109.79 19.85, 109.02 28.51 C105.71 34.02, 105.97 39.24, 99.52 38.01 C64.49 36.16, 30.04 40.63, 9.5 38.01 C0.03 40.95, -1.08 34.77, 0 28.51 C-0.69 20.95, 0.12 18.85, 0 9.5 C0.7 1.42, 2.43 3.22, 9.5 0" stroke="none" stroke-width="0" fill="#ffec99"></path><path d="M9.5 0 C29.39 1.85, 51.82 1.96, 99.52 0 M9.5 0 C43.85 0.26, 77.47 -0.15, 99.52 0 M99.52 0 C104.54 0.8, 110.6 2.94, 109.02 9.5 M99.52 0 C107.23 -0.96, 107.12 4.88, 109.02 9.5 M109.02 9.5 C108.22 14.12, 110.52 22.68, 109.02 28.51 M109.02 9.5 C109.9 15.44, 108.86 22.98, 109.02 28.51 M109.02 28.51 C107.65 33.85, 107.35 36.82, 99.52 38.01 M109.02 28.51 C109.63 32.57, 104.3 36.91, 99.52 38.01 M99.52 38.01 C65.42 38.36, 34.16 37.61, 9.5 38.01 M99.52 38.01 C73.19 38.97, 47.75 37.46, 9.5 38.01 M9.5 38.01 C4.98 36.84, -0.7 36.46, 0 28.51 M9.5 38.01 C2.89 39.68, 0.29 35.53, 0 28.51 M0 28.51 C-0.11 22.63, -1.17 15.42, 0 9.5 M0 28.51 C1.05 24.52, -0.1 19.49, 0 9.5 M0 9.5 C-1.06 3.66, 1.99 1.31, 9.5 0 M0 9.5 C-0.16 2.51, 4.59 1.13, 9.5 0" stroke="#1e1e1e" stroke-width="2" fill="none"></path></g><g transform="translate(290.94078063964844 107.38064575195312) rotate(0 12.349990844726562 12.5)"><text x="12.349990844726562" y="0" font-family="Virgil, Segoe UI Emoji" font-size="20px" fill="#1e1e1e" text-anchor="middle" style="white-space: pre;" direction="ltr" dominant-baseline="text-before-edge">v2</text></g><g stroke-linecap="round"><g transform="translate(191.80523681640625 115.26846220904758) rotate(0 29.323730468749943 -0.5436473032542608)"><path d="M0.95 0.99 C10.38 0.58, 47.88 -1, 57.47 -1.33 M-0.01 0.47 C9.69 0.74, 49.95 0.1, 59.57 0.08" stroke="#1e1e1e" stroke-width="2" fill="none"></path></g><g transform="translate(191.80523681640625 115.26846220904758) rotate(0 29.323730468749943 -0.5436473032542608)"><path d="M36.16 8.85 C46.47 3.44, 53.16 1.9, 59.57 0.08 M36.16 8.85 C42.79 6.63, 51.44 3.42, 59.57 0.08" stroke="#1e1e1e" stroke-width="2" fill="none"></path></g><g transform="translate(191.80523681640625 115.26846220904758) rotate(0 29.323730468749943 -0.5436473032542608)"><path d="M36 -8.25 C46.54 -7.28, 53.29 -2.42, 59.57 0.08 M36 -8.25 C42.52 -5.21, 51.22 -3.15, 59.57 0.08" stroke="#1e1e1e" stroke-width="2" fill="none"></path></g></g><mask></mask><g stroke-linecap="round" transform="translate(79.99224853515625 148.94712829589844) rotate(0 54.50946044921875 19.938980102539062)"><path d="M9.97 0 C35.23 1.11, 51.38 -2.57, 99.05 0 C104.42 0.15, 112.45 4.2, 109.02 9.97 C105.91 16.88, 108.18 22.63, 109.02 29.91 C108.29 39.66, 109.19 38.58, 99.05 39.88 C68.51 42.94, 38.55 38.64, 9.97 39.88 C2.92 42.64, -0.95 35.35, 0 29.91 C0.54 23.09, -0.87 13.3, 0 9.97 C3.36 2.93, 5.39 -0.78, 9.97 0" stroke="none" stroke-width="0" fill="#a5d8ff"></path><path d="M9.97 0 C39.68 2.74, 66.35 -0.73, 99.05 0 M9.97 0 C28.41 -0.47, 46 -0.54, 99.05 0 M99.05 0 C106.13 -1.75, 108.87 2.37, 109.02 9.97 M99.05 0 C107.91 -1.05, 111.27 1.46, 109.02 9.97 M109.02 9.97 C109.97 15.99, 107.35 23.95, 109.02 29.91 M109.02 9.97 C108.79 15.08, 109.61 19.7, 109.02 29.91 M109.02 29.91 C109.47 36.06, 104.18 38.61, 99.05 39.88 M109.02 29.91 C106.85 37.36, 106.57 41.38, 99.05 39.88 M99.05 39.88 C80.36 40.82, 61.67 41.28, 9.97 39.88 M99.05 39.88 C77.79 39.9, 56.62 40.08, 9.97 39.88 M9.97 39.88 C4.57 39.45, -0.95 37.45, 0 29.91 M9.97 39.88 C4.18 38.84, 2.18 38.77, 0 29.91 M0 29.91 C-1.39 24.67, -1.83 16.22, 0 9.97 M0 29.91 C-0.55 22.04, -0.44 14.88, 0 9.97 M0 9.97 C1.04 2.5, 4.2 -0.86, 9.97 0 M0 9.97 C-1.96 4.17, 2.14 -0.46, 9.97 0" stroke="#1e1e1e" stroke-width="2" fill="none"></path></g><g transform="translate(122.82171630859375 156.3861083984375) rotate(0 11.67999267578125 12.5)"><text x="11.67999267578125" y="0" font-family="Virgil, Segoe UI Emoji" font-size="20px" fill="#1e1e1e" text-anchor="middle" style="white-space: pre;" direction="ltr" dominant-baseline="text-before-edge">k3</text></g><g stroke-linecap="round" transform="translate(246.98724365234375 149.2908477783203) rotate(0 54.50946044921875 19.004531860351562)"><path d="M9.5 0 C39.34 1.07, 75.14 1.79, 99.52 0 C105.36 -2.92, 112.2 0.34, 109.02 9.5 C108.28 18.79, 112.29 20.94, 109.02 28.51 C110.64 35.71, 107.7 38.2, 99.52 38.01 C66.52 39.84, 33.37 35.88, 9.5 38.01 C4.76 39.23, 1.62 35.5, 0 28.51 C3.26 22.41, 2.04 16.32, 0 9.5 C3.12 4.54, 0.09 -3.59, 9.5 0" stroke="none" stroke-width="0" fill="#ffec99"></path><path d="M9.5 0 C43.05 1.43, 81.93 0.95, 99.52 0 M9.5 0 C38.77 -1.01, 67.54 -0.61, 99.52 0 M99.52 0 C107.78 -0.92, 110.98 1.54, 109.02 9.5 M99.52 0 C107.72 0.64, 110.13 4.2, 109.02 9.5 M109.02 9.5 C108.09 14.86, 110.57 17.24, 109.02 28.51 M109.02 9.5 C109.32 14.84, 108.39 20.04, 109.02 28.51 M109.02 28.51 C107.13 35.54, 106.61 39.31, 99.52 38.01 M109.02 28.51 C106.97 34.91, 106.61 38.11, 99.52 38.01 M99.52 38.01 C68.24 37.84, 41.25 37.51, 9.5 38.01 M99.52 38.01 C79.33 37.34, 57.42 38, 9.5 38.01 M9.5 38.01 C3.92 37.1, 1.9 36.77, 0 28.51 M9.5 38.01 C3.65 38.92, 0.71 33.33, 0 28.51 M0 28.51 C1.82 23.49, -0.72 14.22, 0 9.5 M0 28.51 C0.54 22.69, 0.47 17.24, 0 9.5 M0 9.5 C-1.7 3.9, 2.14 -0.4, 9.5 0 M0 9.5 C-1.21 2, 3.93 2.05, 9.5 0" stroke="#1e1e1e" stroke-width="2" fill="none"></path></g><g transform="translate(289.4567108154297 155.79537963867188) rotate(0 12.039993286132812 12.5)"><text x="12.039993286132812" y="0" font-family="Virgil, Segoe UI Emoji" font-size="20px" fill="#1e1e1e" text-anchor="middle" style="white-space: pre;" direction="ltr" dominant-baseline="text-before-edge">v3</text></g><g stroke-linecap="round"><g transform="translate(190.01116943359375 163.68319609576633) rotate(0 29.323730468749943 -0.5436473032542608)"><path d="M0.14 0.27 C9.71 -0.03, 48.1 -0.5, 57.89 -0.9 M-1.25 -0.63 C8.67 -0.8, 50.29 0.85, 60.21 0.73" stroke="#1e1e1e" stroke-width="2" fill="none"></path></g><g transform="translate(190.01116943359375 163.68319609576633) rotate(0 29.323730468749943 -0.5436473032542608)"><path d="M36.57 8.88 C44.9 4.85, 52.69 3.81, 60.21 0.73 M36.57 8.88 C42.56 6.8, 47.6 4.72, 60.21 0.73" stroke="#1e1e1e" stroke-width="2" fill="none"></path></g><g transform="translate(190.01116943359375 163.68319609576633) rotate(0 29.323730468749943 -0.5436473032542608)"><path d="M36.87 -8.22 C45.23 -6.5, 52.92 -1.8, 60.21 0.73 M36.87 -8.22 C42.78 -6.67, 47.75 -5.12, 60.21 0.73" stroke="#1e1e1e" stroke-width="2" fill="none"></path></g></g><mask></mask></svg>