<svg version="1.1" xmlns="http://www.w3.org/2000/svg" viewBox="0 0 592.5221501078618 403.80706233908734" width="1185.0443002157235" height="807.6141246781747">
  <!-- svg-source:excalidraw -->
  
  <defs>
    <style class="style-fonts">
      @font-face {
        font-family: "Virgil";
        src: url("https://excalidraw.com/Virgil.woff2");
      }
      @font-face {
        font-family: "Cascadia";
        src: url("https://excalidraw.com/Cascadia.woff2");
      }
      @font-face {
        font-family: "Assistant";
        src: url("https://excalidraw.com/Assistant-Regular.woff2");
      }
    </style>
    
  </defs>
  <rect x="0" y="0" width="592.5221501078618" height="403.80706233908734" fill="#ffffff"></rect><g stroke-linecap="round"><g transform="translate(139.11285958761096 9.215916505753995) rotate(0 -0.42443918083120025 176.734939888902)"><path d="M0.23 1.2 C0.3 60.11, 0.27 294.17, 0.15 352.69 M-1.11 0.78 C-1.1 59.39, -0.33 291.95, -0.32 350.74" stroke="#1e1e1e" stroke-width="2" fill="none"></path></g></g><mask></mask><g stroke-linecap="round"><g transform="translate(139.96832833761096 362.79404150575397) rotate(0 220.75683639675378 -1.009660612295562)"><path d="M0.27 -0.07 C73.52 -0.14, 367.01 0.12, 440.38 -0.07 M-1.04 -1.15 C72.49 -1.62, 368.55 -2.15, 442.55 -2" stroke="#1e1e1e" stroke-width="2" fill="none"></path></g></g><mask></mask><g stroke-linecap="round"><g transform="translate(173.22614083761096 325.53622900575397) rotate(0 165.62134212378322 -121.58888906376107)"><path d="M-0.67 -1.08 C22.39 -42.21, 84.91 -243.89, 137.48 -246.54 C190.05 -249.19, 283.94 -57.1, 314.77 -16.99 C345.59 23.11, 320.09 -8.94, 322.44 -5.91 C324.8 -2.88, 327.43 0.35, 328.9 1.18 M1.18 0.97 C24.18 -39.97, 83.98 -242.18, 136.64 -244.98 C189.3 -247.77, 286.14 -55.3, 317.13 -15.81 C348.13 23.69, 320.39 -10.39, 322.61 -8 C324.83 -5.61, 329.29 -3.01, 330.46 -1.48" stroke="#1e1e1e" stroke-width="2" fill="none"></path></g></g><mask></mask><g transform="translate(297.75934396261084 368.80706233908734) rotate(0 31.499984741210938 12.5)"><text x="0" y="17.52" font-family="Virgil, Segoe UI Emoji" font-size="20px" fill="#1e1e1e" text-anchor="start" style="white-space: pre;" direction="ltr" dominant-baseline="alphabetic">YAGNI</text></g><g transform="translate(10.199413686717094 167.8448588256518) rotate(359.0471798585452 61.109947204589844 12.5)"><text x="0" y="17.52" font-family="Virgil, Segoe UI Emoji" font-size="20px" fill="#1e1e1e" text-anchor="start" style="white-space: pre;" direction="ltr" dominant-baseline="alphabetic">Code quality</text></g></svg>