<?xml version="1.0" encoding="UTF-8" standalone="no"?>
<svg
   xmlns:svg="http://www.w3.org/2000/svg"
   xmlns="http://www.w3.org/2000/svg"
   id="svg2"
   height="629"
   width="656"
   version="1.1">
  <defs
     id="defs4">
    <linearGradient
       id="linearGradient6"
       y2="558.2"
       gradientUnits="userSpaceOnUse"
       x2="-203.2"
       gradientTransform="translate(121.5 34.64)"
       y1="29.13"
       x1="-10.6">
      <stop
         id="stop8"
         stop-color="#a4a6e1"
         offset="0" />
      <stop
         id="stop10"
         stop-color="#deddfa"
         offset="1" />
    </linearGradient>
  </defs>
  <ellipse
     style="fill:url(#linearGradient6)"
     id="ellipse12"
     rx="334"
     ry="275"
     transform="rotate(-20)"
     cy="397.6"
     cx="204.5" />
  <path
     id="path14"
     d="m 312,627.5 c -1.4,-0.7 -2.8,-1.1 -3.3,-0.8 -0.4,0.2 -2.1,-0.7 -3.8,-2.1 -1.7,-1.4 -3.4,-2.6 -3.9,-2.6 -0.5,0 -3.7,-2.8 -7.2,-6.3 -3.5,-3.5 -7.7,-7.2 -9.3,-8.2 -1.7,-1 -3.8,-2.9 -4.7,-4.1 -1,-1.2 -3.6,-2.9 -5.8,-3.8 -3,-1.2 -4.9,-3.1 -8.1,-8.1 -2.3,-3.6 -4.8,-6.5 -5.5,-6.5 -0.7,0 -2.2,-1.2 -3.4,-2.8 -2.8,-3.7 -9.1,-8.3 -10.2,-7.6 -0.5,0.3 -1.9,-0.3 -3.1,-1.3 -1.2,-1.1 -2.9,-2.3 -3.8,-2.6 -1.7,-0.5 -11.9,-15.1 -11.9,-16.8 0,-0.5 -0.9,-2.8 -2,-4.9 -1.4,-2.7 -4,-5.2 -7.9,-7.7 -3.9,-2.6 -6.6,-5.2 -8.1,-8 -2,-3.8 -2.1,-4.4 -0.7,-5.7 l -6.2,-10.1 c -1,0.5 -2.6,-5.3 -1.8,-6.1 0.3,-0.3 0.1,-2 -0.5,-3.7 -0.6,-1.8 -1.2,-4.4 -1.3,-6 -0.2,-1.5 -0.8,-4.8 -1.4,-7.5 -0.7,-2.6 -1.1,-6.1 -1,-7.7 0.3,-5.4 -0.1,-6.5 -2.6,-7.5 -1.6,-0.6 -3.2,-2.5 -4.2,-4.7 -0.8,-2.1 -2.1,-4.2 -2.8,-4.8 -2,-1.6 -10.7,-21.4 -10.1,-23 1,-2.7 -4.1,-16.9 -8.4,-23.4 -2.3,-3.4 -5.5,-9.1 -7.1,-12.5 -3,-6.6 -3.6,-11.2 -4.4,-36.1 -0.2,-7.2 -0.9,-15.5 -1.4,-18.5 -0.6,-3 -0.9,-7.5 -0.7,-10 0.5,-7.8 0.4,-7.5 2.3,-5.8 l -0.7,-13.4 0.1,-11 c -1.4,2.3 -2.3,-3.6 -1.1,-7.3 0.9,-2.9 0.8,-3.7 -1.4,-7 -1.4,-2 -2.8,-4.6 -3.2,-5.8 -0.3,-1.2 -2,-5.3 -3.6,-9.1 -2.1,-4.9 -2.7,-7.1 -1.9,-7.9 l -0.3,-3.1 c -1.4,1.8 -1.5,1.9 -2.2,0 -0.8,-2 0.8,-5.2 2.4,-4.9 l -1.3,-4.3 c -1.8,0.7 -2.8,-0.9 -3.2,-5.4 -0.2,-1.9 -0.8,-4.7 -1.4,-6.1 -0.5,-1.4 -0.9,-3 -0.8,-3.5 0.1,-0.5 -0.3,-2.9 -1,-5.4 -1.6,-5.5 -0.8,-15 1.3,-16.5 2,-1.5 4.5,-8.9 3.5,-10.6 -0.4,-0.8 -1.9,-4.9 -3.3,-9.1 -2.3,-7 -2.6,-9.1 -2.3,-20.4 0.2,-11.2 0.4,-12.7 2.2,-14 1.5,-1.2 1.7,-1.8 0.9,-3.2 -0.8,-1.3 -0.8,-2.2 0.3,-3.8 1.2,-1.9 1.2,-2.4 -0.4,-3.9 -1.1,-1.2 -1.8,-1.4 -2.1,-0.6 -0.3,0.9 -0.7,0.9 -1.8,0 -1.6,-1.3 -1.9,-7.2 -0.4,-9.8 0.5,-1 1.1,-4.3 1.3,-7.4 0.3,-3.7 1.6,-8.1 4.1,-13.4 2.2,-4.6 3.8,-9.4 3.8,-11.7 0,-4.5 5.5,-16.9 9.3,-21 1.4,-1.53 3.7,-5.78 5.1,-9.41 1.3,-3.63 3.4,-7.46 4.5,-8.5 1.1,-1.04 1.8,-2.49 1.5,-3.23 -0.3,-0.73 0.6,-2.82 1.9,-4.65 1.3,-1.82 3.3,-4.92 4.4,-6.88 C 173.6,64.89 181.2,57 182.4,57 l 3.1,-3.01 c 0.3,-0.55 1.2,-0.99 2,-0.99 0.7,0 1.6,-0.84 2,-1.88 1,-3.2 7.6,-9.3 12.4,-11.4 2.5,-1.1 6.7,-3.74 9.2,-5.86 2.6,-2.12 5.3,-3.87 6,-3.88 0.8,-0.01 2.5,-0.9 3.9,-1.98 1.4,-1.08 3.2,-1.97 4,-1.98 0.9,-0.01 2,-0.44 2.5,-0.95 1.5,-1.45 12.6,-7.07 13.9,-7.07 0.7,0 3.1,-0.92 5.4,-2.04 2.4,-1.12 4.6,-1.82 5.1,-1.55 0.4,0.27 2.1,-0.2 3.7,-1.04 1.6,-0.84 4,-1.67 5.4,-1.85 2.2,-0.29 7.1,-1.792 21.7,-6.583 1.8,-0.584 3.7,-0.831 4.1,-0.548 0.5,0.283 3.7,-0.161 7.3,-0.987 4.1,-0.972 10.3,-1.41 17.4,-1.244 6.4,0.148 11.8,-0.191 13,-0.804 2.7,-1.413 41.1,-1.643 43.7,-0.261 1,0.567 6.4,1.047 12,1.067 6.1,0.022 11.3,0.565 13.3,1.398 1.8,0.749 3.5,1.149 3.7,0.889 0.3,-0.261 2.1,0.189 4,1 2,0.81 3.8,1.225 4.1,0.922 0.3,-0.303 2.8,0.596 5.6,1.999 2.8,1.402 5.1,2.332 5.1,2.072 0,-0.27 1.9,0.46 4.1,1.62 2.3,1.15 4.9,2.25 5.8,2.43 3.7,0.77 7,2.59 12.8,7.33 3.4,2.77 7.2,5.32 8.3,5.67 1.1,0.35 2,1.01 2,1.46 0,0.44 1.3,1.37 3,2.05 1.6,0.68 3,1.61 3,2.05 0,0.45 0.9,1.1 2,1.45 1.1,0.35 2.6,1.16 3.3,1.82 2.3,2.16 7.6,5.68 8.5,5.68 0.5,0 3,2.14 5.5,4.75 2.5,2.61 6.3,6.39 8.4,8.4 5.2,5.02 13.8,15.75 16.2,20.45 1.1,2.15 3.4,5.14 5,6.65 2.8,2.6 8.1,11.94 8.1,14.19 0,0.57 1.6,4.36 3.7,8.46 2,4.1 4,9.1 4.5,11.3 0.4,2.1 1.3,5.7 1.8,8 0.6,2.4 1.3,6.3 1.5,8.8 0.3,2.5 1,5.8 1.5,7.5 0.5,1.6 0.9,5.6 0.9,8.7 0,3.2 0.3,6.3 0.6,6.9 0.4,0.6 0.9,3.1 1.1,5.6 0.3,2.5 0.9,5.4 1.5,6.4 0.5,1 0.9,6.1 0.8,11.1 -0.2,6 0.2,10.1 1,11.7 1.2,2.1 1.1,2.3 -0.2,1.8 -1.3,-0.5 -1.3,-0.2 0,2.3 1.2,2.6 1.2,3.5 -0.1,7.3 -0.8,2.4 -1.2,5.4 -0.9,6.5 0.6,2.3 -1.3,11.3 -3.2,15.2 -0.9,2 -0.9,3 0.1,5 0.9,1.6 1.4,6.2 1.4,12.5 0,7.9 -0.5,11.7 -2.5,17.9 -1.4,4.3 -2.2,8.2 -1.9,8.7 0.5,0.9 -2.5,12.6 -5.1,19.9 -0.7,1.9 -2.7,4.5 -4.5,5.7 -4.7,3.2 -6.3,6.8 -6.2,13.8 0,3.9 -0.7,7.4 -1.9,9.9 -1,2.2 -1.9,4.8 -1.9,5.8 0,3.1 -6.7,16.2 -9,17.6 -1.2,0.7 -1.9,1.9 -1.7,2.6 0.3,0.8 -0.1,3.3 -0.9,5.6 -0.8,2.3 -1.2,5 -0.9,6 1,3.2 1.7,8.4 2.2,17.8 0.3,5.9 0.1,10.2 -0.6,12 -0.7,1.6 -1.2,3.9 -1.3,5.3 0,1.3 -0.7,4.4 -1.5,6.9 -2.2,6.7 -4.4,15.1 -4.8,18.5 -0.8,6.5 -2.3,11.6 -3.9,13.4 -0.9,0.9 -1.6,2.5 -1.6,3.4 0,0.9 -0.9,3.2 -2,5.2 -1.1,2 -2,4.5 -2,5.6 0,1.1 -0.5,2.9 -1.1,4.1 -0.6,1.1 -1.2,4.6 -1.4,7.7 -0.2,3.1 -0.7,7.4 -1.2,9.7 -1.3,5.3 -5.7,14.3 -11.4,22.9 -4.8,7.3 -10.9,19.1 -10.9,21.1 0,0.7 -1.1,3.1 -2.4,5.4 -1.3,2.4 -2.2,4.8 -2,5.4 0.2,0.6 -1.4,2.9 -3.6,5.1 -2.2,2.1 -4,4.4 -4,5 0,0.7 -0.9,2 -2,3 -1.1,1 -2,3 -2,4.5 0,1.5 -0.9,3.9 -2,5.3 -1.1,1.4 -2,3.4 -2,4.6 0,2.5 -2,7.1 -3.2,7.1 -0.4,0 -0.8,0.6 -0.8,1.3 0,0.6 -5.6,7 -12.5,14.1 -6.9,7.2 -12.5,13.3 -12.5,13.7 0,0.5 -2.6,2.5 -5.8,4.5 -3.1,2.1 -6.7,4.6 -7.9,5.7 -1.3,1.1 -2.6,1.8 -2.9,1.4 -1.3,-1.2 -12.2,5.3 -15.5,9.3 -4.8,5.8 -10.4,10 -13.8,10.4 -1.7,0.2 -3.8,0.9 -4.6,1.6 -0.9,0.7 -1.8,1 -2.1,0.7 -0.7,-0.7 -8,2.8 -8.9,4.2 -0.7,1.2 -11.7,6.3 -12.3,5.7 -0.2,-0.3 -1.6,0 -3.1,0.6 -4.2,1.6 -9.4,1.8 -12.1,0.3 z" />
  <path
     id="path14"
     d="m 352.8,584.7 c 0.7,-1.5 0.8,-2.7 0.2,-2.7 -1.2,0 -3,3.4 -3,5.6 0,2.2 1.2,0.9 2.8,-2.9 z m 3.2,-6.1 c 0,-1.6 -2.6,-4.6 -4,-4.6 -0.5,0 -1.6,0.7 -2.5,1.6 -1.1,1.1 -1.3,2 -0.6,2.7 0.7,0.7 1.5,0.6 2.5,-0.3 1.3,-1 1.7,-0.9 2.2,0.4 0.8,2 2.4,2.1 2.4,0.2 z m -51.6,-6.3 c 0.3,-0.7 0.1,-1.3 -0.5,-1.3 -0.6,0 -0.7,-0.5 -0.4,-1 0.8,-1.3 -1.4,-4.2 -2.6,-3.4 -0.5,0.3 -0.9,-0.2 -0.9,-1.1 0,-0.9 -1.3,-2.9 -2.9,-4.5 -2,-2 -3.5,-2.7 -5,-2.3 -1.6,0.4 -2.1,1.3 -2,3.7 0,1.7 0.3,2.5 0.6,1.8 0.3,-0.7 2.1,0.8 4.6,4 2.3,2.9 4.5,5.5 5,5.6 0.4,0.2 0.4,0.8 0.1,1.4 -0.3,0.5 0.3,0.4 1.5,-0.4 1.1,-0.7 2.3,-1.8 2.5,-2.5 z m 15.1,0.8 c -0.3,-0.5 0.3,-1.6 1.3,-2.3 2.4,-1.7 3.6,-4.8 1.8,-4.8 -0.8,0 -1.7,0.7 -2,1.6 -0.3,0.8 -1,1.3 -1.5,1 -1,-0.6 -2.3,3.3 -1.5,4.6 0.3,0.4 1,0.8 1.5,0.8 0.6,0 0.8,-0.4 0.4,-0.9 z m -59.5,-9 c 0,-3 -1.1,-5.1 -2.6,-5.1 -1.7,0 -1.8,1.1 -0.2,4.5 1.3,3 2.8,3.3 2.8,0.6 z m 59.3,-6.2 c 0.3,-1.1 0,-1.9 -0.7,-1.9 -1.5,0 -3.6,2.1 -3.6,3.6 0,1.9 3.8,0.4 4.3,-1.7 z m 33.7,-5.6 c 0,-2.1 0.2,-2.3 1.5,-1.3 0.8,0.7 1.3,1.6 1,2 -0.8,1.2 1.1,2.1 2.9,1.4 0.9,-0.4 2,-2.9 2.7,-6.5 0.8,-4.2 1.8,-6.3 3.2,-7.1 1.6,-0.8 1.9,-0.8 1.4,0.5 -0.4,1.2 0,1.5 2.1,1.2 1.5,-0.2 3.2,-0.4 3.9,-0.4 0.6,-0.1 2.5,-2.2 4.2,-4.7 1.7,-2.5 2.7,-4.3 2.1,-3.9 -0.5,0.3 -1,0.2 -1,-0.4 0,-2.3 1.4,-4.3 3.6,-5.2 2.9,-1 3.1,-3.5 0.5,-4.9 -2.9,-1.5 -3.6,-1.2 -1.8,0.8 1.8,1.9 1.4,3.2 -0.9,3.2 -0.9,0 -1.1,-0.6 -0.7,-1.8 0.6,-1.5 0.5,-1.5 -1,-0.3 -1,0.7 -1.6,2 -1.5,2.9 0.2,0.8 -0.6,1.9 -1.7,2.6 -4.3,2.4 -4.8,5.3 -0.5,3.1 l 2.9,-1.5 -2,3.4 c -1.1,1.9 -2.7,4 -3.6,4.8 -1.2,0.9 -1.5,0.9 -0.9,0.1 0.4,-0.7 0.1,-2.3 -0.6,-3.5 -1.3,-2.5 -1.2,-4.9 0.4,-5.9 0.6,-0.4 1.8,-2.5 2.8,-4.8 1.7,-3.6 1.7,-4.2 0.4,-5.6 -1.8,-1.7 -4,-2 -4.9,-0.5 -1,1.6 -2.5,1.1 -1.8,-0.6 0.3,-0.9 1.4,-1.9 2.5,-2.3 1.9,-0.7 1.9,-0.8 -0.2,-3.4 -1.2,-1.5 -1.8,-3.1 -1.5,-3.7 0.3,-0.5 -0.1,-1 -0.9,-1 -2.3,0 -3.1,0.4 -2.8,1.3 0.1,0.4 -0.7,2.5 -1.8,4.7 -1.1,2.2 -1.8,4 -1.4,4 1.1,0 4.3,-4.5 4.4,-6 0,-1.3 0.1,-1.3 1,0 0.5,0.8 0.5,1.7 0.1,2 -0.5,0.3 -1.4,2.4 -2,4.6 -0.6,2.3 -1.8,4.4 -2.6,4.7 -0.9,0.4 -1.2,0.1 -0.8,-0.9 0.3,-0.7 0,-1.4 -0.6,-1.4 -0.6,0 -1.6,1.2 -2.1,2.6 -0.6,1.5 -1.9,3.9 -3,5.4 -1.1,1.6 -2,3.3 -2,3.9 0,0.7 -1.6,4.5 -3.6,8.7 -2.6,5.5 -3.4,8.2 -2.9,10.3 0.5,2.3 1,2.8 2.7,2.3 1.5,-0.4 1.9,-0.2 1.3,0.7 -0.6,1 -0.3,1.1 1.4,0.2 1.3,-0.7 2.1,-2.1 2.1,-3.8 z m -5,-0.9 c 0,-1.3 3.2,-6.5 3.7,-6 0.8,0.7 -1.7,6.6 -2.8,6.6 -0.5,0 -0.9,-0.2 -0.9,-0.6 z m -97.3,2.4 c 0.6,-0.5 1.2,-2.8 1.2,-5.1 0.1,-2.3 0.2,-5.3 0.2,-6.7 0.2,-4 -1.1,-11.1 -2.5,-13.9 -0.7,-1.4 -1.6,-4.6 -1.9,-6.9 -0.3,-2.6 -1.4,-5.2 -2.7,-6.4 -1.7,-1.6 -1.9,-2.3 -0.9,-3.4 0.9,-1.1 1.5,-1.2 2.5,-0.3 0.8,0.6 1.4,1.9 1.4,2.8 0,0.9 0.9,2.2 2,2.9 1.2,0.7 1.8,1.7 1.5,2.2 -1,1.6 2.4,7 4.4,7 1,0 2.4,0.7 3.1,1.5 1.1,1.3 1,1.4 -0.4,0.9 -1.2,-0.5 -1.5,-0.2 -1,0.9 0.6,1.8 3.4,3.1 3.4,1.7 0,-0.6 1.8,0.1 4,1.5 2.2,1.4 4.2,2.5 4.4,2.5 1,0 -0.7,-3.5 -2.7,-5.7 -1.1,-1.3 -1.8,-2.6 -1.5,-2.9 0.4,-0.3 2,0.2 3.6,1 2.8,1.4 3.2,1.4 4.6,0 1.7,-1.7 2.2,-4.9 0.6,-3.9 -0.6,0.3 -1,0.2 -1,-0.2 0,-1.4 3,-5.3 4.1,-5.3 0.5,0 0.9,1.3 0.9,2.9 0,1.7 0.4,3.2 0.9,3.5 1.6,1.1 3.4,-2.3 2.8,-5.4 -0.5,-2.4 -0.2,-3.3 1.8,-4.6 2.6,-1.7 4.1,-5.4 3.6,-8.7 -0.3,-2.3 1,-2.2 4.3,0.4 2.1,1.7 2.5,2.4 1.4,3 -0.7,0.5 -1.3,1.2 -1.3,1.6 -0.1,0.4 -1.1,3.9 -2.4,7.8 -2.4,7.1 -4.4,9.6 -15.6,19.2 -1.8,1.5 -3.8,4.1 -4.4,5.6 -0.7,2 -0.7,2.6 0.1,2.1 1.5,-0.9 0.1,1.4 -2.5,4.3 -1.1,1.3 -1.8,2.6 -1.5,2.9 1.2,1.1 6,-3 7.6,-6.5 1.1,-2.3 2.5,-3.6 3.7,-3.7 1.1,-0.1 3.7,-1.1 5.7,-2.2 2.1,-1.2 4,-1.7 4.3,-1.3 0.2,0.5 -0.2,1.1 -1,1.5 -1.6,0.6 -2.1,2.6 -0.6,2.6 0.5,0 1.9,-0.8 3.2,-1.9 2.4,-1.9 2.4,-1.8 -2,-6.7 -0.7,-0.8 -1.2,-1.6 -1,-1.8 0.2,-0.2 1.8,-1 3.4,-1.9 2.1,-1 4,-3.4 6,-7.6 2.1,-4.5 3.4,-6.1 4.9,-6.1 1.6,0 1.7,0.3 0.8,1.2 -1.8,1.8 -1.5,2.8 0.8,2.8 1.9,0 2.4,-1 2.1,-3.8 -0.4,-2.9 -12.6,-15.6 -14.4,-14.9 -2.7,1 -4.2,-1.1 -4.3,-6 0,-2.7 -1.3,-7.9 -2.7,-11.6 -1.8,-4.4 -2.3,-6.7 -1.5,-6.5 0.7,0.3 2.1,2.1 3.1,4.1 0.9,2 2.4,3.7 3.3,3.7 0.8,0 1.2,-0.5 0.9,-1 -0.9,-1.4 -0.1,-1.3 5.3,1.1 10,4.4 11.3,4.9 12.6,4.9 1.8,0 2.7,-2.3 1.5,-4.1 -0.7,-1.2 -0.9,-1.2 -0.9,0.1 -0.1,0.8 -0.8,0.1 -1.7,-1.5 -0.8,-1.7 -3.5,-4.9 -5.9,-7.2 -2.4,-2.4 -4.4,-4.6 -4.4,-5.1 0,-0.4 -1.1,-2.3 -2.5,-4.2 -1.4,-1.8 -2.8,-5 -3.1,-6.9 -0.3,-2 -1.2,-4.6 -2,-5.8 -1.1,-1.8 -1.1,-2.3 0,-3.3 0.8,-0.6 2.5,-0.8 4.1,-0.4 2.5,0.6 2.6,0.9 2,4.3 -0.7,3.2 -0.9,7.3 -0.6,10.8 0.1,0.7 0.6,1.3 1.2,1.3 0.5,0 0.7,-0.5 0.4,-1 -0.3,-0.6 0.1,-1 1,-1 0.9,0 2.9,1.4 4.4,3.1 2,2.2 3,2.7 3.4,1.7 0.3,-0.8 1.1,0.2 2.1,2.4 0.9,2 2,3.9 2.5,4.2 0.5,0.3 2,0.2 3.3,-0.3 1.6,-0.6 3,-0.4 4.5,0.7 2.1,1.3 2.3,1.3 2.3,-0.5 0,-1 -0.5,-2.4 -1,-2.9 -0.7,-0.7 -0.4,-1.6 1,-2.9 1.1,-1 2,-2.2 2,-2.7 0,-0.4 -1.4,-0.8 -3,-0.8 -2,0 -3,-0.5 -3,-1.5 0,-1 1,-1.5 3.4,-1.5 3.9,0 6.4,2.3 4.8,4.3 -0.7,0.8 -0.7,1.8 -0.2,2.7 1.7,2.7 5.4,-0.5 9.2,-7.9 3.7,-7.1 3.7,-7.2 1.8,-9.1 -1.5,-1.5 -2.5,-1.7 -4.2,-1.1 -1.9,0.7 -2.2,1.5 -2,4.5 l 0.4,3.7 -3.4,-1.7 c -1.8,-1 -5.3,-1.9 -7.8,-2.1 -4.6,-0.3 -12.1,-3.5 -14.2,-6 -2.1,-2.6 0.1,-2.5 3.5,0.1 2.9,2.2 4.4,2.6 10.5,2.6 5.6,0 7.2,-0.3 7.2,-1.4 0,-1.7 5.1,-3 8,-2.1 1.9,0.6 2.7,-0.5 1.3,-1.8 -0.3,-0.4 -0.7,-1.9 -0.8,-3.3 0,-1.7 0.8,-3.2 2.6,-4.5 1.4,-1 3.2,-3.2 3.8,-4.7 1,-2.4 1,-3.6 -0.2,-6.5 -1.4,-3.2 -1.3,-3.8 0.4,-6.6 1,-1.7 2.6,-3.1 3.6,-3.1 2,0 5.3,-2.8 5.3,-4.6 0,-1.1 -0.8,-1 -3.5,0.3 -2.6,1.3 -3.8,1.4 -4.7,0.5 -0.8,-0.8 -1.8,-0.6 -3.8,0.8 -2.7,1.9 -2.8,1.9 -4.5,0 -1.6,-1.8 -1.6,-2 -0.1,-2.6 0.9,-0.3 3.3,-0.4 5.4,-0.2 3.9,0.5 8.1,-0.8 8.4,-2.6 0.4,-3.4 0,-4.3 -3.1,-6.4 -1.9,-1.3 -5.4,-2.5 -7.8,-2.8 -2.5,-0.2 -4.8,-0.6 -5.2,-0.8 -0.4,-0.3 -1.3,-0.1 -2.1,0.4 -0.9,0.6 -2.3,0.2 -4.1,-1.1 -1.5,-1 -3.2,-1.9 -3.8,-1.9 -1.5,0 -1.4,1.7 0.1,2.3 0.7,0.2 1,0.7 0.6,1.1 -0.3,0.4 -1.6,-0.2 -2.8,-1.4 -1.6,-1.6 -3.5,-2.2 -6.6,-2.3 -2.5,0 -4.9,0.4 -5.5,1 -1.6,1.6 -7.2,-1.5 -9.3,-5.1 -1.2,-2 -2,-2.6 -2.3,-1.8 -0.4,0.9 -1.1,0.4 -2.3,-1.5 -0.9,-1.5 -1.5,-3.2 -1.3,-3.6 0.3,-0.4 1.6,-0.1 2.9,0.8 2.5,1.6 3.4,1.7 22.9,1.7 4.4,0 11.6,0 15.9,0.1 5.6,0.1 8,-0.2 8.3,-1.1 0.3,-0.8 -0.1,-1 -1.3,-0.5 -1.2,0.4 -1.5,0.2 -1.2,-0.8 0.6,-1.9 3.9,-2.4 4.9,-0.7 0.6,0.9 0.9,0.7 0.9,-0.9 0,-1.2 1.4,-3.2 3.2,-4.7 2.8,-2.1 3.1,-2.9 2.2,-4.3 -0.6,-1 -3.9,-2.6 -7.4,-3.7 -5.7,-1.7 -6.5,-1.7 -9.4,-0.3 -1.7,0.8 -4.8,1.3 -6.9,1.2 -2.1,-0.2 -3.5,0.1 -3.1,0.6 0.3,0.5 -0.2,0.9 -1,0.9 -0.9,0 -1.6,-0.6 -1.6,-1.4 0,-2.5 -5.5,-4.2 -13.2,-4 -6.3,0.2 -8.4,0.8 -15.5,4.3 -7.1,3.5 -8.5,4.6 -10.3,8.3 -1.1,2.3 -2,5 -2,5.9 0,1 -0.5,2.1 -1,2.4 -0.6,0.3 -1,2.4 -1,4.5 0,2.1 -0.5,4.2 -1,4.5 -0.6,0.3 -1,3.7 -1,7.6 0,6.9 -1.4,9.3 -2.6,4.1 -0.3,-1.5 -0.8,-3.4 -1.1,-4.2 -0.9,-2.3 -0.4,-4.4 1.7,-6.1 1.6,-1.4 1.7,-1.9 0.6,-3.5 -1.2,-1.5 -1.1,-2.2 0.3,-4.3 0.9,-1.4 1.1,-2.2 0.4,-1.8 -1.6,1 -2.2,-1.4 -0.9,-3.6 0.9,-1.4 0.7,-2.1 -0.8,-3.2 -2.2,-1.7 -4.3,-0.8 -6,2.6 -0.9,1.9 -1.9,2.4 -5.1,2.4 -3.7,0 -4.1,-0.3 -6.1,-4.3 -1.6,-3.3 -2,-5.1 -1.4,-7.7 0.4,-1.8 0.5,-4.5 0.3,-5.9 -0.3,-1.4 -0.2,-2.6 0.2,-2.6 0.3,0 2,1.4 3.7,3 1.9,1.9 2.8,3.6 2.4,4.6 -0.4,0.9 -1.3,1.4 -2.1,1 -0.9,-0.3 -1.9,0.3 -2.5,1.4 -0.7,1.4 -0.7,2 0,2 0.5,0 1,-0.5 1,-1 0,-0.6 0.5,-1 1,-1 0.7,0 0.7,0.7 0,2.1 -0.7,1.1 -0.9,2.7 -0.6,3.5 0.7,1.9 3.9,1 8.4,-2.4 2.9,-2.2 3.1,-2.7 1.9,-4.5 -1.1,-1.7 -0.9,-2.6 1.2,-6.9 1.4,-2.9 3.4,-5.4 4.7,-5.9 1.3,-0.4 2.6,-1.9 2.9,-3.2 0.4,-1.4 1.7,-3 3,-3.7 1.3,-0.7 2.5,-2.2 2.7,-3.3 0.3,-2 0.4,-2 3.2,0.6 l 2.9,2.7 4.2,-2.3 c 3.6,-2.1 4.5,-2.2 6,-1 1.1,0.7 2.9,1.3 4.2,1.3 2.6,0 6.7,-3.6 5.8,-5 -0.8,-1.3 2,-5.2 3.1,-4.2 0.4,0.4 0.2,-0.2 -0.6,-1.2 -3.5,-4.6 -6.2,-7 -8.3,-7.3 -1.2,-0.2 -3.5,-1.7 -5.2,-3.3 -5.4,-5.2 -13.5,-7.3 -13.5,-3.4 0,1.8 -1,1.8 -3.8,-0.2 -1.3,-0.9 -2.1,-2.1 -1.9,-2.7 0.2,-0.7 -0.4,-2.8 -1.4,-4.9 -1.6,-3.2 -1.7,-3.7 -0.3,-4.9 1.2,-1 1.8,-0.8 3.5,0.9 2.3,2.5 3.4,2.8 2.6,0.8 -0.7,-1.7 1.5,-3.8 3.3,-3.4 1.5,0.4 4.9,-5.2 4.2,-7 -0.2,-0.6 -1.3,-1.2 -2.3,-1.2 -1,0 -1.6,0.5 -1.4,1.2 0.6,1.6 -1.1,4.5 -2.1,3.6 -0.4,-0.4 -0.1,-2 0.5,-3.6 0.7,-1.6 1.4,-4.7 1.6,-6.8 0.2,-2.1 0.8,-4 1.4,-4.2 1.6,-0.5 7.1,-12.4 6.7,-14.6 -0.1,-1 0.3,-3.5 1,-5.5 0.6,-2 1,-5.9 0.8,-8.8 -0.4,-3.6 0,-6.2 1.1,-8.4 0.9,-1.7 1.4,-3.3 1.1,-3.7 -0.3,-0.3 -0.2,-1 0.3,-1.6 0.8,-1.1 3.4,-8.1 3.7,-10.1 0.1,-0.6 0.2,-1.9 0.3,-3.1 0.1,-2.5 2.7,-6.2 3.7,-5.2 0.3,0.4 -0.1,1.9 -1,3.3 -1.6,2.4 -1.6,2.5 0.8,2.5 1.4,0 3.1,-0.9 4,-2.1 1.7,-2.5 6.1,-4.9 9,-4.9 1.5,0 2.6,-1.1 3.7,-3.9 1.5,-3.5 1.5,-3.9 0.1,-3.4 -1.1,0.5 -1.3,0.3 -0.7,-0.8 0.4,-0.8 1.6,-2.3 2.6,-3.5 1.7,-1.9 1.8,-2.2 0.3,-4 -0.8,-1 -1.2,-1.2 -0.8,-0.4 0.7,1.3 0.6,1.3 -1,0.1 -1.3,-1.1 -1.4,-1.6 -0.5,-2.2 2.1,-1.2 -5.3,-2.1 -8.3,-1 -1.7,0.6 -3.8,0.7 -6,0.1 -4.3,-1.3 -9.5,0.4 -12.8,4.2 -1.5,1.7 -3.7,3 -5.6,3.2 -1.7,0.2 -3.6,0.6 -4.3,1 -0.6,0.4 -1.1,2.2 -1.1,4 0,2.2 -0.5,3.3 -1.5,3.3 -0.8,0 -1.5,-0.4 -1.5,-0.8 0,-1 -12.8,-3.9 -14.4,-3.3 -0.7,0.3 -2.8,-0.2 -4.7,-0.9 -3.8,-1.5 -15.4,-1.4 -17.3,0.2 -0.9,0.7 -1.6,0.7 -2.3,0 -1.6,-1.6 -9,0.7 -10.4,3.3 -1,1.8 -0.9,2 0.5,1.5 2.4,-1 2,2 -0.5,3.4 -1.7,0.8 -3.1,0.8 -6,0 -3.4,-1 -4.1,-0.9 -5.9,0.9 -2.5,2.5 -4.9,2.8 -2.9,0.3 1.3,-1.6 1.3,-1.6 -1,-0.1 -1.9,1.3 -2.9,1.5 -4.5,0.6 -1.1,-0.6 -4.9,-1.1 -8.4,-1.1 -5.5,0 -6.5,-0.2 -7.9,-2.3 -1.4,-2.2 -1.7,-2.3 -4.3,-0.9 -1.6,0.8 -3.2,2 -3.5,2.6 -1.1,1.7 0.3,2.3 2,0.9 0.9,-0.7 1.8,-1 2.2,-0.6 1,1 -1.5,5.6 -3.1,5.6 -0.7,0 -1.9,0.7 -2.6,1.5 -0.8,0.9 -0.8,1.5 -0.2,1.5 0.6,0 1.2,-0.6 1.5,-1.3 0.2,-0.6 0.3,0.8 0.2,3.3 -0.3,6 -0.3,6 -1.6,6 -0.6,0 -0.8,-0.8 -0.5,-1.8 0.5,-1.4 0.3,-1.4 -0.9,0.2 -1.7,2.3 -1.4,3.8 2.8,12.1 2.3,4.7 2.5,5.6 1,4.2 -1.1,-0.9 -2.3,-1.7 -2.7,-1.7 -1.1,0 2.4,6.1 3.8,6.6 0.8,0.3 1.7,2.5 2.1,5 0.8,5.5 3,10.9 5.4,13.3 2.1,2.1 3.3,6 3.5,11.8 0,2.5 0.8,4.9 1.8,5.9 1.6,1.6 1.6,2 0.1,4.4 -1.5,2.6 -1.4,3 1.7,9.4 2.1,4.5 3,7.6 2.6,9.1 -0.7,2.6
1.1,7.5 2.7,7.5 0.5,0 0.7,-0.7 0.3,-1.5 -0.3,-0.9 0,-1.5 0.8,-1.5 1.7,0 4,2.7 2.7,3.2 -0.5,0.1 0,2.2 1.1,4.5 1.2,2.6 2.5,4 3.3,3.7 2.3,-0.9 2.6,1.4 0.4,3.5 -1.7,1.6 -2.6,1.8 -3.6,1 -0.7,-0.6 -1.1,-1.5 -0.8,-1.9 0.8,-1.2 -2,-1.9 -3.6,-0.9 -0.8,0.5 -1,0.9 -0.5,0.9 0.5,0 0.3,0.7 -0.4,1.5 -1,1.2 -1.6,1.3 -2.7,0.4 -0.8,-0.7 -1.1,-1.9 -0.8,-2.6 0.6,-1.8 -0.4,-6.3 -1.5,-6.3 -0.5,0 -1,0.8 -1.2,1.7 -0.3,1.4 -0.8,1 -2.1,-1.5 -1,-1.7 -1.3,-3.2 -0.7,-3.2 0.5,0 1,-0.6 1,-1.4 0,-0.8 0.6,-1.6 1.2,-1.9 0.9,-0.3 0.3,-1.5 -1.6,-3.5 -3,-3.3 -2.7,-5.7 0.6,-4.6 1.8,0.5 2,0.3 1.3,-1.2 -0.4,-1.1 -0.7,-2.6 -0.8,-3.4 0,-2.1 -1.7,-4 -3.4,-4 -1,0 -1.3,0.6 -0.9,1.6 0.5,1.4 0.4,1.5 -0.9,0.4 -0.9,-0.7 -1.4,-1.9 -1.1,-2.6 0.3,-0.7 -0.3,-2.3 -1.3,-3.6 -1,-1.3 -2.1,-3.5 -2.5,-5 -0.3,-1.5 -1.4,-3.2 -2.4,-3.7 -1.7,-0.9 -1.8,-0.2 -1.8,10.7 0,6.4 -0.5,14.2 -1.1,17.2 -0.7,3.7 -0.7,6.4 0,8.4 0.8,2.3 0.7,3 -0.5,3.7 -0.9,0.5 -2.1,2.1 -2.7,3.7 -1.1,2.6 -0.9,3.2 1.7,6 1.7,1.8 3.5,3.2 4.1,3.2 0.6,0 1.5,0.9 2.1,2 0.8,1.4 0.8,2.6 0,4 -1.4,2.6 -4.4,2.7 -3.5,0.1 0.3,-1 -0.1,-2.4 -1,-3.1 -2.2,-1.9 -7.4,-0.5 -9.9,2.7 l -2.1,2.8 -0.5,-4.9 c -0.6,-5.7 -3,-7.7 -3,-2.4 0,3.4 1.7,10.8 2.5,10.8 0.3,0 1.3,-0.7 2.2,-1.5 1,-0.9 3.5,-2.9 5.5,-4.6 l 3.7,-3 -0.9,3 c -0.4,1.6 -0.6,3.2 -0.3,3.5 1.2,1.2 -2,3.5 -4.8,3.4 -1.7,-0.1 -3.4,0.3 -4,0.9 -0.5,0.5 -1.1,3.2 -1.3,6 -0.2,2.8 -0.7,5.6 -1,6.2 -0.6,0.9 0.5,6.5 2.2,11.1 0.3,0.8 0.4,1.9 0.3,2.4 -0.1,0.4 0.3,1.4 0.9,2.1 1.6,1.9 4.3,0.7 3.7,-1.6 -0.3,-1.1 -0.1,-1.9 0.4,-1.9 1.4,0 2.9,3.7 2.9,7.4 0,2 0.4,3.6 0.9,3.6 0.6,0 1.7,-1 2.5,-2.2 1.3,-1.8 1.3,-2.4 0.3,-2.9 -1.5,-0.9 -1.7,-10.1 -0.2,-10.9 0.5,-0.3 1.1,1.1 1.3,3 0.2,1.9 1.2,4.3 2.3,5.3 2,1.9 2.5,3.7 1,3.7 -1.6,0 2.6,10.4 4.8,11.9 1.2,0.7 2.1,2.3 2.1,3.6 0,1.2 0.9,3 2,4 2,1.8 2.9,6.2 1,5 -0.6,-0.3 -1,-0.4 -1,-0.1 0,0.3 1.3,1.2 3,2.1 2.9,1.5 3,1.5 3,-0.6 0,-1.1 -0.8,-3.4 -1.7,-5 -0.9,-1.5 -1.4,-3.1 -1,-3.5 0.9,-0.9 3.7,1.5 3.7,3.1 0,0.7 0.7,1.8 1.6,2.5 1.3,1.1 1.6,1 2.1,-0.9 1.1,-4.2 2.8,-1.4 3.1,5 0.2,4.8 0.8,6.9 2.3,8.6 1.4,1.4 1.9,2.8 1.5,4.1 -0.5,1.5 0.3,2.7 3.6,5.1 2.3,1.7 4.8,2.9 5.5,2.7 0.7,-0.3 1.7,0.3 2.3,1.4 1.2,2.3 1.1,12.8 -0.2,13.6 -0.4,0.3 -0.8,1.6 -0.8,2.8 0,1.3 -0.9,3.4 -2,4.7 -2.1,2.6 -2.6,1.9 -1,-1.2 0.7,-1.1 0.7,-1.9 0.1,-1.9 -1.2,0 -6.1,5.8 -6.1,7.3 0,0.7 0.5,0.6 1.1,-0.3 0.9,-1.2 1,-1.1 0.4,0.5 -0.8,2.3 -0.8,2.5 -0.6,4.6 0.1,1.4 0.7,1.5 3.8,0.6 3,-0.8 3.8,-1.5 4,-3.5 0.1,-1.7 -0.1,-2.1 -0.7,-1.1 -0.5,0.7 -1.2,1 -1.6,0.7 -0.4,-0.4 0.7,-1.5 2.5,-2.5 1.7,-1 3.1,-2.6 3.1,-3.7 0,-1 2,-3.8 4.4,-6.2 3.3,-3.4 4.6,-4.1 5.3,-3.2 0.5,0.7 1,2.6 1.1,4.2 0.1,1.6 0.5,3.2 0.8,3.5 0.3,0.3 1.4,-0.5 2.5,-1.8 2.3,-2.8 3.6,-2.2 1.9,0.8 -0.6,1.3 -2.1,2.1 -3.5,2.1 -1.6,0 -2.5,0.6 -2.5,1.6 0,1 0.5,1.4 1.5,1 1.9,-0.7 1.1,0.8 -2.3,4.4 -1.3,1.4 -3.9,4.5 -5.8,6.9 -2.6,3.3 -3.2,4.6 -2.2,5.2 0.9,0.6 0.8,1.3 -0.7,3.1 -1.1,1.3 -1.6,2 -1.1,1.6 0.5,-0.5 1.8,0.6 2.8,2.2 1.5,2.5 2.2,2.9 3.6,2.1 2.4,-1.3 3.9,-3.1 4.3,-5.4 0.8,-3.6 2.4,-2.1 3.1,2.7 0.5,4 0.4,5.2 -0.9,6.1 -2.1,1.6 -2.1,7 0,9.3 0.9,1 1.7,2.4 1.7,3 0,1.6 -2,1.5 -2,-0.1 -0.1,-0.6 -1,0.5 -2.1,2.5 -2.1,4.1 -3.9,4.9 -3.9,1.9 0,-1.1 -0.4,-2.2 -0.9,-2.5 -0.4,-0.3 -0.6,-1.7 -0.3,-3.2 0.4,-2.4 0.3,-2.5 -1.7,-1.5 -1.1,0.7 -2.1,1.5 -2.2,1.9 0,0.4 -0.2,1.7 -0.3,2.9 -0.3,3.1 -1.1,3.6 -3.5,2.8 -1.2,-0.3 -2.1,-1.5 -2.1,-2.5 0,-1.1 -0.7,-3.8 -1.6,-5.9 -2,-5 -1.3,-7.7 0.9,-3.6 1.3,2.5 1.6,2.7 2.2,1.2 1.5,-3.7 -1.5,-6.4 -5.9,-5.3 -1.6,0.4 -2.6,1.6 -3.1,3.8 -0.5,1.8 -0.7,4.3 -0.6,5.6 0.3,3.6 9.2,20.2 10.8,20.2 0.8,0 1.1,-0.5 0.8,-1 -1,-1.6 2.1,-1.1 3.6,0.6 1.5,1.9 8.5,5.5 9.2,4.8 0.2,-0.3 2,0.4 3.8,1.4 3.4,1.9 3.8,3.3 2.4,8 -0.6,1.9 -0.5,2.1 1.1,1.6 1.1,-0.4 2.4,-1.1 3.1,-1.6 z m -24.1,-22.9 c -1,-1.7 -1.6,-3.3 -1.3,-3.5 0.6,-0.6 4.7,4.5 4.7,5.7 0,1.8 -1.6,0.8 -3.4,-2.2 z m 26.9,-11 c -0.4,-1.1 -0.4,-2.3 -0.2,-2.6 0.9,-0.8 2.7,0.7 2.7,2.2 0,2.3 -1.8,2.7 -2.5,0.4 z m 12.2,-1.6 c -1.8,-0.5 -2.3,-2.8 -0.8,-3.8 1.2,-0.7 4.3,2.4 3.5,3.6 -0.3,0.5 -0.6,0.8 -0.7,0.8 -0.1,-0.1 -1,-0.3 -2,-0.6 z m 27.3,-0.6 c 0,-1.8 1.8,-4.2 2.5,-3.5 0.9,0.9 -0.4,4.8 -1.6,4.8 -0.5,0 -0.9,-0.6 -0.9,-1.3 z m -18,-13.8 c -6.1,-4.8 -12,-11.1 -11.4,-12 0.7,-1.3 5.4,2.8 5.4,4.8 0,0.7 0.6,1.3 1.3,1.3 1.5,0 8.7,5.8 8.7,7.1 0,1.4 -1.2,1 -4,-1.2 z m -39.8,-11 c 0.2,-0.7 1,-1.5 1.7,-1.7 0.8,-0.3 1.2,0.1 0.9,0.9 -0.2,0.7 -1,1.5 -1.7,1.7 -0.8,0.3 -1.2,-0.1 -0.9,-0.9 z m 21.8,-4.7 c 0,-2.8 0.4,-3.9 1.5,-3.9 1.1,0 1.5,1.1 1.5,3.9 0,2.7 -0.4,3.8 -1.5,3.8 -1.1,0 -1.5,-1.1 -1.5,-3.8 z m 42.5,-2.3 c -1.1,-1.7 0.1,-2.1 1.5,-0.4 0.8,0.9 0.8,1.5 0.2,1.5 -0.6,0 -1.4,-0.5 -1.7,-1.1 z m -28.3,-2.5 c 0.4,-2 3.4,-4.1 4.4,-3.1 0.8,0.8 -2.4,4.7 -3.8,4.7 -0.5,0 -0.8,-0.7 -0.6,-1.6 z m -10.9,-15.7 c -0.6,-0.6 -1.3,-2.4 -1.5,-4 -0.3,-1.7 -0.1,-2.7 0.7,-2.7 1.7,0 3.2,2 4,5.3 0.5,2 0.4,2.7 -0.8,2.7 -0.8,0 -1.9,-0.6 -2.4,-1.3 z m -15.1,-4.2 c 0.2,-1.4 0.7,-2.6 1.3,-2.6 0.5,0 1.1,1.2 1.3,2.6 0.2,1.8 -0.1,2.5 -1.3,2.5 -1.2,0 -1.5,-0.7 -1.3,-2.5 z m -7,0.8 c -0.6,-0.2 -1.2,-1.4 -1.2,-2.5 0,-1.9 0.2,-1.9 2.2,-0.6 3.9,2.6 3.2,4.8 -1,3.1 z m 43,-8.8 c -0.7,-1.4 -1.5,-4.4 -1.8,-6.7 -0.6,-3.1 -0.4,-4 0.6,-3.6 2.5,0.8 5.4,12.8 3.2,12.8 -0.5,0 -1.4,-1.1 -2,-2.5 z M 243.5,453 c -2.9,-3.3 -2.7,-6.4 1,-11.6 1.9,-2.6 3.2,-5.1 2.9,-5.6 -0.8,-1.2 0.6,-4.9 1.6,-4.3 0.5,0.3 1.2,2.6 1.6,5 0.6,4 0.3,4.8 -2,7.2 -2.6,2.5 -3.3,4.3 -1.9,4.3 0.5,0 2.6,-1.1 4.8,-2.3 3.2,-1.8 4,-2.9 4.1,-5.2 0.1,-8.2 0.3,-8.6 2.8,-7.9 1.5,0.3 2.9,-0.1 4,-1.1 1.7,-1.7 2.1,-3.5 0.8,-3.5 -0.4,0 -1.6,0.7 -2.6,1.5 -1.1,0.8 -2.3,1.5 -2.8,1.5 -1.5,0 -4.8,-4.5 -4.8,-6.6 0,-1.3 -0.5,-2.6 -1,-2.9 -0.6,-0.3 -1,-1.3 -1,-2.2 0,-0.8 -0.9,-2.6 -2,-4 -2.4,-3.1 -2.5,-4.3 -0.5,-4.3 0.8,0 2.4,1.9 3.6,4.2 2.9,5.8 4.8,7.8 6.7,7.2 1.4,-0.5 1.3,-0.3 -0.2,1 -1,0.8 -2.3,1.3 -2.8,0.9 -0.6,-0.3 -0.5,0.4 0.1,1.6 0.7,1.1 1.8,2.1 2.6,2.1 0.7,0 2.5,-1.4 3.9,-3.2 2.3,-3 2.4,-3.4 1.1,-6.4 -1.2,-3 -1.2,-3.4 0.8,-5.1 1.1,-1 1.7,-1.3 1.3,-0.6 -0.4,0.7 0,2.6 0.9,4.4 0.9,1.7 1.6,4.5 1.5,6.2 -0.4,6.5 -0.1,7.9 1.5,7.3 0.8,-0.3 1.5,-0.1 1.5,0.4 0,0.6 -0.6,1 -1.4,1 -0.8,0 -2.1,1.7 -2.9,3.7 -0.8,2.1 -2.4,4.7 -3.6,5.7 -2.7,2.4 -2.7,3.9 0,3.1 1.7,-0.6 2,-0.3 1.7,1.1 -0.2,1 -1.7,2.3 -3.3,2.8 -1.7,0.5 -5,1.6 -7.5,2.6 -4.1,1.5 -4.8,1.5 -6.8,0.2 -1.2,-0.8 -2.2,-1 -2.2,-0.4 0,0.5 0.7,1.2 1.5,1.6 0.8,0.3 1.5,1 1.5,1.6 0,1.7 -2.6,1.1 -4.5,-1 z m 0,-6 c 0.3,-0.6 0.1,-1 -0.4,-1 -0.6,0 -1.1,0.4 -1.1,1 0,0.5 0.2,1 0.4,1 0.3,0 0.8,-0.5 1.1,-1 z m 8.1,6.5 c 0.4,-0.8 1.1,-1.5 1.6,-1.5 0.6,0 0.5,0.6 -0.2,1.5 -0.7,0.8 -1.4,1.5 -1.6,1.5 -0.2,0 -0.1,-0.7 0.2,-1.5 z m 31.8,-8.2 c -0.4,-1.5 -1.2,-3.1 -1.7,-3.5 -0.7,-0.4 -0.6,-1.2 0.3,-2.3 0.7,-0.9 1.7,-1.2 2.1,-0.8 0.4,0.4 1,2.4 1.4,4.4 0.8,4.4 -1.1,6.4 -2.1,2.2 z m -15.8,-1.2 c -0.4,-0.6 -0.1,-2.1 0.6,-3.3 l 1.3,-2.3 0.3,2.4 c 0.4,2.6 -1.2,4.9 -2.2,3.2 z m 62,-2 c -0.4,-0.7 -0.5,-1.5 -0.2,-1.8 0.9,-0.9 1.9,0.4 1.4,1.8 -0.4,1.1 -0.6,1.1 -1.2,0 z m 1.7,-4.7 c -0.3,-0.8 -0.1,-2 0.6,-2.7 0.8,-0.8 1.1,-0.4 1.1,1.6 0,3 -0.7,3.5 -1.7,1.1 z m -8,-0.6 c -1.6,-2 0.2,-5.5 3.6,-7.3 3.2,-1.6 4.2,-0.7 1.7,1.5 -0.8,0.6 -1.3,1.7 -1,2.4 0.3,0.7 -0.4,2 -1.4,2.9 -1.5,1.4 -2.1,1.5 -2.9,0.5 z m 11.7,-1.9 c 0,-0.5 0.4,-0.7 1,-0.4 0.5,0.3 1,0.8 1,1.1 0,0.2 -0.5,0.4 -1,0.4 -0.6,0 -1,-0.5 -1,-1.1 z m -60,-1.2 c 0,-1.7 2,-3.7 3.7,-3.7 1,0 1.1,0.5 0.4,1.9 -1.3,2.3 -4.1,3.5 -4.1,1.8 z m -53.8,-7 c 0.6,-2 2.2,-4 4,-5 1.7,-1 3.3,-1.5 3.7,-1.1 0.3,0.3 -0.6,1.6 -2,2.7 -1.5,1.2 -3.2,3.2 -3.8,4.4 -1.8,3.5 -3,2.7 -1.9,-1 z m 51,1.1 c -0.6,-0.8 -0.6,-2.2 -0.1,-3.7 0.8,-1.9 1.2,-2.1 2.4,-1.1 1.9,1.6 1.9,3.4 0.1,4.9 -1,0.8 -1.6,0.8 -2.4,-0.1 z m 7.5,0.5 c -0.4,-0.3 -0.7,-1.5 -0.7,-2.6 0,-1.6 0.3,-1.7 1.5,-0.7 0.8,0.7 1.5,1.9 1.5,2.6 0,1.5 -1.2,1.8 -2.3,0.7 z M 257,426 c 0,-0.7 0.3,-1 0.7,-0.7 0.3,0.4 0.3,1 0,1.4 -0.4,0.3 -0.7,0 -0.7,-0.7 z m -65.4,-12.5 c -0.3,-0.9 0,-1.5 0.9,-1.5 1.6,0 2,1.6 0.6,2.4 -0.5,0.3 -1.1,-0.1 -1.5,-0.9 z m -0.5,-7.6 c -0.8,-2.2 -0.7,-2.9 0.1,-2.7 1.5,0.5 2.9,4.6 1.9,5.3 -0.5,0.3 -1.4,-0.9 -2,-2.6 z m 8.6,-1.7 c -0.5,-0.7 2.7,-5.2 3.7,-5.2 1.1,0 0.6,3.6 -0.6,4.8 -1.4,1.4 -2.5,1.5 -3.1,0.4 z m -6,-4.8 c -0.7,-0.8 2.2,-5.4 3.4,-5.4 0.5,0 0.3,1.3 -0.6,3 -1.7,3.2 -1.8,3.3 -2.8,2.4 z m 38,-3.1 c -1.4,-1.3 -0.6,-2.3 1.9,-2.3 2.2,0 2.5,0.2 1.4,1.5 -1.4,1.6 -2.3,1.9 -3.3,0.8 z m 0.5,-6.5 c 0.5,-1.5 2.8,-1.8 2.9,-0.3 0,0.5 -0.7,1.2 -1.7,1.3 -1,0.3 -1.5,-0.1 -1.2,-1 z m 4.8,-5.7 c 0,-0.9 2.4,-2.1 4.2,-2.1 0.6,0 0.6,0.6 -0.2,1.5 -1.4,1.6 -4,2 -4,0.6 z m -46.4,-1.4 c 1.3,-2.2 3.7,-4.7 4.6,-4.7 1.4,0 0.9,1.5 -1.2,3.8 -2.2,2.4 -4.6,3 -3.4,0.9 z m 36.6,-4.2 c 0.3,-1.4 -0.1,-3.3 -0.8,-4.2 -1.3,-1.7 -1.3,-1.7 -1.5,0.2 -0.1,1.3 -0.4,1 -0.8,-1 -0.4,-1.7 -0.3,-3.6 0.2,-4.2 0.6,-0.8 0.5,-2.4 -0.1,-4.2 -0.7,-2 -0.7,-3.2 0.1,-4 1.4,-1.4 3.4,-1.4 4.3,0.1 0.4,0.7 0.3,0.8 -0.4,0.4 -1.7,-1.1 -1.5,0 1.1,4.7 1.3,2.3 2.2,4.7 2,5.3 -0.2,0.6 0.3,1.6 1.1,2.3 1.2,1 1.9,0.8 3.7,-1 2.1,-2.1 2.3,-2.1 3.6,-0.4 0.7,1.1 1.3,2.3 1.3,2.7 0,0.5 0.6,0.6 1.2,0.2 0.7,-0.4 0.5,0.1 -0.4,1.2 -1,1 -3.2,2.3 -5,2.9 -2.7,0.9 -3.8,0.8 -5.8,-0.4 -2.3,-1.5 -2.4,-1.5 -1.1,0.2 1.2,1.5 1.1,1.7 -0.9,1.7 -1.8,0 -2.2,-0.4 -1.8,-2.5 z m 10.8,-1.1 c 0,-0.2 -0.7,-0.4 -1.5,-0.4 -0.8,0 -1.5,0.4 -1.5,1 0,0.5 0.7,0.7 1.5,0.4 0.8,-0.4 1.5,-0.8 1.5,-1 z m 21,1.7 c 0,-2 1.7,-3.7 2.7,-2.8 0.7,0.8 -0.7,4.7 -1.8,4.7 -0.5,0 -0.9,-0.9 -0.9,-1.9 z m -41.3,-7.8 c -0.4,-0.3 -0.7,-1.9 -0.7,-3.5 0,-1.8 0.5,-2.8 1.5,-2.8 1,0 1.5,1.1 1.5,3.5 0,3.3 -0.8,4.3 -2.3,2.8 z m 53.3,-7.7 c 0,-0.8 0.4,-1.8 1,-2.1 0.5,-0.3 1,0.1 1,0.9 0,0.8 -0.5,1.8 -1,2.1 -0.6,0.3 -1,-0.1 -1,-0.9 z M 225.2,357 c -1.2,-1.2 -2.2,-2.7 -2.2,-3.6 0,-0.8 1.1,-1.9 2.4,-2.5 1.3,-0.6 2.9,-2.2 3.5,-3.5 0.6,-1.3 1.5,-2.4 2.1,-2.4 1.8,0 1,2.1 -2,5.2 -1.7,1.6 -3,3.5 -3,4.1 0,0.7 0.5,0.4 1.1,-0.6 1.6,-2.7
3.2,-2.1 2.4,1 -0.3,1.6 -1,3.1 -1.4,3.6 -0.4,0.4 -1.7,-0.2 -2.9,-1.3 z m 61.8,0.6 c 0,-0.2 0.7,-0.6 1.5,-1 0.8,-0.3 1.5,-0.1 1.5,0.4 0,0.6 -0.7,1 -1.5,1 -0.8,0 -1.5,-0.2 -1.5,-0.4 z m -22,-5.9 c 0,-0.7 0.7,-2.2 1.5,-3.3 0.8,-1.2 1.2,-2.4 0.9,-2.7 -0.3,-0.3 0,-1.6 0.7,-2.9 0.7,-1.2 1.2,-2.9 1.1,-3.5 -0.2,-0.8 0.3,-1 1.4,-0.6 1.2,0.4 1.4,1.4 1,3.6 -0.4,1.7 -1.3,3.8 -2.1,4.7 -0.8,0.9 -1.5,2.6 -1.5,3.8 0,1.3 -0.6,2.2 -1.5,2.2 -0.8,0 -1.5,-0.6 -1.5,-1.3 z m 36.4,-4.1 c -2.1,-1.6 -1.6,-3 0.9,-2 1.6,0.6 3.2,3.4 1.9,3.4 -0.5,0 -1.7,-0.6 -2.8,-1.4 z m -12.6,-1.1 c -0.7,-0.7 0.3,-6.5 1.2,-6.5 1.4,0 2,3.1 1,5.1 -1.1,2 -1.4,2.2 -2.2,1.4 z m 12.6,-3.7 c -0.4,-0.7 -0.3,-0.8 0.4,-0.4 0.7,0.4 1.2,0.9 1.2,1.2 0,0.8 -0.9,0.4 -1.6,-0.8 z M 207.5,325 c -0.3,-1.1 -1.1,-2 -1.6,-2 -0.5,0 -0.9,-0.8 -0.9,-1.8 -0.1,-1.6 -0.1,-1.6 -1.4,0 -1.8,2.5 -2.6,2.2 -2.4,-0.7 0.1,-1.4 0.7,-2.5 1.4,-2.5 1.3,0 8.4,6.7 8.4,8 0,1.9 -2.9,1 -3.5,-1 z m 0.6,-5.4 c -0.8,-0.9 -1.1,-1.9 -0.7,-2.3 0.9,-0.9 2.9,1.3 2.4,2.7 -0.3,0.8 -0.8,0.7 -1.7,-0.4 z m 65.6,-7.4 c -0.2,-1 0.8,-2.8 2.7,-4.4 2.3,-2 2.7,-2.8 1.4,-2.8 -0.9,0 -2,0.4 -2.3,1 -0.3,0.5 -1.1,1 -1.6,1 -0.6,0 -0.2,-1.4 0.8,-3 0.9,-1.7 2.2,-2.9 2.8,-2.7 0.5,0.2 1.4,2 1.9,4 0.7,2.8 0.6,4.1 -0.8,6.1 -1.9,3 -4.3,3.4 -4.9,0.8 z M 205,310.5 c -0.6,-1.5 -1.3,-3.2 -1.6,-3.6 -0.3,-0.5 -0.1,-0.9 0.5,-0.9 0.6,0 1.8,1.1 2.7,2.6 1.3,1.8 1.4,2.8 0.6,3.6 -0.8,0.8 -1.4,0.4 -2.2,-1.7 z m -9.3,-28.2 c -0.4,-0.3 -0.7,-2.1 -0.7,-4 0,-2.3 0.5,-3.3 1.5,-3.3 1.1,0 1.5,1.1 1.5,4 0,3.8 -0.8,4.9 -2.3,3.3 z M 184,259 c 0,-0.6 0.5,-1 1.1,-1 0.5,0 0.7,0.4 0.4,1 -0.3,0.5 -0.8,1 -1.1,1 -0.2,0 -0.4,-0.5 -0.4,-1 z m 7.1,-3.9 c -0.8,-1.4 -0.7,-2.2 0.3,-3 1.5,-1.3 2.6,-0.5 2.6,2 0,2.6 -1.7,3.2 -2.9,1 z m 105.4,-3.4 c -0.4,-1 -0.5,-2.1 -0.1,-2.4 1,-1 1.8,0.4 1.3,2.4 -0.4,1.7 -0.4,1.7 -1.2,0 z M 243,240.1 c 0,-2 2.3,-4.5 3.3,-3.5 0.3,0.4 0.2,1.4 -0.3,2.4 -0.5,1 -0.6,2 -0.3,2.4 0.3,0.3 -0.1,0.6 -1,0.6 -1,0 -1.7,-0.8 -1.7,-1.9 z m 55,-6.5 c 0,-0.2 0.7,-0.9 1.5,-1.6 0.9,-0.7 1.5,-0.8 1.5,-0.2 0,0.5 -0.7,1.2 -1.5,1.6 -0.8,0.3 -1.5,0.4 -1.5,0.2 z m -5,-3 c 0,-0.8 0.3,-2.2 0.6,-3.1 0.5,-1.3 0.8,-1.4 1.5,-0.3 1.4,2.1 1,4.8 -0.6,4.8 -0.8,0 -1.5,-0.6 -1.5,-1.4 z m 4,-2.6 c 0,-0.5 0.7,-1.3 1.6,-1.8 1.2,-0.7 1.3,-1.1 0.5,-1.7 -0.7,-0.4 -2,-0.4 -2.9,-0.1 -1.3,0.5 -1.3,0.3 0.2,-0.9 2.2,-1.7 3.6,-1.9 3.6,-0.6 0,0.5 1.4,1.1 3.1,1.5 3.7,0.7 3.4,3.2 -0.3,2.8 -1.5,-0.2 -2.9,0.2 -3.3,0.7 -0.8,1.4 -2.5,1.4 -2.5,0.1 z m 38.6,320.4 c 0.3,-1.3 0.3,-3.2 -0.1,-4.1 -0.6,-1.5 -1.1,-1 -2.5,2.2 -1,2.1 -1.6,4.3 -1.4,4.7 0.9,1.4 3.4,-0.4 4,-2.8 z M 303,542.6 c 0,-1.5 3.4,-5.7 9.8,-12 3.8,-3.8 4.3,-4.8 4.5,-9.4 0.2,-5.5 -1.5,-7.3 -2.3,-2.3 -0.3,1.6 -1.5,4.1 -2.7,5.5 -1.2,1.3 -1.9,2.7 -1.5,3.1 0.4,0.3 -0.1,0.3 -0.9,0 -1.2,-0.5 -2.2,0.7 -3.9,4.2 -1.2,2.6 -3.1,6 -4.1,7.5 -2.3,3.2 -2.4,4.8 -0.4,4.8 0.8,0 1.5,-0.6 1.5,-1.4 z m 39.4,-9.8 c 3.1,-4.7 2.9,-7.6 -0.4,-5.8 -1.1,0.6 -2,1.5 -2,2.1 0,0.6 -0.9,2.3 -2,3.9 -1.1,1.5 -1.7,3 -1.3,3.4 1.4,1.4 3.1,0.4 5.7,-3.6 z M 304,532 c 0,-3 -1.3,-4 -2.5,-2 -0.8,1.3 0.4,5 1.6,5 0.5,0 0.9,-1.4 0.9,-3 z m -0.5,-7.5 c 0,-1 -0.6,-2 -1.3,-2.3 -0.7,-0.2 -1.2,0.6 -1.2,2.3 0,1.7 0.5,2.5 1.2,2.2 0.7,-0.2 1.3,-1.2 1.3,-2.2 z M 402,522 c 1.1,-2.1 2,-4.5 2,-5.1 0,-0.6 0.7,-1.7 1.4,-2.3 2.2,-1.7 2.4,-6.6 0.4,-7.9 -1.4,-0.9 -2.1,-0.8 -3.5,0.7 -1.7,1.8 -1.7,1.9 0.1,1.2 1.4,-0.5 1.6,-0.4 0.8,0.6 -0.5,0.7 -1.4,3.1 -1.8,5.3 -0.4,2.2 -1.3,5.7 -2,7.7 -0.7,2.1 -0.9,3.8 -0.4,3.8 0.5,0 1.9,-1.8 3,-4 z m -162.6,-4.5 c -0.4,-0.8 -0.9,-1.5 -1.3,-1.5 -0.4,0 -0.8,0.7 -0.8,1.5 0,0.8 0.6,1.5 1.3,1.5 0.8,0 1.1,-0.6 0.8,-1.5 z m -29.8,-5.8 c -0.4,-1.7 -0.9,-6.1 -1.2,-9.7 -0.4,-3.6 -1,-6.9 -1.5,-7.4 -0.5,-0.5 -1.4,-0.4 -2.3,0.4 -1.7,1.4 -1.6,2.6 1.6,13.2 1.1,3.8 2.4,6.8 3,6.8 0.6,0 0.8,-1.3 0.4,-3.3 z m 6.4,1.3 c 0,-1 -3.1,-2.3 -3.8,-1.5 -0.8,0.7 1.9,3.5 2.9,2.9 0.5,-0.3 0.9,-0.9 0.9,-1.4 z m 13.4,-4.5 c -0.4,-0.8 -1,-1.5 -1.5,-1.5 -0.4,0 -0.6,0.7 -0.3,1.5 0.4,0.8 1,1.5 1.5,1.5 0.4,0 0.6,-0.7 0.3,-1.5 z m 144.4,-5.8 c -0.2,-3.1 -1.6,-4.6 -3.7,-4 -1.3,0.3 -1.7,1.1 -1.3,3.1 0.3,1.5 0.9,3.3 1.5,4 1.4,1.7 3.6,-0.3 3.5,-3.1 z m 14.6,-2.2 c 2.7,-2.5 3,-5.5 0.5,-5.5 -0.6,0 -2.4,-0.9 -3.9,-2 l -2.8,-2 -1.1,3.2 c -1,2.7 -0.9,3.5 0.4,4.4 0.8,0.6 1.5,1.6 1.5,2.2 0,0.6 0.6,1.3 1.2,1.5 0.7,0.3 1.3,0.6 1.4,0.6 0.1,0.1 1.3,-1 2.8,-2.4 z M 219,497.2 c 0,-2.1 -0.5,-2.9 -1.8,-2.9 -0.9,0 -2.3,0.4 -3,1 -1,0.8 -0.9,1.4 0.4,2.8 2.5,2.8 4.4,2.4 4.4,-0.9 z m 77,-1 c 0,-1.4 -3.9,-4.6 -4.7,-3.9 -0.3,0.4 0.2,1.6 1.2,2.7 1.9,2.1 3.5,2.6 3.5,1.2 z m 6.5,-3.8 c -1.1,-0.8 -2.1,-1 -2.3,-0.5 -0.2,0.5 -1,0.7 -1.9,0.4 -1.3,-0.5 -1.3,-0.3 -0.4,1.5 1.4,2.7 3.3,3.3 5.1,1.5 1.3,-1.3 1.3,-1.6 -0.5,-2.9 z m 63.5,1.1 -2.2,-2.3 3.5,-1.1 c 2,-0.7 3.8,-1.8 4,-2.5 0.3,-0.8 -0.1,-2.3 -0.9,-3.4 -1.3,-1.9 -1.2,-2.2 0.8,-3.6 1.2,-0.9 2.8,-1.6 3.6,-1.6 1,0 1,-0.4 0,-2.3 -0.6,-1.2 -1.1,-3.2 -0.9,-4.5 0.1,-1.2 0,-2.2 -0.3,-2.2 -0.4,0 -2.5,1.2 -4.7,2.6 l -4.1,2.5 0.7,-3 c 0.5,-2.5 0.3,-3.1 -1,-3.1 -1.3,0 -1.6,0.6 -1.1,2.4 0.4,1.8 0.1,2.5 -1.4,2.9 -2.9,0.7 -3.6,3.5 -1.5,5.5 1.7,1.6 1.7,1.6 1.2,-0.1 -0.6,-1.4 -0.3,-1.6 1.2,-0.8 2.2,1.2 3.3,3.5 2.1,4.7 -0.4,0.5 -1.3,2.6 -2,4.7 -1.1,3.5 -1,4.1 1,6.2 1.3,1.4 2.7,2.2 3.2,1.9 0.5,-0.4 0,-1.6 -1.2,-2.9 z m 11.5,-2 c 0.6,-3.5 0.3,-5.1 -1.3,-7.6 -2.3,-3.7 -3.6,-2.5 -2.1,2 1,2.7 0.8,3.3 -1.1,4.9 -2.1,1.7 -2.1,1.9 -0.6,3.5 2.9,2.9 4.4,2 5.1,-2.8 z m 28.9,2.7 c 0.2,-0.4 -0.2,-1.5 -0.9,-2.5 -1.5,-2 -2.8,-0.8 -1.9,1.7 0.7,1.7 2,2.1 2.8,0.8 z m -192.3,-2.7 c -0.1,-1.5 -2.4,-1.2 -2.9,0.3 -0.3,0.9 0.2,1.3 1.2,1 1,-0.1 1.7,-0.8 1.7,-1.3 z M 399.2,481 c -0.8,-2.5 -1.6,-6.1 -1.8,-8 -0.2,-1.9 -1.1,-4.9 -2.1,-6.7 -0.9,-1.8 -1.4,-3.5 -1.1,-3.9 0.4,-0.3 1.6,0.1 2.8,0.9 1.9,1.4 2.5,1.3 5.1,-0.1 2.9,-1.7 3.9,-4.2 1.8,-4.2 -0.8,0 -0.8,-0.4 -0.2,-1.3 2.1,-2.5 2.4,-6.9 0.8,-9.3 -2.1,-3.2 -3.7,-3.1 -2.9,0.2 0.5,2 0.3,2.5 -0.7,2.2 -0.9,-0.3 -1.4,-2.1 -1.4,-5.1 -0.1,-5 -1.1,-7 -2.4,-4.8 -0.5,0.7 -1.4,1.2 -2.1,0.9 -0.9,-0.3 -0.8,-0.8 0.4,-2 0.9,-0.9 1.6,-2.4 1.6,-3.2 0,-0.9 0.9,-2.5 2.1,-3.7 1.1,-1.1 1.8,-2.3 1.6,-2.6 -1,-0.9 -8.7,3.7 -9.8,6 -2.3,4.4 -3.9,5.5 -6.7,4.8 -2.7,-0.7 -3,-2.9 -0.3,-2.3 1,0.3 1.2,-0.3 0.7,-2 -0.3,-1.3 -0.6,-3.1 -0.6,-4.1 0,-0.9 -0.4,-1.7 -1,-1.7 -0.5,0 -2.6,1.1 -4.6,2.5 -2,1.4 -4.5,2.5 -5.5,2.5 -1.1,0 -1.9,0.5 -1.9,1.1 0,0.6 1.2,3 2.6,5.4 1.5,2.7 2.3,5.2 2,6.3 -0.4,1.1 0,2.4 0.9,3.2 1.4,1.1 1.7,1 2.2,-0.8 0.3,-1.2 0.9,-2.2 1.4,-2.2 1.7,0 2.4,0.5 2.1,1.4 -0.4,1.2 1.6,5.4 3.9,8.1 1.7,2.1 2.8,5.8 3.4,11.4 0.4,4.3 2.6,12.3 3.6,13.5 0.5,0.6 0.9,2 0.9,3.2 0,1.2 1,2.8 2.2,3.7 2.2,1.4 2.4,1.3 3.4,-1.6 0.8,-2.4 0.7,-4.2 -0.4,-7.7 z m -1.5,-22.7 c -0.4,-0.3 -0.7,-1.7 -0.7,-3 0,-1.4 0.6,-2.3 1.5,-2.3 1,0 1.5,1 1.5,3 0,2.9 -0.9,3.8 -2.3,2.3 z M 386.5,449 c -2.1,-2.3 -1.2,-3.9 1.3,-2.4 1.9,1.2 2.9,4.4 1.4,4.4 -0.5,0 -1.7,-0.9 -2.7,-2 z m -0.5,35 c 0,-0.5 -0.9,-1.5 -2,-2.2 -1.1,-0.7 -2,-2 -2,-3 0,-2.7 -1.1,-4.8 -2.6,-4.8 -0.8,0 -1.4,0.2 -1.4,0.5 0,1 4.5,9.1 5.4,9.7 1.5,1.1 2.6,1 2.6,-0.2 z m -154,-5.3 c 0,-0.4 -0.5,-0.7 -1,-0.7 -0.6,0 -1,1 -1,2.2 0,1.9 0.2,2 1,0.8 0.5,-0.8 1,-1.8 1,-2.3 z m -19.4,-3.3 c 5,-3.8 4.5,-5.3 -1.9,-5.2 -6.2,0.1 -8.1,1.2 -6.6,3.9 0.5,1.1 1.4,1.7 1.9,1.4 0.6,-0.3 0.7,0.1 0.4,0.9 -1,2.5 2.3,1.9 6.2,-1 z m 139.5,-7.8 c 0,-1.7 0.4,-4 0.8,-5.1 1,-2.3 -0.1,-5 -2.3,-5.8 -1,-0.4 -1.5,0.3 -1.8,2.3 -0.2,1.6 -0.1,2.7 0.3,2.4 0.5,-0.2 0.6,1.7 0.2,4.4 -0.4,4.1 -0.3,4.9 1.1,4.9 1.1,0 1.6,-1 1.7,-3.1 z m 29.2,1.5 c -0.7,-2.7 -3.3,-3.6 -3.3,-1.2 0,1.7 1.1,2.8 3.2,3 0.3,0.1 0.4,-0.8 0.1,-1.8 z M 199,467.9 c 1.5,-2.8 0.9,-6.3 -1.3,-6.7 -0.9,-0.2 -1.7,0.2 -1.7,0.8 0,0.6 0.5,0.8 1.2,0.4 0.6,-0.4 0.4,0.3 -0.5,1.7 -0.9,1.3 -1.7,3.1 -1.7,4.1 0,2.5 2.7,2.3 4,-0.3 z m 222.1,0.2 c 0.8,-3.7 0.4,-6.3 -1.6,-9.8 l -2.3,-4.2 2,-1.8 c 2,-1.8 2.1,-1.8 0.9,0.4 -0.6,1.2 -1.1,2.5 -1.1,2.9 0,1.1 8.9,-7.7 10.2,-10 0.9,-1.7 0.7,-1.8 -1.7,-1.2 -3.7,0.9 -2.3,-1 2.3,-3.2 3.3,-1.6 3.7,-2.1 3.6,-5.5 -0.1,-2.1 0.3,-3.7 1,-3.7 0.6,0 -0.7,-1.5 -2.8,-3.4 l -4,-3.3 2.6,-0.6 c 1.5,-0.4 2.9,-1.5 3.3,-2.6 0.8,-2.7 -1.2,-7.2 -4.7,-10.1 -2,-1.7 -3.1,-3.5 -3.1,-5.3 0,-3.2 -1.3,-3.6 -2.2,-0.7 -0.4,1.1 -1.1,1.8 -1.6,1.5 -1.3,-0.9 0.8,-4.5 2.6,-4.5 1.8,0 3.4,-3 2.7,-5 -0.3,-0.8 -1.8,-3 -3.4,-4.8 -1.8,-2.2 -2.7,-4 -2.3,-5.2 0.4,-1.3 -0.6,-2.6 -3.7,-4.9 -2.3,-1.7 -5,-3.1 -6.1,-3.1 -3.2,0 -5.4,1.8 -6,4.8 -0.7,3.6 0.6,8.8 2.2,8.4 0.7,-0.1 1.1,0.3 0.9,1 -0.3,1.3 2.2,9 4.5,13.8 0.7,1.4 1.9,3.3 2.7,4.3 0.8,1 1.6,2.5 1.7,3.5 0,0.9 0.9,4.6 1.8,8.2 0.9,3.6 1.8,8.4 2,10.7 0.2,3.5 -0.1,4.5 -2.1,5.8 -1.4,0.9 -2.4,2.5 -2.3,3.8 0,1.2 0.3,1.6 0.6,0.9 0.2,-0.6 0.9,-1.2 1.5,-1.2 0.6,0 0.6,0.6 -0.2,1.5 -0.7,0.8 -1.9,1.5 -2.6,1.5 -0.8,0 -2.1,1.6 -2.9,3.6 -1.6,3.8 -2,11.5 -0.8,12.8 0.4,0.4 0.8,1.5 0.8,2.4 0,2.9 7.1,5 7.6,2.3 z m -5,-4.5 c -0.8,-1 -0.8,-1.6 0.2,-2.5 1.6,-1.3 2.7,-0.5 2.7,2.1 0,2.1 -1.3,2.3 -2.9,0.4 z m 12.9,-26 c 0,-0.9 0.4,-1.6 1,-1.6 0.5,0 1,0.4 1,0.9 0,0.6 -0.5,1.3 -1,1.6 -0.6,0.3 -1,-0.1 -1,-0.9 z M 418.4,399 c -2.7,-1.1 -4,-3 -2,-3 1.3,0 4.6,2.5 4.6,3.6 0,0.5 0,0.5 -2.6,-0.6 z m 2.6,-3.5 c -0.6,-0.8 -1,-2 -0.8,-2.6 0.2,-0.6 1.2,0 2.1,1.5 1.8,2.7 0.8,3.7 -1.3,1.1 z m -5.3,-5.2 c -0.9,-0.9 -0.9,-5.3 0,-5.3 0.5,0 1.6,0.7 2.5,1.4 1.7,1.2 1.7,1.4 0,3 -1,0.9 -2.2,1.3 -2.5,0.9 z M 192,467.5 c 0,-2.3 -2.9,-8.8 -4.3,-9.7 -3.1,-2 -3.7,0.4 -1,3.5 1.7,1.9 1.7,2 0,1.4 -2.1,-0.8 -1.6,0.5 1.6,4 2.4,2.7 3.7,2.9 3.7,0.8 z m 32.8,-3.4 c 0.3,-4 0.2,-4.3 -1.2,-3.2 -0.9,0.8 -1.6,2 -1.6,2.8 0,0.7 -0.7,1.6 -1.5,1.9 -1.2,0.5 -1.3,0.9 -0.4,2.1 0.7,0.7 1.9,1.2 2.8,1.1 1.1,-0.2 1.7,-1.7 1.9,-4.7 z m 147.2,2.5 c 0.5,-1.3 1.4,-2.6 2.1,-2.8 0.8,-0.3 0.6,-0.9 -0.6,-2.1 -1.2,-1.3 -2.1,-1.5 -2.9,-0.7 -0.7,0.5 -1.5,0.8 -1.7,0.6 -0.2,-0.3 -0.3,1.3 -0.1,3.5 0.2,2.1 0.8,3.9
1.3,3.9 0.5,0 1.4,-1.1 1.9,-2.4 z m -16,-3.7 c 0,-0.5 -0.5,-0.9 -1,-0.9 -0.6,0 -1,0.7 -1,1.6 0,0.8 0.4,1.2 1,0.9 0.5,-0.3 1,-1 1,-1.6 z m 12,-7.2 c 0,-0.6 -1.2,-3.5 -2.6,-6.4 -1.8,-3.4 -3.6,-5.6 -5.5,-6.4 -1.6,-0.6 -2.9,-1.5 -2.9,-2 0,-0.5 0.9,-1.3 2,-1.9 2,-1.1 2.5,-3.6 1.4,-7.8 -0.7,-2.5 -3.4,-3.1 -3.4,-0.7 0,0.8 -0.8,1.5 -1.9,1.5 -2.9,0 -4.2,2.3 -3.5,6.1 0.8,3.9 4.2,8.2 6.1,7.5 1.6,-0.7 5.8,4.5 7.3,8.9 0.6,1.9 1.6,3.3 2.1,2.9 0.5,-0.3 0.9,-1 0.9,-1.7 z m -13.8,-19.9 c 0.6,-1.8 2.5,-2 3.1,-0.3 0.5,1 0,1.5 -1.4,1.5 -1.2,0 -1.9,-0.5 -1.7,-1.2 z M 208,455.6 c 0,-2.2 -1.1,-4.6 -2.1,-4.6 -1,0 -1.2,4.3 -0.2,5.3 1.1,1.2 2.3,0.8 2.3,-0.7 z m 4.4,-6.5 c -1.5,-4.8 -3,-6.9 -4,-5.9 -0.2,0.3 0.3,2.7 1.2,5.4 0.9,2.7 1.8,5.5 2,6.3 0.3,1 0.8,1.1 1.5,0.4 0.7,-0.7 0.5,-2.6 -0.7,-6.2 z m 127,-1.7 c 0.4,-1 -0.3,-1.4 -2.3,-1.4 -3.2,0 -5,2.6 -2.3,3.3 2.3,0.5 3.9,-0.2 4.6,-1.9 z m 114.2,-2.2 c 2.1,-1.3 4.1,-6.7 4.9,-12.7 0.5,-3.3 0.8,-6.5 0.6,-7.2 -0.1,-0.7 0.9,-1.9 2.3,-2.8 1.6,-1.1 2.2,-2.2 1.9,-3.5 -0.7,-2.5 -3.3,-2.5 -8.4,-0.1 -3.9,1.9 -4,1.9 -3.4,0 0.8,-2.3 -1,-2.6 -1.9,-0.3 -0.3,0.9 -0.6,2.6 -0.6,4 0,1.3 -0.7,4.2 -1.6,6.4 -1.8,4.4 -1.2,9 1.2,9 1.8,0 2.4,-1.5 2.7,-6.3 0.3,-4.5 1.9,-6.4 3.6,-4.3 0.9,1.1 0.9,2 0.2,3.4 -0.6,1.1 -1.2,3.5 -1.5,5.5 -0.2,1.9 -1.1,4.9 -2,6.6 -1.3,2.3 -1.3,3.1 -0.4,3.1 0.7,0 1.8,-0.4 2.4,-0.8 z M 209,438.3 c 0,-2 -0.3,-2.4 -1.1,-1.6 -0.7,0.7 -0.9,1.9 -0.6,2.7 1,2.4 1.7,1.9 1.7,-1.1 z m -27.3,-6.9 c -0.2,-4.2 -0.9,-6.9 -1.8,-7.5 -2.4,-1.5 -3.2,-1 -2.5,1.8 0.3,1.6 0.9,4.4 1.2,6.3 0.8,5.1 1.2,6 2.4,6 0.8,0 1,-2.2 0.7,-6.6 z m 208.8,1.6 c 2.1,-2.3 1.2,-3.9 -1.3,-2.4 -1.9,1.2 -2.9,4.4 -1.4,4.4 0.5,0 1.7,-0.9 2.7,-2 z m -17.1,-1.8 c 2.5,-6.8 2.5,-7.3 0.5,-9.3 -1,-1 -2.3,-1.9 -2.7,-1.9 -1.3,0 -4.2,-6.8 -4.2,-10 0,-1.7 0.3,-3 0.6,-3 0.4,0 2.2,1.4 4.1,3 2.8,2.5 3.8,2.8 5.3,2 1.1,-0.6 2,-1.7 2,-2.4 0,-0.8 0.8,-2 1.7,-2.7 1.5,-1.2 1.6,-1.2 1,0.3 -0.6,1.7 1.5,4.8 3.4,4.8 1.4,0 1.1,-1.6 -0.6,-3 -0.8,-0.7 -1.2,-1.6 -0.9,-2.2 0.9,-1.4 3.4,1.1 3.4,3.3 0,1.6 0.5,1.8 2.7,1.3 4.6,-1 5.3,-1.3 5.3,-2.4 0,-0.6 -0.5,-0.8 -1.1,-0.4 -0.8,0.5 -0.8,0.1 0,-1.4 0.8,-1.6 0.7,-2.1 -0.7,-2.4 -0.9,-0.3 -2.3,-0.3 -3,0 -1,0.3 -1,0.7 0,1.9 1.1,1.4 1,1.5 -1.2,0.8 -1.4,-0.4 -2.6,-0.9 -2.8,-1 -0.2,-0.1 0.7,-2.3 1.9,-4.8 1.6,-3.3 2,-5.2 1.4,-7.3 l -0.8,-2.9 -1,2.7 c -1.2,3 -2.2,3.5 -3.3,1.6 -0.4,-0.6 0,-1.6 0.8,-2.2 1.6,-1.3 4.8,-8.8 4.8,-11.5 0,-1 -0.7,-1.8 -1.5,-1.8 -1,0 -1.5,1 -1.5,2.9 0,1.6 -1.2,4.5 -2.7,6.5 -1.9,2.4 -2.7,4.9 -2.9,8.1 -0.1,2.6 -0.3,5 -0.3,5.4 -0.1,0.6 -5.7,2.8 -7.2,2.8 -0.5,0 -1.5,-1.2 -2.3,-2.8 -1.4,-2.5 -1.5,-2.6 -1.6,-0.5 0,1.3 -0.3,2.3 -0.6,2.3 -0.3,0 -1.4,-0.5 -2.5,-1 -1.8,-1 -1.8,-1.3 -0.5,-3.2 1.1,-1.6 1.2,-2.6 0.5,-4 -0.6,-1.1 -1.3,-3.2 -1.5,-4.6 -0.9,-5.6 -1.4,-7 -2.9,-7.6 -2.1,-0.8 -3.1,2.2 -1.6,4.6 0.9,1.5 0.8,2 -0.4,2.4 -2.6,1 -3.6,3.9 -2.4,7.3 0.7,1.9 1.6,2.8 2.2,2.5 0.7,-0.4 -1,1.5 -3.6,4.3 -4.1,4.3 -5.2,4.9 -8.2,4.7 -1.9,-0.2 -3.5,0.1 -3.5,0.6 0,1.3 2.3,1.8 4.2,0.8 2.2,-1.1 2.4,0.4 0.4,2.1 -1.8,1.5 -2.7,4.9 -1.5,5.7 1.6,0.9 4.8,-0.6 5.4,-2.6 0.3,-1.1 1.9,-2.6 3.5,-3.4 2.2,-1 3.1,-1.1 3.8,-0.3 1.3,1.7 2.5,5 2.3,6.3 0,0.6 0.5,1.7 1.3,2.3 1.1,0.9 1.7,0.8 2.9,-0.3 1.3,-1.3 1.5,-1.2 2,1.3 0.3,1.5 0.3,3.8 0,5 -0.5,2 1.1,5.1 2.7,5.1 0.4,0 1,-0.8 1.4,-1.8 z m 0.1,-22.2 c -0.3,-0.6 0.1,-1 0.9,-1 0.9,0 1.6,0.4 1.6,1 0,0.5 -0.4,1 -0.9,1 -0.6,0 -1.3,-0.5 -1.6,-1 z M 388,398 c 0,-0.7 0.3,-1 0.7,-0.7 0.3,0.4 0.3,1 0,1.4 -0.4,0.3 -0.7,0 -0.7,-0.7 z m -6.7,14.9 c -0.8,-0.8 -1.5,-0.5 -2.6,1.2 -2.2,3.1 -0.9,4.6 1.6,2 1.5,-1.5 1.8,-2.4 1,-3.2 z m -210.4,-5.3 c -0.7,-2.2 -1.3,-5.1 -1.4,-6.3 0,-1.2 -0.9,-3 -1.8,-4.1 -0.9,-1 -1.9,-3.2 -2,-4.8 -0.2,-1.6 -1.6,-4.7 -3.2,-6.9 -2.7,-3.9 -2.7,-4 -2.2,-1 0.3,1.6 0.8,4.8 1.2,7 0.4,2.2 1.5,5.9 2.6,8.2 1,2.4 1.9,5.3 1.9,6.5 0,1.3 1,3.8 2.1,5.7 1.9,3.1 2.2,3.3 3.1,1.7 0.7,-1.3 0.6,-3.1 -0.3,-6 z m 290.2,-2.1 c -0.2,-1.2 -5.1,-2.6 -5.1,-1.5 0,1.1 3.2,3 4.3,2.7 0.5,-0.1 0.8,-0.7 0.8,-1.2 z m -12.9,-11 c -0.6,-1.4 -1.6,-2.5 -2.2,-2.5 -1.3,0 -1.3,1.2 0,4.6 0.8,2 1.4,2.4 2.2,1.6 0.9,-0.9 0.9,-1.8 0,-3.7 z m 16.2,-1.8 c -0.4,-1.7 -0.8,-4.1 -0.9,-5.2 -0.3,-4.4 -1.8,-9.5 -3,-10.5 -1.1,-0.9 -1.8,-0.5 -3,1.4 -1.7,2.6 -1.5,4.2 1.3,10.6 3.1,6.9 6.9,9.5 5.6,3.7 z m -4.3,-11.3 c 0,-1.1 0.3,-1.4 0.6,-0.6 0.3,0.7 0.2,1.6 -0.1,1.9 -0.3,0.4 -0.6,-0.2 -0.5,-1.3 z m 10.3,-5.2 c -0.5,-8.2 -0.8,-9.4 -3.2,-11 -2.1,-1.4 -2.2,-1.3 -2.2,1.7 0,4.6 3.1,15.1 4.5,15.1 0.8,0 1.1,-1.8 0.9,-5.8 z M 162,371.5 c 0.9,-1.1 0.9,-2.2 0.2,-4.4 -0.6,-1.6 -0.8,-3.9 -0.5,-5 0.3,-1.4 0.1,-2.1 -0.8,-2.1 -1,0 -1.4,1.7 -1.4,6.5 0,3.6 0.3,6.5 0.6,6.5 0.4,0 1.2,-0.7 1.9,-1.5 z M 327.3,362 c 2,-1.2 4.1,-1.9 4.7,-1.5 0.6,0.4 1.7,0.1 2.5,-0.5 1.3,-1.1 1.1,-1.7 -1.4,-4.6 -1.8,-2 -2.8,-4.1 -2.6,-5.4 0.2,-1.1 0.2,-2 -0.1,-2 -0.3,0 -2.6,1.1 -5.2,2.4 -2.6,1.3 -5.3,3.4 -6,4.6 -1.2,2 -1.3,2.1 -3,0.3 -0.9,-1 -1.6,-1.7 -1.6,-1.5 0.3,0.7 -5.1,5.8 -5.9,5.4 -0.4,-0.2 -0.7,0.4 -0.7,1.3 0,0.9 0.4,1.3 1,1 0.5,-0.3 1,-0.1 1,0.5 0,3.3 11.7,3.3 17.3,0 z m 115,1.2 c 1.6,-0.7 1.6,-0.9 0.2,-3 -2,-2.8 -4.1,-2.8 -4.8,0 -1,3.6 0.5,4.6 4.6,3 z m -260.9,-1.7 c -0.6,-1.6 -2.4,-2.1 -2.4,-0.7 0,1.1 1.1,2.2 2.1,2.2 0.5,0 0.6,-0.7 0.3,-1.5 z m 101.1,0.5 c 1.8,-0.8 1.7,-0.9 -0.8,-0.9 -1.5,-0.1 -2.7,0.3 -2.7,0.9 0,1.2 0.8,1.2 3.5,0 z m 93.5,-0.9 c 0,-1.7 -4.8,-6.6 -5.6,-5.8 -0.4,0.4 0.2,1.8 1.4,3 1.2,1.3 1.9,2.7 1.5,3 -0.3,0.4 0.1,0.7 1,0.7 0.9,0 1.7,-0.4 1.7,-0.9 z M 295.5,360 c 0.3,-0.6 -0.1,-1 -0.9,-1 -0.9,0 -1.6,0.4 -1.6,1 0,0.5 0.4,1 0.9,1 0.6,0 1.3,-0.5 1.6,-1 z m 46.5,0.1 c 0,-0.5 -0.9,-2 -2,-3.3 -1.2,-1.2 -3,-3.8 -4.1,-5.6 -1.9,-3.3 -4.6,-3.9 -4.1,-1 0.3,1.8 8.2,10.8 9.4,10.8 0.4,0 0.8,-0.4 0.8,-0.9 z m 7.5,-7.4 c -0.4,-1.2 -1.6,-3 -2.7,-4 -1.7,-1.4 -2.3,-1.5 -3.6,-0.5 -1.3,1.2 -1.3,1.3 0,1.6 0.8,0.2 2,1.4 2.6,2.7 0.7,1.4 1.9,2.5 2.7,2.5 1.2,0 1.5,-0.6 1,-2.3 z m 134,-2.1 c -1,-1.4 -2.4,-2.6 -3.1,-2.6 -2.6,0 -1.3,2.9 2.1,4.8 1.1,0.6 2.1,0.9 2.3,0.7 0.2,-0.2 -0.4,-1.5 -1.3,-2.9 z m -90.8,-2.3 c 1,-1.2 0.9,-2.2 -0.4,-4.7 -0.9,-1.7 -1.9,-4.4 -2.2,-6 -0.4,-1.6 -1.2,-3.1 -1.9,-3.4 -0.8,-0.2 -1,0.2 -0.5,1.4 0.4,1.1 0.3,1.5 -0.5,1 -1.7,-1 -4.2,-6.5 -3.6,-8.2 0.2,-0.7 0.6,-2.1 0.9,-2.9 0.4,-1.3 0.9,-1.4 2.5,-0.5 1.1,0.6 2,1.7 2,2.5 0,2.5 1.6,1.6 3.2,-1.8 1.1,-2.3 1.3,-3.9 0.6,-5 -1.3,-2.4 -3.1,-2.2 -1.8,0.2 0.6,1.2 0.6,2.2 0.1,2.5 -1.1,0.7 -2.1,-1.7 -2.1,-5.1 0,-2.2 0.3,-2.4 2.6,-1.9 2.3,0.6 2.4,0.5 1.4,-1.4 -0.6,-1.1 -1.7,-2 -2.4,-2 -2.3,0 -3.9,-2.9 -3.8,-6.7 0.1,-2 0.9,-4.4 1.8,-5.2 1.5,-1.5 1.6,-1.4 1.1,0.1 -0.9,2.5 1.8,1.2 3.8,-1.8 0.8,-1.3 2.2,-2.4 3,-2.4 0.8,0 2.2,1.1 3,2.4 1.7,2.6 5.6,4 8.5,3.1 1.8,-0.6 3.4,-4.4 2.4,-5.5 -0.3,-0.3 -1.2,0.3 -1.9,1.3 -1.6,2.2 -4.1,1.7 -7.5,-1.5 -2.2,-2 -2.2,-2.2 -0.4,-3.5 2,-1.5 6.4,-1.8 6.4,-0.4 0,0.5 -1,1.1 -2.3,1.3 -4,0.6 -1.8,2.3 3,2.3 4.1,0 4.8,0.3 5.3,2.4 0.5,2.1 0.7,2.2 1.8,0.8 1,-1.2 1,-1.8 -0.2,-2.9 -0.8,-0.8 -1.4,-2.1 -1.4,-2.9 0.2,-3.4 -0.4,-4.6 -3.1,-6.2 -2.2,-1.3 -3,-1.4 -3.4,-0.5 -0.3,0.8 -0.9,0.3 -1.5,-1.2 -0.6,-1.4 -1.1,-1.8 -1.1,-1.1 -0.1,1.2 -0.4,1.2 -1.3,0.3 -0.9,-0.9 -0.7,-1.6 1,-3.2 1.2,-1.2 2.2,-2.8 2.2,-3.6 0,-1.2 0.4,-1.3 2,-0.4 1.4,0.7 1.9,1.7 1.5,2.9 -0.5,1.7 -0.3,1.8 3.9,0.4 3.9,-1.3 4.5,-1.9 5.9,-6.1 0.8,-2.6 2.1,-4.6 2.7,-4.4 0.8,0.2 1.1,-0.4 0.7,-1.7 -0.3,-1.1 -0.1,-2.1 0.4,-2.3 0.4,-0.2 0.4,-1 -0.1,-1.8 -0.8,-1.3 -1,-1.3 -1,0.1 0,0.9 -0.8,2.3 -1.7,3 -1.5,1.3 -1.6,1.2 -0.9,-1.1 0.4,-1.4 1,-3.7 1.3,-5.3 0.6,-3.1 3.3,-3.7 3.3,-0.7 0,2.4 2.8,4 6.9,4 3.6,0 5.5,-2.5 6.6,-8.5 0.4,-2.3 1.6,-4.7 2.8,-5.7 1.8,-1.4 2,-1.9 0.9,-2.9 -0.8,-0.9 -1.2,-0.9 -1.2,-0.2 0,0.8 -0.8,0.8 -3,0 -1.7,-0.6 -2.8,-1.6 -2.6,-2.2 0.2,-0.5 0.9,-0.9 1.5,-0.8 0.6,0.2 1.1,-0.8 1.1,-2.1 0,-1.4 1,-3 2.5,-4 1.4,-0.9 2.3,-2.1 2,-2.5 -0.8,-1.4 -6.7,-1.9 -10,-0.9 -1.6,0.5 -5.5,1.1 -8.5,1.4 -3,0.3 -6.1,1.1 -6.9,1.7 -1.2,1 -1.2,0.9 -0.2,-1 0.9,-1.8 0.9,-2.2 -0.1,-1.8 -1.3,0.5 -3.7,4.1 -6.7,9.8 -2.3,4.6 -9.4,11.5 -12.4,12.1 -1.7,0.4 -2.7,0.2 -2.7,-0.5 0,-0.7 -0.8,-0.6 -2.3,0.4 -1.9,1.2 -2.6,1.3 -4.1,0.1 -1.3,-0.9 -2.3,-1 -3.5,-0.3 -1.1,0.7 -2.6,0.6 -4.9,-0.4 -3.2,-1.3 -3.3,-1.5 -1.7,-3.1 1.2,-1.2 2.8,-1.5 5.5,-1.2 2.1,0.2 4.9,-0.1 6.2,-0.8 1.2,-0.6 3.9,-1.8 5.8,-2.6 4.7,-1.8 8,-4.5 10.2,-8.1 2.1,-3.5 2.2,-3.9 0.5,-3.9 -0.6,0 -2.1,1.5 -3.3,3.3 -1.7,2.5 -3.2,3.5 -7.5,4.4 -3.2,0.8 -5.7,0.9 -6.2,0.4 -1,-1 -0.5,-7.2 0.7,-10.6 0.6,-1.6 0.6,-1.7 -0.3,-0.5 -0.9,1.3 -1.1,1.3 -1.1,-0.1 0,-0.8 0.5,-2 1.1,-2.6 0.7,-0.7 0.4,-1.8 -1.3,-3.6 -2.2,-2.5 -2.9,-2.6 -12.9,-2.8 -9.6,-0.2 -10.8,0 -13.7,2.1 -1.7,1.3 -3.3,2.9 -3.6,3.6 -0.3,0.7 -2,2 -3.8,2.8 -1.8,0.7 -4.3,2.3 -5.4,3.4 -2.2,2.1 -2.2,2.1 -2.7,0.1 -0.3,-1.1 0.1,-2.5 0.9,-3.2 3.7,-3 4.4,-3.9 3.9,-4.8 -0.6,-0.8 -8,1.6 -9.8,3.1 -0.9,0.8 0.8,4.3 3.5,7.2 1,1 1.8,2.4 1.8,3 0,0.7 0.9,2.4 2,3.8 1.1,1.4 2,3.2 2,4.1 0,2.3 2,5.9 5.3,9.3 1.5,1.6 2.7,3.3 2.7,3.8 0,0.5 1.3,2.9 3,5.3 1.6,2.4 3,4.8 3,5.4 0,0.6 0.4,1.1 0.9,1.1 0.5,0 1.8,2 3,4.5 1.1,2.4 2.9,4.8 3.9,5.4 1.4,0.7 1.8,2.1 1.7,5.8 0,4.2 -0.3,4.8 -2.1,4.8 -1.1,0 -2.8,0.6 -3.6,1.3 -2,1.6 -8.1,3.4 -7.3,2.1 0.8,-1.2 -0.2,-1.2 -2.4,0.1 -2.6,1.3 -3.4,6.4 -1.7,10.5 0.8,1.8 1.2,3.6 0.9,3.9 -0.3,0.3 0.8,2.7 2.5,5.3 2.1,3.4 3.1,6.5 3.5,10.8 0.5,5.1 1.1,6.4 3.7,8.7 3.3,3.1 5.3,3.6 4.4,1.3 -1.1,-2.7 2,-0.6 3.9,2.6 1.1,2 2.3,2.9 3.2,2.5 0.9,-0.3 2.2,0.5 3.2,2.2 2.7,4.2 4.4,5.1 7.3,4 1.4,-0.5 3,-1.6 3.7,-2.5 z M 366,328 c 0,-1.1 0.2,-2 0.4,-2 0.2,0 0.6,0.9 0.9,2 0.3,1.1 0.1,2 -0.4,2 -0.5,0 -0.9,-0.9 -0.9,-2 z m 7.6,0.5 c 0.4,-0.8 0.8,-1.5 1,-1.5 0.2,0 0.4,0.7 0.4,1.5 0,0.8 -0.4,1.5 -1,1.5 -0.5,0 -0.7,-0.7 -0.4,-1.5 z m 3.6,-3.2 c -0.6,-0.2 -1.2,-1.1 -1.2,-1.9 0,-0.9 1.1,-1.4 3.2,-1.4 3,0 3.1,0 1.3,2 -1,1.1 -1.9,2 -1.9,1.9 -0.1,0 -0.7,-0.3 -1.4,-0.6 z m -7.2,-1.7 c -1,-1.3 -0.9,-2.1 0.6,-4.3
l 1.7,-2.8 1,2.9 c 0.7,2.1 0.6,3.2 -0.5,4.2 -1.3,1.3 -1.6,1.3 -2.8,0 z m -10.3,-8.3 c -0.4,-0.3 -0.7,-1.6 -0.7,-2.9 0,-1.2 -0.6,-2.4 -1.3,-2.7 -0.6,-0.2 -0.9,-0.8 -0.5,-1.2 0.6,-0.7 4.8,5.1 4.8,6.7 0,1 -1.4,1 -2.3,0.1 z m 10.7,-8.6 c -0.5,-0.7 -2.1,-1.9 -3.4,-2.8 l -2.3,-1.5 2.8,-2.7 c 3.1,-2.8 5.6,-2.6 3,0.3 -1.5,1.6 -1.4,1.8 0.5,2.3 1.4,0.3 2,1.3 2,3.1 0,2.8 -0.9,3.2 -2.6,1.3 z m 4.2,-3.2 c -1.1,-2.9 -0.7,-7.3 0.8,-7.8 2.1,-0.8 3.2,6.1 1.3,8 -1.2,1.3 -1.5,1.2 -2.1,-0.2 z M 410.5,293 c 0.4,-0.6 1.1,-0.8 1.6,-0.5 1.4,0.9 1.1,1.5 -0.7,1.5 -0.8,0 -1.2,-0.5 -0.9,-1 z m 16.1,-30.9 c -0.4,-0.7 -0.5,-1.5 -0.2,-1.8 0.9,-0.9 1.9,0.4 1.4,1.8 -0.4,1.1 -0.6,1.1 -1.2,0 z m 3.5,-10.5 c -0.8,-1 -0.8,-1.6 0.4,-2.6 1.6,-1.3 4.5,-0.7 4.5,0.9 0,0.6 -0.9,1.5 -1.9,2 -1.4,0.8 -2.2,0.7 -3,-0.3 z m -47,-7.5 c -1.7,-1.1 -0.7,-4.5 1.2,-3.9 1.3,0.5 2.3,4.8 1,4.8 -0.4,0 -1.4,-0.4 -2.2,-0.9 z m 18,102.1 c 0.6,-1.5 0.4,-2.2 -0.4,-2.2 -1.6,0 -3.7,2 -3.7,3.6 0,2 3.3,0.9 4.1,-1.4 z m 69.6,-6.5 c 1.6,0.3 0.4,-3.5 -1.4,-4.1 -0.8,-0.3 -2.5,0.5 -3.8,1.9 -2.5,2.4 -2.5,4.3 -0.2,7.3 0.7,0.9 1.4,0.4 2.6,-2 0.9,-1.8 2.2,-3.2 2.8,-3.1 z M 202,344.1 c 0,-0.6 -0.5,-1.3 -1,-1.6 -0.6,-0.3 -1,0.1 -1,0.9 0,0.9 0.4,1.6 1,1.6 0.5,0 1,-0.4 1,-0.9 z m 276,-2.4 c 0,-1.6 -1.8,-4.3 -2.4,-3.6 -0.8,0.7 0.5,4.9 1.5,4.9 0.5,0 0.9,-0.6 0.9,-1.3 z m -90.6,-13.9 c -1,-1.6 -2.2,1.1 -1.6,3.5 0.5,2 0.5,2 1.4,-0.2 0.4,-1.3 0.5,-2.7 0.2,-3.3 z M 199,315.5 c 0,-1.5 -2.8,-4 -3.6,-3.2 -0.3,0.3 -0.3,2 0.1,3.7 0.6,2.5 0.9,2.9 2.1,1.9 0.8,-0.6 1.4,-1.7 1.4,-2.4 z m 102,-2 c 0,-0.8 -0.5,-1.5 -1,-1.5 -0.6,0 -1,0.7 -1,1.5 0,0.8 0.4,1.5 1,1.5 0.5,0 1,-0.7 1,-1.5 z m 7.5,-3.2 c 0.5,-0.9 2,-2.8 3.2,-4.3 1.2,-1.5 2.7,-3.9 3.2,-5.3 0.8,-2.1 0.6,-3 -1.5,-5.2 -2.7,-2.9 -3,-3.7 -1.2,-3.4 2.7,0.3 3.8,-0.2 4.8,-2.1 1,-1.9 0.9,-2.1 -1.6,-1.8 -1.7,0.2 -3,-0.3 -3.8,-1.5 -0.9,-1.4 -0.7,-2.5 1,-5.5 1.5,-2.9 1.8,-4.4 1.1,-6 -0.7,-1.5 -0.6,-2.6 0.3,-3.7 0.7,-0.9 1.9,-1.4 2.6,-1.1 1.4,0.5 3.8,-1.9 3.1,-3.1 -0.3,-0.5 0.3,-1.9 1.2,-3.2 1.4,-1.9 1.6,-3.2 1,-6 -0.4,-1.9 -1.6,-4.1 -2.6,-4.8 -1,-0.7 -2.3,-1.7 -2.9,-2.2 -0.8,-0.7 -1.9,-0.2 -3.3,1.3 -2.1,2.3 -1.9,3.6 0.6,3.6 0.8,0 1.1,-0.5 0.8,-1 -0.3,-0.6 0.1,-1 0.9,-1 0.8,0 2.4,1.2 3.6,2.7 1.9,2.4 2,2.8 0.6,3.1 -1.1,0.3 -1.5,1 -1.1,2.2 0.8,2.4 -0.9,3.4 -2.6,1.4 -1,-1.3 -1,-2 0,-3.6 0.7,-1.1 1,-2.2 0.7,-2.5 -0.9,-1 -5.6,2.7 -5.6,4.3 0,0.8 -0.4,1.3 -0.9,1 -1.2,-0.8 -6.1,4.3 -6.1,6.3 0,0.9 -0.5,2.3 -1,3.1 -0.9,1.3 -1.1,1.3 -2,0 -1.1,-1.7 -1.1,-1.8 -1.4,3.5 -0.2,3.6 1,11.6 2.9,18.6 0.5,2 0,3.3 -1.9,5.6 -1.4,1.7 -2.6,4.1 -2.6,5.3 0,1.2 1.2,3.5 2.7,5.1 2,2 3.4,2.7 4.8,2.3 1.1,-0.3 2.4,-1.3 3,-2.1 z m -2.9,-18.9 c -0.3,-0.9 -0.6,-2.6 -0.6,-3.8 0,-1.2 -0.5,-2.7 -1.2,-3.4 -1.6,-1.6 -0.1,-2.9 2,-1.6 1.1,0.7 1.8,2.7 2,5.8 0.3,4.5 -1,6.2 -2.2,3 z M 398,300 c 0,-0.6 -0.7,-1 -1.5,-1 -0.8,0 -1.5,0.4 -1.5,1 0,0.5 0.7,1 1.5,1 0.8,0 1.5,-0.5 1.5,-1 z m -238.5,-7.7 c 0.6,-1.8 2.1,-4.3 3.3,-5.6 1.3,-1.4 2.2,-3.6 2.2,-5.5 0,-2.5 -0.6,-3.5 -2.4,-4.2 -2.8,-1 -5.1,-4.2 -6.1,-8.2 -0.9,-3.5 -2.9,-5.1 -5.5,-4.3 -1.6,0.5 -1.8,1 -0.9,2.6 0.5,1.1 0.7,2.9 0.4,4 -0.4,1 -0.6,4.3 -0.6,7.3 0,3.5 0.7,6.5 2.1,9.1 1.1,2 1.9,4 1.6,4.2 -0.3,0.3 -0.1,1.4 0.5,2.5 1.5,2.8 4.2,1.8 5.4,-1.9 z m -2.3,-4.5 c 0.2,-0.6 1,-1.4 1.6,-1.6 0.7,-0.2 1,0.2 0.6,1.2 -0.7,1.8 -2.8,2.2 -2.2,0.4 z m 263.5,4.6 c 0.7,-1.8 -1.2,-6.4 -2.7,-6.4 -0.5,0 -1,1.1 -1,2.4 0,4.9 2.3,7.5 3.7,4 z M 423,278 c 0.6,-1.1 0.7,-2 0.3,-2 -0.5,0 -1.4,0.9 -2.1,2 -0.7,1.1 -0.8,2 -0.2,2 0.5,0 1.4,-0.9 2,-2 z m -255.4,-7.1 c -0.5,-2.9 -0.3,-3.9 0.5,-3.3 0.7,0.4 1,0.1 0.7,-0.7 -0.5,-1.6 -5.6,-2.5 -6.9,-1.2 -0.9,0.9 4,9.2 5.5,9.3 0.5,0 0.6,-1.8 0.2,-4.1 z m 311,-3.8 c 0.3,-1.4 1.1,-4 1.8,-5.6 1.2,-2.6 1.1,-3.5 -0.2,-6 -0.8,-1.7 -2.1,-3.4 -2.8,-3.8 -0.8,-0.4 -1.4,-2 -1.4,-3.4 0,-2.5 0,-2.6 2,-0.8 1.7,1.6 2,1.6 2,0.2 0,-1.9 -2.6,-4.7 -4.5,-4.7 -1.9,0 -2.7,6.2 -1.4,11.2 0.6,2.3 1.1,7.1 1,10.5 -0.2,5.4 0,6.2 1.3,5.7 0.9,-0.3 1.9,-1.8 2.2,-3.3 z M 307,261.7 c 0.8,-1.4 1.1,-2.9 0.7,-3.3 -0.8,-0.8 -4.6,3.6 -4.7,5.4 0,2.1 2.3,0.8 4,-2.1 z m 180.6,-3.3 c 0.7,-3.9 -0.3,-12.4 -1.5,-12.4 -0.5,0 -1.3,0.6 -1.9,1.3 -0.8,1 -0.8,2.4 -0.1,5.2 0.6,2.1 0.9,5.3 0.6,7.1 -0.4,2.5 -0.2,3.2 0.8,2.7 0.8,-0.3 1.7,-2 2.1,-3.9 z M 307,255.2 c 0,-1.6 6.6,-6.7 8.7,-6.7 1.3,0 2.3,-0.3 2.3,-0.8 0.1,-5.4 0,-5.9 -1.5,-4.7 -0.8,0.7 -1.5,1.9 -1.5,2.6 0,0.8 -0.5,1.4 -1.1,1.4 -0.7,0 -0.9,-1 -0.7,-2.5 0.4,-2 0.3,-2.3 -0.8,-1.4 -0.8,0.6 -1.4,1.7 -1.4,2.4 0,0.6 -1.1,1.7 -2.5,2.3 -1.4,0.7 -3.5,3.2 -4.8,6 -2.9,6 -2.4,8.3 0.9,4.7 1.3,-1.4 2.4,-2.9 2.4,-3.3 z m 146.3,5 c 1.7,-0.7 1.6,-0.9 -0.3,-3 -1.1,-1.2 -2.3,-2.2 -2.5,-2.2 -0.2,0 -1.1,0.7 -2,1.6 -1.2,1.2 -1.3,1.9 -0.4,3 1.2,1.5 2.4,1.6 5.2,0.6 z M 164,256.1 c 0,-3.4 -0.9,-6.1 -2,-6.1 -1.2,0 -1.8,5.7 -0.8,7.4 1.4,2.5 2.8,1.8 2.8,-1.3 z m 7.5,-7.1 c -0.3,-3.2 0,-6.2 0.9,-7.8 1.2,-2.3 1.2,-3 0,-4.6 -0.8,-1.1 -1,-2.4 -0.5,-3 1.6,-2.1 2.2,-6.8 1,-8.2 -1.7,-2.1 -4.1,0.2 -3.3,3.1 1.2,5 -4.3,3.8 -7.5,-1.6 l -1.9,-3 -0.4,3.8 c -0.3,2.3 0,4.3 0.8,5.1 0.7,0.7 1.1,1.9 0.8,2.7 -0.4,0.8 -0.1,1.5 0.5,1.5 0.6,0 1.1,-0.7 1.1,-1.5 0,-0.8 0.4,-1.5 1,-1.5 1.5,0 1.2,1.2 -0.7,4 -2,2.8 -1.8,5.7 0.3,8.1 0.7,0.8 1.7,3.1 2,5 0.4,1.9 1.6,4.2 2.8,5.1 2,1.6 2.1,1.6 2.8,-0.2 0.4,-1 0.5,-4.2 0.3,-7 z m -12.3,-9.2 c 0.3,-0.7 0.1,-3.3 -0.4,-5.8 -0.5,-2.5 -1.1,-6.8 -1.4,-9.5 -0.5,-5.1 -3,-13 -4.7,-15.2 -1.7,-2.3 -2.7,-0.3 -2,4.5 0.3,2.6 1.3,5.7 2.1,6.9 1.6,2.6 0.5,3.2 -1.3,0.7 -1.1,-1.6 -1.2,-1.5 -1.8,0.1 -0.5,1.2 0.6,3 3.7,6.1 4.1,4.2 4.3,4.7 3.8,8.9 -0.3,2.8 -0.1,4.5 0.6,4.5 0.6,0 1.2,-0.6 1.4,-1.2 z m 27.4,-10.2 c -1,-2.5 -2.2,-4.6 -2.6,-4.6 -1,0 -0.5,9.4 0.5,11.1 0.5,0.8 1.2,0.6 2.3,-0.4 1.4,-1.4 1.3,-2 -0.2,-6.1 z m 42.1,0.8 c 1.8,-1.4 3.7,-2.3 4.2,-2 0.5,0.4 1.7,-0.4 2.6,-1.6 1.5,-2.2 2,-2.3 17.8,-2.3 16,0 16.3,0 21,2.8 5.3,3.1 8.5,3 6.8,-0.1 -0.9,-1.8 -9.7,-5.9 -11.4,-5.4 -0.4,0.1 -2.3,-0.9 -4.1,-2.3 -1.8,-1.4 -3.9,-2.5 -4.7,-2.5 -0.8,0 -2.2,-0.7 -3.2,-1.5 -1.1,-0.7 -2.5,-1.1 -3.2,-0.9 -0.7,0.3 -2.6,-0.1 -4.2,-0.9 -1.5,-0.8 -4.1,-1.3 -5.7,-1.2 -2.7,0.3 -6.6,3.1 -9.4,6.7 -0.7,1 -2,1.8 -2.9,1.8 -1.9,0 -6.9,5.3 -9.3,10.1 -2.1,4 -1.7,5.5 0.8,3.3 0.9,-0.8 3.2,-2.6 4.9,-4 z m 50.6,-2.1 c 0.4,-0.3 1,-0.3 1.4,0 0.3,0.4 0,0.7 -0.7,0.7 -0.7,0 -1,-0.3 -0.7,-0.7 z M 150,230.9 c 0,-1.6 -3.6,-5.9 -4.3,-5.2 -0.8,0.8 2.1,6.3 3.3,6.3 0.6,0 1,-0.5 1,-1.1 z m 31.4,-2.2 c 0.3,-1.5 0.2,-2.7 -0.3,-2.7 -1.3,0 -2.4,3.7 -1.6,5.1 0.9,1.3 1.1,1.1 1.9,-2.4 z m 176.3,-4.8 c 1.9,-1.2 3.7,-1.9 4,-1.6 0.3,0.3 2.3,-0.1 4.4,-1 3.3,-1.3 4.7,-1.3 8.4,-0.3 2.4,0.7 4.9,0.9 5.6,0.5 0.6,-0.5 3.2,-0.9 5.6,-1 3.2,-0.1 4.8,-0.7 5.9,-2.3 0.8,-1.2 2,-2 2.5,-1.7 0.5,0.4 0.9,0.1 0.9,-0.5 0,-0.6 -0.7,-1.3 -1.6,-1.7 -0.9,-0.3 -2.1,0.3 -3,1.5 -1.2,1.8 -1.8,2 -3.9,1 -2.4,-1.1 -2.6,-3.1 -0.2,-2.3 1.5,0.6 4.4,-1.2 3.4,-2.1 -0.4,-0.4 -2.8,-0.3 -5.4,0.3 -2.6,0.6 -5.6,0.7 -6.8,0.3 -2.5,-0.9 -5.9,0.6 -4.9,2.2 0.5,0.7 0,0.9 -1.5,0.5 -2.7,-0.7 -11.2,2.4 -14,5.2 -1.1,1.1 -2.5,2.1 -3,2.1 -0.5,0 -1.1,0.7 -1.5,1.5 -0.8,2.1 1.1,1.9 5.1,-0.6 z m -173.5,-3.8 c -0.2,-1.2 0.3,-2.4 1.2,-2.7 0.8,-0.3 1.9,-1.9 2.5,-3.5 0.6,-1.8 0.6,-2.7 0.1,-2.4 -0.6,0.4 -1,0.2 -1,-0.4 0,-0.5 0.5,-1.3 1.1,-1.6 1.1,-0.8 0.8,-9.2 -0.5,-11.3 -1.1,-1.8 -2.6,-0.5 -1.9,1.6 0.6,1.5 0.5,1.5 -1,0.4 -2.2,-1.9 -3.1,-5 -1.8,-6.6 0.7,-0.9 0.6,-1.9 -0.6,-3.5 l -1.5,-2.3 -1.5,3 c -1.7,3.4 -5,5.5 -3.9,2.5 0.6,-1.7 0.5,-1.7 -0.8,0 -0.7,0.9 -1.4,3.9 -1.4,6.6 -0.1,4.4 0,4.9 1.8,4.4 1.1,-0.3 2,-1 2,-1.6 0,-1.4 4.8,3.2 5.5,5.3 0.3,0.9 -0.1,3 -1,4.6 -1.8,3.5 -1.9,5.8 -0.3,8.4 1.6,2.5 3.4,2 3,-0.9 z M 176,199 c 0,-0.6 0.4,-1 1,-1 0.5,0 1,0.4 1,1 0,0.5 -0.5,1 -1,1 -0.6,0 -1,-0.5 -1,-1 z m 31.5,21.2 c -0.3,-1 0.4,-2.3 1.9,-3.6 2.6,-2.2 4.6,-8.6 2.7,-8.6 -0.6,0 -1.1,0.6 -1.2,1.2 0,0.7 -0.4,0.4 -0.8,-0.6 -0.8,-2 0.8,-7.9 2.6,-9.7 1.3,-1.3 5.4,-0.8 5.3,0.6 0,0.5 -0.6,1 -1.3,1 -0.6,0 -1.8,0.4 -2.5,0.8 -0.9,0.7 -1,1.3 0,3 0.7,1.2 1.1,2.6 1,3.1 -0.4,1.4 2,3.6 4,3.6 1,0 1.6,-0.4 1.3,-1 -0.3,-0.5 0,-0.7 0.8,-0.4 0.8,0.3 4.2,-0.8 7.6,-2.5 3.9,-2 7.3,-3 9.8,-2.9 2.1,0 4.8,-0.2 6.1,-0.6 1.3,-0.4 2.9,-0.3 3.6,0.3 1,0.8 2,0.5 4,-1.4 1.5,-1.4 3.1,-2.5 3.6,-2.5 0.5,0 1,-1.2 1.2,-2.8 0.4,-3.2 2.2,-3.6 2.6,-0.5 0.2,1.5 -0.7,2.8 -3.3,4.6 -3.4,2.3 -3.6,2.6 -1.8,3.6 1.6,0.8 2.7,0.4 5.6,-2 l 3.6,-3 1.7,2.7 c 1.4,2.1 2.3,2.5 4.8,2.1 1.7,-0.2 4,0.2 5.1,0.9 1.2,0.8 3.2,1.2 4.5,0.9 2.3,-0.4 2.4,-0.3 0.7,0.9 -1,0.8 -2.7,1.2 -3.7,0.9 -1.1,-0.3 -2,-0.1 -2,0.5 0,1.5 5.5,3.1 7.1,2.2 0.8,-0.5 1.3,-2.8 1.4,-5.7 0,-2.6 0.3,-5.3 0.7,-5.9 0.4,-0.6 1.8,-0.9 3.2,-0.7 1.3,0.3 2.6,0 3,-0.5 0.3,-0.5 -0.9,-1.3 -2.8,-1.6 -3.5,-0.7 -8.2,-4.6 -5.5,-4.6 0.8,0 2,0.5 2.6,1.1 0.5,0.5 2.4,1.1 4.1,1.1 1.7,0.1 2.9,0.5 2.6,1 -0.3,0.4 0.1,0.8 0.9,0.8 1.8,0 4.9,-3.4 4,-4.4 -0.4,-0.4 0,-0.4 1,0 1.6,0.6 2.2,1.8 1.7,3.9 -0.7,3 -1.2,7.5 -1.2,11.8 -0.1,3 -0.4,4.3 -0.9,3.5 -0.5,-0.7 -0.9,-0.8 -0.9,-0.2 0,0.6 1.1,2.1 2.4,3.3 2.6,2.5 3.2,2.1 5.1,-3.1 0.5,-1.5 3.2,-4.2 6,-6 4.2,-2.8 5.2,-4 5.9,-7.5 0.9,-3.9 1.2,-4.2 3.5,-3.6 3.2,0.7 4,1.4 2.3,2 -0.7,0.3 -1.8,1.1 -2.5,1.9 -0.7,0.8 -1.8,2.1 -2.5,2.9 -0.6,0.7 -1.2,1.6 -1.2,2 0,1.1 6.1,-0.6 9.7,-2.6 L 328,198 v 3.1 c 0,1.8 0.4,2.8 1,2.4 0.6,-0.4 0.8,-1.1 0.4,-1.6 -0.8,-1.4 1.5,-3.9 3.5,-3.9 1,0 2.3,-1.5 3.1,-3.8 l 1.8,-4.5 c 0.2,-0.4 -0.3,-0.4 -1.2,-0.1 -1.1,0.4 -1.6,0 -1.6,-1.3 0,-2.3 1.8,-4.3 3.9,-4.3 1.2,0.1 1,0.6 -0.8,2 -2.1,1.8 -2.2,2 -0.4,2 2.4,0 4.4,-2.1 7.2,-7.8 1.2,-2.3 3.3,-4.8 4.6,-5.4 2.7,-1.2 3.5,-3.1 0.9,-2.1 -1.4,0.5 -1.5,0.3 -0.5,-1.5 0.7,-1.2 1.5,-2.2 1.9,-2.2 0.4,0 1.2,-1 1.7,-2.3 0.9,-1.9 1.9,-2.2 7.1,-2.5 l 6.1,-0.3 -0.1,4 c -0.1,2.3 0.1,4.1 0.4,4.1 1.3,-0.1 2.5,-1.7 2.7,-3.8 0.2,-1.5 -0.1,-2.1 -0.9,-1.6 -0.8,0.5 -0.9,0 -0.4,-1.7 0.4,-1.3 1,-3.6 1.3,-5.2 0.3,-1.5 0.9,-2.7 1.4,-2.7
0.5,0 1.5,-1.3 2.4,-2.9 0.8,-1.6 2.4,-3.2 3.4,-3.6 2.7,-0.8 12,2.6 12.6,4.6 0.8,2.3 5.5,6.9 7,6.9 0.8,0 1.1,-0.8 0.8,-1.8 -0.2,-1 0.2,-2.4 1,-3.1 1.9,-1.5 6.6,-0.4 7.4,1.7 0.5,1 1.1,0.5 2.4,-1.9 2.1,-3.9 2.4,-5.8 0.8,-4.2 -0.6,0.6 -1.8,0.9 -2.5,0.6 -1.1,-0.4 -1.2,-0.9 -0.3,-1.9 0.6,-0.8 2,-1.4 3.1,-1.4 1,0 2.2,-0.8 2.5,-1.8 0.4,-0.9 1.6,-2.4 2.7,-3.3 1.5,-1.3 2.6,-1.4 4.2,-0.7 1.2,0.6 2.7,2 3.2,3.2 0.6,1.1 1.1,1.5 1.1,0.8 0.1,-0.6 0.8,-1.2 1.6,-1.2 2.4,0 1.7,1.8 -1.1,2.7 l -2.6,0.9 2.6,3.1 c 1.4,1.7 2.6,3.5 2.6,3.9 0.1,0.5 1.2,2.2 2.5,3.9 1.6,2 3.4,3 5.2,3 1.9,0 3.1,0.9 4.4,3 1,1.6 1.8,4 1.8,5.2 0.1,2.9 2.9,4.5 5.4,3.1 1.4,-0.7 1.7,-0.7 1.3,0.1 -1.1,1.7 1.1,1.3 3,-0.6 1.5,-1.6 1.5,-1.7 -0.2,-2.4 -1.1,-0.3 -2.5,-0.4 -3.2,-0.2 -1.8,0.8 -1.5,-1.5 0.9,-4.8 2.4,-3.5 7.1,-6.1 9.3,-5.3 2.2,0.8 1,2.4 -1.8,2.4 -1.3,0 -3,0.8 -3.9,1.8 -1.6,1.7 -1.5,1.8 2.1,1.9 4.3,0.1 8.1,-1.5 6.3,-2.7 -0.8,-0.4 -0.2,-1.1 1.8,-2 2.2,-0.9 3.8,-0.9 6,-0.2 2.2,0.8 3.2,0.7 4,-0.2 1.8,-2.1 -0.9,-3.6 -6.6,-3.6 -5.7,0 -8.6,-1.3 -14,-6.3 -1.7,-1.6 -4.2,-3 -5.5,-3.1 -1.3,-0.1 -2.7,-1 -3.3,-2.3 -0.5,-1.2 -1.9,-2.7 -3.1,-3.4 -3.1,-1.6 -3.7,-4.6 -1.2,-7.1 1.3,-1.3 2.7,-1.8 4.3,-1.4 1.8,0.5 2.8,-0.2 4.9,-2.8 1.4,-1.9 2.6,-3.8 2.6,-4.3 0,-0.4 -0.9,-1.4 -1.9,-2 -1.5,-0.9 -2.1,-0.9 -2.3,-0.1 -0.3,0.8 -0.7,0.6 -1,-0.3 -0.3,-0.9 -0.3,-2 0,-2.6 1.1,-1.7 5.1,0.4 6.2,3.1 1,2.6 5,5.5 5,3.6 0,-0.6 -1.8,-3.7 -4,-6.9 -2.2,-3.2 -4,-6.8 -4,-8 0,-1.3 0.4,-1.9 1.1,-1.6 0.6,0.4 0.8,1.3 0.5,2.1 -0.3,0.8 -0.1,1.4 0.5,1.4 2.1,0 1.9,-2.9 -0.6,-6.6 -1.5,-2.2 -3.2,-4.2 -4,-4.6 -1.5,-0.9 -7.5,0.1 -7.5,1.2 0,1.3 2.9,3.2 4,2.5 0.5,-0.3 1,-0.2 1,0.4 0,0.5 -0.4,1.2 -0.9,1.5 -1.8,1.1 -4.2,-0.7 -6.1,-4.6 -1.3,-2.8 -1.5,-3.6 -0.4,-2.8 1.1,1 1.4,0.9 1.4,-0.3 0,-2.9 -3.6,-2.8 -10.2,0.3 -3.7,1.6 -6.8,3.4 -7,3.9 -0.1,0.5 -1.3,0.1 -2.6,-0.9 -2.6,-2.2 -2.1,-4.6 0.6,-3.1 1.9,1.1 5,-0.3 7,-3.1 0.7,-1 1.7,-1.6 2.2,-1.3 0.4,0.3 1,-0.2 1.3,-0.96 0.4,-1.03 0.1,-1.26 -1.1,-0.8 -1.4,0.54 -1.5,0.4 -0.4,-0.96 1.7,-2.14 6.3,-3.22 7.2,-1.72 0.4,0.65 1.3,1.01 1.9,0.81 0.8,-0.26 0.6,-1.14 -0.5,-2.73 -1.3,-1.83 -1.8,-2.05 -2.5,-0.99 -0.7,1.1 -0.9,1.07 -0.9,-0.15 0,-0.83 2,-3.47 4.5,-5.88 3.6,-3.54 4.2,-4.72 3.5,-6.18 -1.3,-2.42 -1.3,-2.94 0.4,-2.94 0.7,0 1.6,-0.9 1.9,-2 0.3,-1.1 0.1,-2 -0.4,-2 -0.6,0 -0.5,-0.84 0.1,-2 0.8,-1.44 0.8,-2.6 -0.1,-4.13 -0.7,-1.36 -0.8,-2.35 -0.1,-2.75 1.3,-0.82 -8.2,-20.04 -11.1,-22.5 -1.2,-1.04 -2.1,-2.28 -2,-2.75 0.2,-0.48 -0.1,-0.87 -0.6,-0.87 -2,0 -2,1.85 -0.1,4.29 1.1,1.39 2,3.24 2,4.11 0,0.87 0.9,2.14 2,2.83 1.1,0.69 2,2.07 2,3.07 0,0.99 0.9,3.86 2.1,6.37 1.7,3.75 2,5.83 1.5,11.69 -0.3,3.93 -0.6,7.81 -0.7,8.64 -0.1,0.82 0.1,2.18 0.5,3 0.4,0.93 -0.1,1.98 -1.4,2.74 -1.6,1.03 -1.8,0.99 -1.4,-0.27 0.5,-1.06 0.2,-1.32 -1,-0.87 -0.9,0.34 -1.6,1.24 -1.6,2.01 0,0.76 -0.3,1.39 -0.8,1.39 -1.2,0 -7.8,6.39 -8.5,8.26 -0.4,0.98 -1.7,2.18 -2.9,2.67 -1.3,0.5 -3.8,2.27 -5.6,3.97 -1.8,1.7 -4,3.1 -4.8,3.1 -0.8,0 -2.3,0.9 -3.4,2 -1.5,1.5 -3.2,2 -6.4,1.9 -2.3,-0.1 -4.8,0.1 -5.4,0.5 -0.6,0.4 -2.1,0.2 -3.3,-0.5 -1.7,-0.9 -1.9,-1.3 -0.8,-2 1.5,-0.9 -0.9,-1.2 -10.8,-1.2 -2.9,0 -5.2,-0.3 -5.1,-0.6 0.2,-1.8 -0.3,-3.1 -1.3,-3.1 -0.6,0 -0.8,0.7 -0.5,1.6 0.7,1.9 -0.8,5 -3,5.8 -1.3,0.5 -1.5,0.2 -1,-1.8 0.6,-2.6 -1.4,-5.1 -3.6,-4.4 -0.7,0.3 -2.7,-0.1 -4.3,-0.7 -3.3,-1.4 -6.3,-0.7 -8.4,1.9 -1.5,1.8 -7.6,2.2 -8.6,0.6 -0.4,-0.6 -1.2,-0.7 -1.8,-0.3 -0.7,0.3 -0.3,-0.3 0.7,-1.5 1.3,-1.5 2.6,-2 4.1,-1.6 1.5,0.4 3.2,-0.4 5.6,-2.3 3.6,-3.02 8.9,-8.67 10.2,-11.02 0.8,-1.21 0.5,-1.27 -1.2,-0.33 -2.9,1.55 -2.6,-0.1 0.5,-3.03 2.2,-2.03 2.5,-3.01 2,-6.09 -0.4,-2.29 -0.2,-3.8 0.5,-4.04 1.6,-0.52 4.7,-9.16 3.7,-10.32 -5.5,-6.61 -7.6,-10.19 -4.3,-7.49 1.3,1.06 1.3,0.66 -0.1,-3.13 -2.7,-8 -5.9,-13.35 -8,-13.35 -1.1,0 -2,0.83 -2.3,1.97 -0.3,1.65 -0.1,1.76 1.2,0.72 1.2,-1.01 1.6,-0.94 2.1,0.34 0.3,0.91 0.2,1.32 -0.4,0.96 -0.6,-0.34 -1.3,0.08 -1.6,0.93 -0.4,0.9 0.5,2.86 2,4.64 1.6,1.95 2.6,4.3 2.6,6.36 0,2.02 0.8,3.98 2,5.12 1.2,1.02 2,2.77 1.8,3.9 -0.2,1.65 -1.1,2.12 -4.6,2.37 -3,0.22 -4.2,-0.07 -4.2,-1.05 0,-0.75 0.5,-1.84 1.1,-2.43 0.7,-0.77 0.7,-2.27 -0.1,-5.23 -0.6,-2.28 -0.8,-4.59 -0.5,-5.13 0.4,-0.54 0.3,-1.98 -0.1,-3.2 -0.6,-1.94 -1,-1.55 -3,3.08 -1.3,2.96 -2.8,5.02 -3.4,4.66 -0.5,-0.34 -1,0 -1,0.78 0,1.75 3.4,4.95 4.3,4.05 0.4,-0.37 0.7,0.1 0.7,1.04 0,0.94 -1.2,2.86 -2.7,4.25 -1.5,1.4 -2.8,3.06 -2.8,3.7 0,0.64 -1.2,2.97 -2.6,5.17 -1.4,2.2 -3.3,5.69 -4.3,7.76 -3,6.63 -13.4,15.84 -18.1,16.24 -0.6,0 -3.1,1 -5.7,2.3 -5.6,2.6 -7.6,2.8 -8.4,0.7 -0.4,-0.9 0.9,-3.1 3.5,-5.73 4,-4.19 4.1,-4.21 6.9,-2.56 2.7,1.6 2.9,1.56 7.2,-1.35 4.8,-3.21 6.9,-6.07 7,-9.5 0,-1.17 1.1,-2.87 2.5,-3.77 1.4,-0.9 2.5,-2.5 2.5,-3.55 0,-3.19 -1.7,-3.21 -3,-0.03 -1.3,3.12 -2.4,3.73 -3.5,1.93 -0.4,-0.59 0.1,-1.98 1.1,-3.1 1.5,-1.59 1.6,-1.98 0.4,-1.77 -2.2,0.42 -10,-2 -10,-3.11 0,-0.53 1.6,-0.96 3.5,-0.96 2.9,0 3.7,-0.48 4.5,-2.53 0.5,-1.39 1.7,-2.79 2.5,-3.12 1.8,-0.68 5,1.87 7.6,6.06 l 1.8,2.92 0.5,-2.42 c 0.7,-3.46 0.5,-5.9 -0.7,-10.14 -0.9,-3.24 -1.3,-3.65 -3.3,-3.15 -1.7,0.42 -2.6,0.09 -3,-1.08 -0.4,-0.92 -0.2,-2.18 0.5,-2.81 0.8,-0.84 1.4,-0.82 2.3,0.07 1.5,1.45 2.8,1.56 2.8,0.21 0,-0.54 -1.8,-2.09 -3.9,-3.45 -3.2,-1.99 -4,-3.24 -4.6,-6.51 -0.4,-2.22 -1.1,-4.29 -1.6,-4.6 -0.5,-0.31 -0.9,-1.41 -0.9,-2.44 0,-1.03 -0.9,-2.16 -2,-2.51 -2.4,-0.77 -2.7,-2.5 -0.3,-2.5 4.8,0 19.9,13.28 18.7,16.44 -0.3,0.87 -0.1,2.26 0.6,3.08 0.9,1.12 1.6,1.22 2.6,0.4 1.6,-1.35 0.8,-6.18 -1.7,-10.39 -1.7,-2.77 -1.7,-3.13 -0.2,-5.5 1.6,-2.41 1.6,-2.46 -0.1,-1.06 -1.7,1.32 -1.8,1.28 -1.4,-0.5 0.2,-1.22 1.1,-1.97 2.4,-1.97 1.2,0 3,-1.07 4.1,-2.37 l 1.9,-2.38 10.7,5.26 c 8.1,3.96 10.9,5.82 11.3,7.57 0.3,1.27 1.7,3.02 3,3.89 1.3,0.87 2.4,2.19 2.4,2.93 0,0.75 0.7,1.92 1.5,2.62 1.3,1.06 1.4,0.99 0.9,-0.38 -1.1,-2.79 0.5,-1.81 2.6,1.61 1.1,1.79 2,4.69 2,6.44 0,1.76 0.5,3.47 1,3.82 0.7,0.39 0.7,1.23 0.1,2.28 -0.5,0.96 -0.6,2.34 -0.1,3.29 0.6,0.95 0.5,3.11 -0.1,5.17 -0.6,2.32 -0.6,4.43 0.1,6.17 0.9,2.44 0.8,2.55 -1,1.57 -1.1,-0.58 -2,-1.72 -2,-2.53 0,-3.05 -1.8,-1.25 -4.3,4.41 -1.4,3.23 -4.5,7.61 -6.7,9.75 -2.3,2.13 -4.6,4.73 -5.2,5.78 -0.9,1.6 -0.7,1.8 0.9,1.4 1.1,-0.3 2.8,-0.1 3.7,0.4 1.2,0.7 2.7,0.6 4.7,-0.2 1.6,-0.7 2.9,-1.56 2.9,-1.94 0,-0.71 7.2,-5.06 8.4,-5.06 0.4,0 0.4,0.45 0.1,1 -1,1.63 0.1,1.14 1.6,-0.69 1,-1.15 1,-1.45 0.1,-0.94 -1.9,1.18 -1.4,-0.24 1.8,-5.03 1.6,-2.44 3,-5.34 3,-6.44 0,-1.1 0.7,-3.34 1.5,-4.97 1.4,-2.68 1.4,-3.02 0,-3.57 -1.4,-0.52 -1.3,-1.02 0.5,-4.04 1.9,-3.25 2.8,-6.41 1.3,-5 -1,1 -3.2,-1.29 -2.7,-2.73 0.3,-0.7 -0.3,-1.9 -1.2,-2.68 -1.6,-1.25 -1.7,-1.21 -1.1,0.34 1,2.76 0.1,2.05 -2,-1.52 -2,-3.32 -2,-6.28 -0.1,-5.08 1.5,0.87 0.2,-1.14 -3.6,-5.9 C 388,44.69 385.9,43 385,43 c -1,0 -2.3,-0.71 -3.1,-1.57 -1.6,-1.97 -5.4,-3.95 -11.6,-6.02 -2.6,-0.9 -5.4,-2.08 -6,-2.63 -0.7,-0.56 -4.4,-2.52 -8.2,-4.36 -5.7,-2.79 -7.4,-3.2 -10,-2.45 -2.7,0.79 -3.3,0.59 -4.8,-1.56 -1,-1.65 -2.2,-2.27 -3.4,-1.89 -0.9,0.31 -3.4,-0.11 -5.4,-0.94 -1.9,-0.83 -3.3,-1.03 -2.9,-0.44 1.1,1.8 -3.8,-0.18 -6.9,-2.78 -1.6,-1.3 -3.4,-2.36 -4.2,-2.36 -2,0 -3.7,2.73 -3,4.96 1,3.31 5.7,5.04 13.5,5.04 6.8,0 7,0.08 6,2.03 -0.9,1.66 -1.7,1.92 -4.4,1.41 -2,-0.36 -3.6,-0.18 -4,0.45 -0.5,0.7 -1.3,0.74 -2.4,0.11 -3.5,-1.97 -9.2,-3.87 -9.2,-3.07 0,0.46 -1,1.09 -2.2,1.4 -2.3,0.61 -7.2,-1.54 -9.7,-4.25 -0.9,-0.92 -1.2,-1.12 -0.8,-0.43 0.6,0.86 0.2,1.19 -1.2,1.09 -1.1,-0.09 -1.8,-0.44 -1.6,-0.78 0.2,-0.35 -1.2,-1.39 -3.1,-2.31 -2,-0.93 -3.3,-1.23 -2.9,-0.67 0.4,0.62 -0.8,1.02 -2.9,1.02 -1.9,0 -3.8,-0.47 -4.1,-1.05 -0.5,-0.71 -1.5,-0.54 -3.1,0.5 -3,2 -9.8,2.02 -11.4,0.03 -0.7,-0.84 -1.1,-1.7 -0.9,-1.9 0.2,-0.2 2.1,-1.07 4.1,-1.92 3.9,-1.58 5.4,-4.31 1.9,-3.19 -1.1,0.34 -2.2,0.14 -2.6,-0.43 -0.3,-0.57 -2.1,-1.04 -4,-1.04 -2.5,0 -4,0.77 -5.9,3.08 -1.4,1.69 -2.6,3.71 -2.6,4.5 0,0.78 -0.7,1.42 -1.6,1.42 -0.8,0 -1.3,-0.34 -1.1,-0.75 0.4,-0.64 -2.5,-0.79 -7.1,-0.37 -0.7,0.07 -1.7,1.21 -2.3,2.54 -0.7,1.51 -3.4,3.41 -7,5.05 -3.3,1.46 -5.9,3.07 -5.9,3.59 0,1.58 1.8,1.08 9,-2.56 3.8,-1.93 7.9,-3.5 9.1,-3.5 1.8,0 1.9,-0.25 0.9,-1.5 -1,-1.23 -1,-1.5 0.4,-1.5 0.9,0 1.6,0.47 1.6,1.05 0,0.58 1.3,1.52 3,2.1 1.6,0.57 2.7,1.5 2.4,2.05 -0.4,0.57 0.3,0.51 1.5,-0.14 1.1,-0.62 2.2,-1.68 2.2,-2.35 0.1,-0.66 0.2,-1.85 0.3,-2.62 0.2,-2.13 2.6,-2.54 2.6,-0.46 0,1.84 4.5,6.37 6.3,6.37 2.3,0 -0.5,1.3 -4.2,1.99 -2.6,0.47 -4.2,0.35 -4.4,-0.37 -0.2,-0.6 -2.5,0.99 -5.1,3.53 -2.9,2.82 -5.4,4.45 -6.4,4.19 -0.9,-0.24 -2.6,0.26 -3.7,1.11 -1.6,1.26 -1.7,1.44 -0.2,0.94 2.8,-0.98 1.1,1.81 -2.6,4.16 -1.8,1.13 -3.1,2.82 -3.1,3.74 0.1,0.93 -0.2,1.48 -0.6,1.23 -0.4,-0.25 -1.3,0.77 -2.1,2.26 -1.7,3.3 -6.9,9.22 -8.1,9.22 -1.3,0 2,-5.97 5.7,-10.31 1.8,-2.1 3.6,-5.4 4,-7.33 0.5,-2.76 1.3,-3.81 4,-4.92 1.8,-0.77 3.6,-2.29 4,-3.38 0.3,-1.08 1.9,-3.09 3.6,-4.45 1.6,-1.37 2.9,-2.74 2.9,-3.05 0,-1.26 -2.3,-0.41 -5.5,2.02 -2.6,1.97 -3.8,2.34 -5.2,1.59 -1.2,-0.72 -2.7,-0.47 -5.5,0.91 -2,1.04 -4.9,3.02 -6.4,4.41 -1.5,1.38 -3.4,2.51 -4.2,2.51 -1.2,0 -1.2,-0.24 -0.1,-1.65 1.3,-1.5 1.1,-1.49 -1.9,0.07 -1.9,0.95 -3.7,1.46 -4,1.13 -0.3,-0.34 1.1,-1.98 3.1,-3.65 3.6,-2.94 4.7,-4.9 2.8,-4.9 -0.5,0 -3.3,1.89 -6.2,4.2 -3,2.31 -6.2,4.26 -7.2,4.34 -1,0.07 -3.7,1.93 -6,4.13 -7.4,7.02 -13.3,11.3 -16.5,11.95 -1.8,0.35 -3.2,1.02 -3.2,1.5 0,0.48 -3.9,4.79 -8.7,9.57 -4.7,4.79 -8.2,8.85 -7.6,9.03 1.3,0.45 0.4,5.96 -1.3,7.35 -1.1,0.94 -1.3,0.35 -0.9,-3.5 0.4,-4.28 0.3,-4.55 -1.4,-3.63 -2.4,1.28 -3.8,4.54 -1.6,3.7 2.2,-0.85 1.8,1.14 -0.5,2.59 -1.1,0.69 -2,2.19 -2,3.33 0,1.14 -1.1,3.06 -2.5,4.25 -1.4,1.2 -2.5,2.83 -2.5,3.62 0,3.32 2.4,2.43 7.3,-2.7 2.9,-2.99 6.4,-6.21 7.9,-7.15 1.5,-0.95 4.5,-5.19 6.7,-9.53 2.3,-4.31 4.8,-8.09 5.6,-8.42 0.8,-0.32 2,-1.72 2.5,-3.12 0.5,-1.4 2,-3.01
3.2,-3.58 5.5,-2.51 11.3,-6.58 20.5,-14.38 3.3,-2.77 3.7,-2.86 6.1,-1.46 1.5,0.81 2.8,2.25 3,3.19 0.3,1.27 -0.3,1.72 -2.2,1.72 -2,0 -2.6,-0.51 -2.6,-2.1 0,-1.81 -0.8,-1.43 -5.8,2.78 -3.1,2.68 -7,5.53 -8.6,6.35 -4.6,2.29 -10.6,8.36 -10.6,10.66 0,1.13 -0.7,2.64 -1.5,3.35 -1.2,0.98 -1.3,1.46 -0.4,2.05 0.8,0.48 2.8,-0.72 5.3,-3.22 2.2,-2.2 4.8,-4.43 5.8,-4.97 2.8,-1.49 2.3,1.28 -0.7,4.12 -2.1,1.98 -9.1,13 -10.4,16.48 -0.2,0.55 -1.1,1.86 -2,2.92 -1.5,1.78 -1.5,1.87 0.2,1.28 1.6,-0.59 1.6,-0.45 0.2,1.66 -0.8,1.26 -1.2,2.59 -0.9,2.95 1.2,1.12 -1.8,3.69 -4.2,3.69 -1.7,0 -2.2,-0.53 -2.2,-2.25 0.1,-1.24 0.8,-3.14 1.5,-4.22 0.7,-1.09 1.3,-2.44 1.3,-3 0,-0.57 -0.5,-0.36 -1,0.47 -0.5,0.82 -1,1.05 -1,0.5 0.1,-1.27 3.6,-5.5 4.6,-5.5 0.4,0 1.8,-0.95 3,-2.12 l 2.3,-2.11 -3,-2.51 c -3.3,-2.81 -5,-2.6 -1.9,0.23 1.1,1 2,2.49 2,3.32 0,1.24 -0.3,1.19 -2,-0.29 -1.1,-0.98 -2.2,-2.63 -2.5,-3.67 -0.4,-1.03 -1.1,-1.62 -1.6,-1.3 -0.5,0.33 -0.7,1 -0.4,1.51 0.4,0.51 -0.8,2.71 -2.6,4.9 -2.3,2.87 -2.9,4.34 -2.2,5.26 1.3,1.64 2.4,8.78 1.4,8.78 -0.4,0 -0.8,1.31 -0.9,2.92 0,1.6 -1.4,5.78 -3.1,9.28 -1.6,3.5 -3.3,8 -3.7,10 -0.3,2.1 -1,3.8 -1.5,3.8 -0.5,0 -0.9,0.5 -0.9,1.1 0,0.5 0.4,0.8 0.9,0.5 0.5,-0.3 1.1,0.1 1.5,0.9 0.9,2.5 2.3,1.7 3,-1.9 0.7,-3.4 3,-6.4 3.9,-4.9 0.3,0.4 0,2.1 -0.7,3.7 -1,2.4 -0.9,3.8 0.5,7.8 0.9,2.7 2.2,5.5 2.9,6.1 1,1 1.2,0.8 0.7,-0.6 -0.8,-2.1 0.9,-2.3 1.7,-0.2 0.7,1.9 -1.3,6.5 -2.9,6.5 -0.7,0 -1.9,0.8 -2.6,1.7 -1.2,1.5 -1.2,1.6 0.4,1 3,-1.1 0.7,1.8 -4.2,5.3 -3.2,2.4 -4,3.4 -3,4 1,0.7 1,1.4 0.1,3.4 -0.6,1.4 -1.9,2.6 -2.7,2.6 -0.9,0 -1.3,-0.5 -1,-1 0.9,-1.4 -0.5,-1.2 -3.5,0.5 -1.4,0.8 -3.7,1.4 -5.3,1.5 -1.5,0 -2.7,0.6 -2.7,1.2 0,0.7 -0.3,2.4 -0.7,3.7 -0.5,1.8 -0.3,2.2 0.7,1.6 0.9,-0.5 1.1,-0.4 0.6,0.4 -0.4,0.6 -1.1,0.9 -1.5,0.7 -1,-0.7 -3.9,5.5 -3.4,7.1 0.7,1.9 2.1,1.6 2.6,-0.5 0.3,-1.1 0.7,-0.7 1.2,1.5 0.5,2.2 1.3,3.3 2.5,3.3 1,0 2,-0.5 2.2,-1 0.2,-0.7 1.5,-0.5 3.6,0.5 3.5,1.8 7.2,1.2 7.2,-1.1 0,-2.3 3,-1.6 4.1,1 1.4,2.9 5,3.8 8.1,2 4.3,-2.5 4.9,-2.7 5.9,-1.7 1.3,1.3 -1.7,8.3 -3.5,8.3 -1.8,0 -3.1,5.7 -1.7,7.4 0.6,0.7 0.8,1.6 0.4,2 -0.4,0.4 0.1,0.4 1.1,0 1.3,-0.5 1.6,-1.3 1.2,-3 -0.7,-2.6 0.5,-3.2 2.3,-1.1 0.8,1.1 0.7,2.2 -0.5,4.6 -0.9,1.9 -1.3,4.2 -1,5.6 0.4,1.4 0,4.1 -0.9,6.1 -0.8,2 -1.5,4 -1.5,4.5 0,0.5 0.8,0.9 1.8,0.9 1,0 2.3,0.5 3,1.2 1.8,1.8 2.7,0.1 1.4,-2.7 -1.8,-3.9 -1.5,-8.3 0.7,-9.4 1.5,-0.9 1.7,-1.9 1.3,-6.1 -0.4,-4.1 -0.2,-5 1.2,-5 0.9,0 1.5,0.3 1.4,0.7 -0.1,0.5 0.2,2 0.6,3.4 0.5,1.6 0.2,5.1 -0.7,8.5 -1.2,4.8 -1.3,6.8 -0.4,10.5 0.7,2.5 1.7,5.2 2.3,6 0.6,0.8 1.4,2.2 1.7,3.2 0.4,1 1.2,1.5 1.8,1.2 0.6,-0.4 0.8,-1.4 0.4,-2.3 z m 0.2,-19.9 c -1,-0.9 -0.9,-5.8 0.2,-8.6 1.2,-3.2 4.8,-4.4 6.8,-2.4 0.9,0.8 1.2,2 0.9,2.6 -1.2,1.8 -2.6,1.2 -2.6,-1 0,-1.8 -0.2,-1.9 -1.5,-0.9 -0.8,0.7 -1.5,2.9 -1.5,4.9 0,3.8 -1.2,6.6 -2.3,5.4 z m 95.3,-2.8 c 0,-2.5 0.4,-3.5 1.2,-3.3 0.7,0.3 1.3,1.7 1.3,3.3 0,1.6 -0.6,3 -1.3,3.2 -0.8,0.3 -1.2,-0.7 -1.2,-3.2 z m 17,-18 c -0.7,-0.9 -1.1,-1.8 -0.8,-2 0.9,-1 3.8,0.7 3.8,2.1 0,1.8 -1.4,1.8 -3,-0.1 z m 21.2,-3.4 c 0.3,-2.6 3.2,-5 4.4,-3.8 0.5,0.4 -0.5,2 -2,3.5 l -2.8,2.7 z m -157.4,-6.9 c -2.7,-3.2 -4.8,-7.1 -4.8,-9 0,-1.8 1.8,-4.2 3.2,-4.2 1.2,0 0.5,2.4 -1.2,3.7 -1.9,1.4 -0.9,2.6 1.4,1.7 1.1,-0.4 1.6,-1.4 1.3,-2.6 -0.3,-1.1 0.1,-2.2 0.9,-2.5 2.1,-0.8 2.9,0.4 1.5,2.1 -1.9,2.3 -0.5,3.6 2.8,2.6 1.6,-0.4 3.2,-0.6 3.5,-0.3 0.3,0.3 2.4,-1.3 4.7,-3.6 3.7,-3.7 5.9,-5 5.9,-3.6 0,0.3 -1,2 -2.3,3.7 -1.6,2.3 -1.9,3.2 -0.9,3.5 0.8,0.3 -0.4,2.2 -3.5,5.4 -3.7,3.8 -5.5,4.9 -7.9,4.9 -1.7,0 -3.7,-0.8 -4.6,-1.8 z m -17.8,-5 c 0,-0.4 1.3,-1.5 2.9,-2.5 2.7,-1.6 2.9,-1.6 3.4,0.2 0.3,1.4 -0.2,2.1 -1.7,2.5 -3,0.8 -4.6,0.7 -4.6,-0.2 z m 189.8,-2.9 c -2.4,-0.4 -2.6,-0.7 -1.8,-2.2 0.5,-1 1.6,-2.1 2.4,-2.4 1,-0.4 1.5,0.3 1.8,2.4 0.3,1.6 0.4,2.8 0.4,2.7 -0.1,0 -1.3,-0.3 -2.8,-0.5 z m 87.9,-1 c -1.1,-1 -0.8,-4.3 0.3,-4.3 1.5,0 2.4,3 1.3,4.1 -0.5,0.5 -1.2,0.6 -1.6,0.2 z M 190,157 c 0,-0.6 0.7,-1 1.5,-1 0.8,0 1.5,0.4 1.5,1 0,0.5 -0.7,1 -1.5,1 -0.8,0 -1.5,-0.5 -1.5,-1 z m 175.2,-1.2 c 0.3,-0.7 1.3,-1.5 2.2,-1.6 1.2,-0.3 1.7,0.1 1.4,1 -0.3,0.7 -1.3,1.5 -2.2,1.6 -1.2,0.3 -1.7,-0.1 -1.4,-1 z m 34.1,-4.1 c -1.9,-2.4 -2.3,-3.6 -1.4,-4.1 1.2,-0.8 4.1,2.1 4.1,4 0,1.7 -1.4,1.8 -2.7,0.1 z m -13.8,-7.6 c -1,-1.8 1.7,-2.3 3.3,-0.7 1.5,1.5 1.5,1.6 -0.5,1.6 -1.2,0 -2.4,-0.4 -2.8,-0.9 z m -190.5,-2 c 0,-2.2 3.5,-6.9 4.5,-5.9 0.4,0.3 0,1.9 -0.9,3.6 -0.8,1.6 -1.2,3.2 -0.9,3.6 0.4,0.3 -0.1,0.6 -1,0.6 -1,0 -1.7,-0.8 -1.7,-1.9 z m 145.7,1.2 c -1,-1 -0.8,-3.3 0.3,-3.3 0.5,0 1.4,0.9 2,2 0.8,1.5 0.8,2 -0.3,2 -0.8,0 -1.7,-0.3 -2,-0.7 z m 21.5,-3.5 c -0.7,-0.7 -1.2,-2 -1.2,-3 0,-1 -0.4,-1.8 -0.9,-1.8 -1.3,0 -5.5,-6 -4.7,-6.7 1.4,-1.5 9.6,8.5 9.6,11.6 0,1.5 -1.3,1.4 -2.8,-0.1 z m -154.7,-3.6 c 0.4,-0.9 1,-2.7 1.2,-4 0.3,-1.2 0.9,-2.5 1.4,-2.8 0.5,-0.3 2.1,0.8 3.6,2.3 2.7,2.7 2.8,2.8 0.6,3.1 -1.2,0.2 -2.7,1 -3.4,1.8 -0.6,0.8 -1.8,1.4 -2.6,1.4 -1.1,0 -1.3,-0.5 -0.8,-1.8 z m 3.3,-3.7 c -0.3,-0.3 -0.9,0.2 -1.2,1.2 -0.6,1.4 -0.5,1.5 0.5,0.6 0.7,-0.7 1,-1.5 0.7,-1.8 z m 20.7,3.5 c -0.8,-1.2 2,-2.4 3.5,-1.5 0.6,0.3 0.8,1.1 0.5,1.6 -0.8,1.2 -3.2,1.2 -4,-0.1 z m 117.7,-8.7 c -1.3,-0.5 -1.7,-3.3 -0.4,-3.3 0.4,0 1.3,0.5 2,1.2 2.2,2.2 1.4,3.3 -1.6,2.1 z m -156.9,-2.9 c 0.3,-0.4 -0.3,-1.4 -1.5,-2.4 -2.3,-1.8 -1.7,-4 1.1,-4 2.4,0 4.1,2 4.1,4.7 0,1.7 -0.6,2.3 -2.2,2.3 -1.2,0 -1.9,-0.3 -1.5,-0.6 z m 219.4,-6.5 c -1.8,-1.1 -2.3,-2.9 -0.7,-2.9 0.5,0 1.4,0.9 2,2 1.2,2.3 1.2,2.3 -1.3,0.9 z m 16.9,0.2 c -0.7,-1.1 2.2,-4.3 3.6,-3.9 1.7,0.6 1.4,2 -0.9,3.5 -1.3,0.9 -2.3,1 -2.7,0.4 z m -44.9,-2.9 c -2.6,-0.3 -3.3,-2.2 -1.1,-2.9 1.1,-0.4 5.2,2.3 4.4,2.9 -0.3,0.2 -1.8,0.2 -3.3,0 z M 195,112.7 c 0,-1.3 0.5,-2.8 1.2,-3.5 0.8,-0.8 0.8,-1.5 -0.2,-2.7 -2.2,-2.7 -0.4,-2.6 2.3,0.1 2.4,2.4 2.5,2.7 1.1,4.9 -2.2,3.4 -4.4,4 -4.4,1.2 z m 128.4,1.3 c -2.8,-1.1 -4.8,-3.6 -3.4,-4.5 0.6,-0.4 1.8,-0.1 2.6,0.6 0.8,0.6 1.8,0.9 2.1,0.5 0.4,-0.4 0.1,-1.1 -0.7,-1.6 -1.7,-1 -1.6,-1.2 2.8,-3.3 2.9,-1.4 3.3,-1.4 2.8,-0.2 -0.3,0.8 -0.3,1.5 0,1.5 0.2,0 2.1,-1.6 4,-3.6 2,-1.9 3.9,-3.3 4.2,-3 0.3,0.3 -0.3,2.2 -1.3,4.1 -1.3,2.4 -2.9,3.6 -5,4.1 -4.2,0.9 -4.6,1.3 -3.5,3.3 0.7,1.5 0.6,2 -0.8,2.3 -1,0.3 -2.7,0.2 -3.8,-0.2 z m -140.9,-5 c 2.3,-2.5 7.4,-5.2 8.6,-4.4 1.5,0.9 1,2.4 -0.9,2.4 -0.9,0 -2.8,0.9 -4.2,2 -1.4,1.1 -3.1,2 -3.9,2 -1.1,0 -1,-0.5 0.4,-2 z m 100.1,-6.9 c -2.5,-2.8 -2.4,-2.89 4.5,-3.27 2,-0.11 3.6,-0.98 4.6,-2.5 0.8,-1.28 1.9,-2.33 2.3,-2.33 0.4,0 2.6,-1.85 4.9,-4.12 3.7,-3.7 4.1,-4.61 4.1,-9 0,-3.46 0.4,-4.88 1.4,-4.88 2,0 2.6,7.21 1,11.7 -0.7,2.09 -1.3,3.44 -1.4,3 -0.1,-1.9 -3.2,1.24 -5.3,5.32 -1.6,3.33 -3,4.58 -5.2,5.08 -1.7,0.4 -4.4,1.2 -6.2,1.7 -2.6,0.8 -3.4,0.7 -4.7,-0.7 z m -28.6,-1 c 1.1,-2.19 4.4,-3.58 6,-2.58 0.6,0.36 2.6,-0.51 4.5,-1.93 1.8,-1.43 3.8,-2.59 4.4,-2.59 0.5,0 1.6,-1.23 2.3,-2.74 1.4,-2.85 3.8,-3.87 6.6,-2.8 1.3,0.5 0.9,1.02 -1.6,2.59 -1.8,1.08 -3.5,2.75 -3.9,3.71 -1.1,3.08 -4.6,6.24 -6.9,6.24 -1.3,0 -2.6,0.4 -2.9,1 -0.3,0.5 -2.6,1 -5.1,1 -4.1,0 -4.4,-0.2 -3.4,-1.9 z m 91,-0.8 c 0,-1.23 6.4,-6.3 7.9,-6.27 1.1,0.01 0.3,1.23 -2.1,3.5 -3.5,3.27 -5.8,4.37 -5.8,2.77 z M 233,98.5 c -1.5,-1.81 -0.6,-4.5 1.5,-4.5 0.9,0 1.5,0.92 1.5,2.44 0,3.05 -1.4,3.96 -3,2.06 z m 47,-3.75 0.1,-3.25 1.9,2.36 c 1.1,1.3 2,2.76 2,3.25 0,0.49 -0.9,0.89 -2,0.89 -1.6,0 -2,-0.66 -2,-3.25 z M 318,95 c 0,-0.55 0.4,-1 1,-1 0.5,0 1,0.45 1,1 0,0.55 -0.5,1 -1,1 -0.6,0 -1,-0.45 -1,-1 z M 231.7,84.82 c 2.6,-6.16 5.8,-10.82 7.5,-10.82 1.5,0 0.8,2.78 -0.9,3.42 -1.5,0.58 -1.5,0.74 0.2,1.92 1.6,1.22 1.6,1.4 0,2.99 -0.9,0.93 -2.1,1.39 -2.7,1.02 -0.6,-0.36 -0.9,-0.25 -0.6,0.25 0.8,1.37 -2.6,6.86 -4.5,7.22 -1.5,0.28 -1.3,-0.6 1,-6 z M 219,86.25 c 0.1,-0.97 3.6,-5.25 4.4,-5.25 1.2,0 0.6,2.9 -1,4.43 -1.6,1.65 -3.4,2.09 -3.4,0.82 z m 35.2,-0.43 c -1.6,-1.63 0.3,-3.76 2.8,-3.1 2.3,0.59 2.5,1.39 0.8,3.08 -1.5,1.5 -2.1,1.5 -3.6,0.02 z m 29.4,-0.35 c 0.4,-0.84 1.5,-1.98 2.5,-2.53 1.4,-0.76 1.9,-0.67 1.9,0.32 0,1.69 -2,3.74 -3.7,3.74 -0.7,0 -1,-0.65 -0.7,-1.53 z M 186,83.32 c 0,-1.85 4.6,-7.16 5.4,-6.24 0.2,0.23 -1,2.17 -2.5,4.32 -2.2,3 -2.9,3.44 -2.9,1.92 z m 140,-5.84 c -1.1,-1.28 -1,-1.42 0.4,-0.9 0.9,0.35 1.6,1.04 1.6,1.53 0,1.28 -0.6,1.1 -2,-0.63 z M 267.2,73.6 c -1.2,-2.78 -0.5,-4.08 1.5,-2.47 1.4,1.22 1.8,4.87 0.5,4.87 -0.5,0 -1.4,-1.08 -2,-2.4 z m 32.8,1.44 c 0,-1.17 5,-5.42 5.6,-4.79 1.3,1.27 -0.8,4.55 -3.1,5 -1.4,0.26 -2.5,0.16 -2.5,-0.21 z m 13.6,-1.96 c -0.4,-0.52 -0.2,-1.21 0.3,-1.53 0.5,-0.32 1.2,-0.16 1.5,0.36 0.4,0.53 0.2,1.21 -0.3,1.54 -0.5,0.32 -1.2,0.16 -1.5,-0.37 z m 78.5,-2.12 c 0.9,-1.29 2.2,-2.56 3,-2.81 1.1,-0.37 1,0.01 -0.2,1.89 -0.9,1.29 -2.2,2.56 -3,2.81 -1.1,0.37 -1,-0.01 0.2,-1.89 z M 291,69.71 c 0,-1.8 2.8,-4.26 3.7,-3.3 0.9,0.83 -0.9,3.82 -2.5,4.36 -0.7,0.22 -1.2,-0.26 -1.2,-1.06 z m -76,-0.6 c 0,-0.5 1.3,-2.34 3,-4.11 1.6,-1.77 3,-3.92 3,-4.78 0,-0.86 -0.8,-2.41 -1.7,-3.45 -1.4,-1.5 -1.5,-2.06 -0.4,-2.7 0.7,-0.44 1.8,-1.87 2.5,-3.19 0.7,-1.31 1.8,-2.26 2.5,-2.12 1.5,0.33 6.8,-2.37 7.8,-4.02 0.8,-1.28 8.8,-6.74 9.8,-6.74 0.3,0 1.6,-1.2 2.9,-2.66 1.2,-1.47 2.5,-2.25 2.9,-1.74 0.8,1.35 -1.2,3.53 -6.3,6.78 -4.6,2.91 -16.9,15.28 -17.1,17.12 -0.3,2.5 0.2,3.5 1.8,3.5 1,0 -0.5,1.53 -3.5,3.55 -2.9,1.95 -5,3.97 -4.7,4.5 0.4,0.52 -0.1,0.95 -0.9,0.95 -0.9,0 -1.6,-0.4 -1.6,-0.89 z m 105,-1.63 c -0.7,-0.84 -1,-1.8 -0.7,-2.14 0.4,-0.33 0.2,-1.44 -0.4,-2.47 -1,-1.87 -5.9,-2.68 -5.9,-0.98 0,0.49 -0.7,1.15 -1.4,1.45 -1.1,0.4 -1.3,0.07 -0.9,-1.14 0.4,-0.94 1.2,-2.62 2,-3.75 1.1,-1.71 1,-2.4 -0.2,-4.19 -1.4,-1.95 -1.3,-2.26 0.6,-3.59 1.4,-1.03 2,-2.31 1.7,-4.32 -0.3,-2.42 -0.8,-2.9 -3.6,-3.17 -2.7,-0.26 -3.5,0.09 -3.9,1.75 -0.3,1.14 -1,2.07 -1.5,2.07 -0.6,0 -0.8,-0.65 -0.5,-1.45 0.3,-0.8 -0.2,-2.49 -1.3,-3.75 -1.8,-2.2 -1.9,-2.22
-2.6,-0.38 -0.5,1.17 -0.1,2.99 0.8,4.68 1.6,2.7 1.5,2.89 -2.9,8.83 -2.5,3.34 -4.9,6.07 -5.4,6.07 -1,0 -1.2,-1.37 -0.2,-2.32 0.3,-0.36 1.4,-2.48 2.4,-4.7 1.8,-3.97 1.8,-4.09 -0.2,-6.08 -1.6,-1.61 -2.3,-1.79 -3.5,-0.85 -0.7,0.65 -1.1,1.61 -0.8,2.14 0.3,0.53 -0.4,2.05 -1.7,3.38 -2.1,2.27 -2.4,2.32 -4.1,0.77 -1,-0.91 -1.8,-2.43 -1.8,-3.39 0,-0.95 0.9,-3.69 2,-6.09 1.1,-2.4 2,-5.59 2,-7.09 v -2.74 l -3.5,1.67 c -1.9,0.92 -3.5,2.29 -3.5,3.04 0,0.76 0.4,1.1 1,0.76 0.5,-0.34 1,-0.14 1,0.44 0,1.51 -1.1,1.31 -3.2,-0.6 -2.2,-1.98 -3.6,-1.05 -1.8,1.16 0.7,0.85 1.1,1.77 0.8,2.05 -0.9,0.88 -3.8,-0.73 -4.9,-2.67 -0.5,-1.03 -1.5,-1.88 -2.1,-1.88 -0.7,0 0.1,1.35 1.7,3 1.6,1.65 2.4,3 1.9,3 -1,0 -1.5,0.89 -5.1,8.05 -1.3,2.45 -2.3,3.86 -2.3,3.14 0,-0.72 -0.5,-1.03 -1,-0.68 -0.6,0.35 -0.7,1.12 -0.4,1.71 0.4,0.65 0.2,0.8 -0.4,0.38 -0.7,-0.4 -1.2,-0.24 -1.2,0.34 0,0.58 -0.5,1.06 -1,1.06 -1.8,0 -1,-2.67 1.7,-5.74 7.2,-7.87 8.6,-10.26 6.3,-10.26 -0.6,0 -1.5,-1.18 -2,-2.62 -1.4,-3.63 0.3,-5.46 4.5,-4.92 3.7,0.47 5.8,-1.15 5.5,-4.15 -0.5,-4.14 -0.1,-4.41 5.7,-4.38 5.6,0.03 6.2,0.27 9.2,3.64 3.7,4.03 5.6,4.45 4.7,1.04 -0.4,-1.46 0,-2.83 0.8,-3.54 1.7,-1.4 2.9,0.02 2,2.35 -0.8,2.08 2.1,8.1 4.8,10 2.8,1.94 5.8,0.41 5.8,-2.92 0,-1.81 0.4,-2.28 1.6,-1.83 1.3,0.49 1.3,0.79 0.2,1.56 -1,0.71 -0.8,0.81 0.5,0.38 1,-0.33 3,0.19 4.5,1.13 2.6,1.67 2.6,1.66 1.2,-0.12 -1.3,-1.68 -1.3,-1.82 0.5,-1.47 1.3,0.25 2,1.23 2.1,2.95 0.1,1.41 1.1,3.95 2.4,5.63 2,2.81 2.1,3.38 0.9,6.92 -0.7,2.12 -1.2,4.86 -1.1,6.1 0.1,1.24 -0.2,2.23 -0.6,2.21 -0.4,-0.02 -2.1,-1.92 -3.9,-4.22 -2.3,-2.98 -2.9,-4.54 -2.2,-5.41 1.4,-1.62 0.7,-5.56 -1,-6.12 -0.9,-0.31 -1.1,0.13 -0.7,1.42 0.3,1.03 -0.1,3.1 -0.8,4.6 -0.9,1.59 -1,2.63 -0.4,2.5 0.6,-0.13 1.3,0.39 1.6,1.16 0.2,0.78 0,1.11 -0.6,0.75 -1.2,-0.75 -2.3,1.64 -1.4,2.95 0.4,0.5 1.6,1.4 2.7,2.01 1.1,0.6 2.5,2.02 3,3.14 0.6,1.13 1.6,2.7 2.3,3.49 0.6,0.8 0.9,1.75 0.5,2.11 -1.1,1.11 -3,0.73 -4.3,-0.86 z m 5.5,-15.3 c -0.8,-0.8 -2.5,1.01 -1.9,2 0.4,0.67 0.9,0.57 1.5,-0.29 0.4,-0.73 0.6,-1.5 0.4,-1.71 z M 298,46 c 0,-0.55 -0.8,-0.99 -1.8,-0.99 -1.4,0.02 -1.5,0.16 -0.2,0.99 1.9,1.22 2,1.22 2,0 z m -64.3,20.33 c -1.2,-1.16 -0.8,-3.09 0.8,-3.69 1.1,-0.42 1.5,0.11 1.5,1.89 0,2.4 -1,3.16 -2.3,1.8 z M 336,66 c -0.8,-0.49 -1.1,-1.22 -0.7,-1.63 0.4,-0.41 1.3,-0.21 1.9,0.43 1.5,1.51 0.7,2.35 -1.2,1.2 z m -54.4,-3.91 c -0.4,-0.57 0,-2.08 0.8,-3.37 1.1,-1.68 2.6,-2.39 5.4,-2.56 3.7,-0.21 3.9,-0.06 4,2.73 0.1,3.48 -2.2,4.81 -4.5,2.56 -1.4,-1.39 -1.7,-1.39 -3.3,0.07 -1.2,1.03 -2,1.24 -2.4,0.57 z m 6.4,-4.08 c -0.8,-0.48 -1.8,-0.61 -2.4,-0.27 -0.5,0.33 -0.1,0.92 1,1.31 2.4,0.86 3.4,0.16 1.4,-1.04 z m -72,-0.07 c 0,-0.58 0.4,-0.78 1,-0.44 0.5,0.34 1,0.82 1,1.06 0,0.24 -0.5,0.44 -1,0.44 -0.6,0 -1,-0.48 -1,-1.06 z m 36.6,-4.19 c 0.4,-1.24 1.2,-2.58 1.8,-2.99 1.5,-0.99 3.6,-0.95 3.6,0.07 0,1 -4.3,5.17 -5.4,5.17 -0.4,0 -0.4,-1.01 0,-2.25 z m 55.1,-1.4 C 306.5,51.12 307,49 308.5,49 c 1.7,0 1.9,0.86 0.7,2.76 -0.5,0.7 -1.1,0.96 -1.5,0.59 z m -49.6,-4.73 c -0.8,-0.96 -0.5,-1.82 1.2,-3.33 2.5,-2.29 7.3,-3.74 8.1,-2.44 0.6,0.91 -2.5,3.86 -6.1,5.85 -1.7,0.96 -2.4,0.94 -3.2,-0.08 z m 18.9,1.06 c 0,-0.21 0.7,-1.79 1.6,-3.53 0.9,-1.9 2.3,-3.15 3.5,-3.15 3.2,0 2.2,2.41 -2.4,5.3 -1.5,0.96 -2.7,1.58 -2.7,1.38 z m 65.2,-18.34 c -0.6,-0.28 -1.2,-0.89 -1.2,-1.36 0,-0.93 3.1,-1.07 6.9,-0.31 2,0.37 2.2,0.66 1,1.38 -1.5,0.98 -4.6,1.11 -6.7,0.29 z M 318,18.75 c 0,-1.82 0.2,-1.96 1,-0.75 1.3,1.94 1.3,3 0,3 -0.6,0 -1,-1.01 -1,-2.25 z m -79.1,193.4 c 0.9,-0.6 1,-1 0.2,-1.6 -1.6,-0.9 -4.4,0.2 -3.6,1.5 0.7,1.2 1.6,1.2 3.4,0.1 z m -90.9,-8.4 c 0,-1.7 -2.9,-5.7 -4,-5.7 -0.6,0 -0.2,1.6 0.7,3.5 1.7,3.5 3.3,4.6 3.3,2.2 z m 317,-1.7 c 1.1,-2.1 0.8,-2.3 -2.7,-1.4 -1.3,0.4 -2,1.1 -1.6,2 0.8,2 3.1,1.7 4.3,-0.6 z m -312.8,-1 c -0.2,-0.7 -0.4,-2.6 -0.5,-4.2 -0.1,-1.5 -0.4,-2.8 -0.6,-2.8 -0.2,0 -1,0.8 -1.7,1.7 -1.2,1.6 -1.3,1 -1.4,-4.5 0,-4.8 -0.3,-6.2 -1.5,-6.2 -1.1,0 -1.5,1.2 -1.5,5 0,3.8 0.5,5.4 2,6.7 1.1,1 2,2.5 2,3.4 0,0.8 0.3,1.9 0.7,2.3 1,1 2.8,0 2.5,-1.4 z m 141.5,-2.7 c -0.3,-0.3 -1.1,-0.2 -1.7,0.2 -0.9,0.6 -0.9,1 0.1,1.6 0.8,0.5 1.5,0.4 1.8,-0.2 0.1,-0.6 0.1,-1.3 -0.2,-1.6 z M 164,198.25 c 0,-1.4 -3.9,-4.6 -4.7,-3.9 -0.3,0.4 0.2,1.6 1.2,2.7 1.9,2.1 3.5,2.6 3.5,1.2 z m 5.8,-2 c -0.2,-1.9 -0.9,-2.8 -2.6,-3 -1.8,-0.3 -2.1,-0.8 -1.6,-2.8 0.4,-1.4 0.2,-2.4 -0.4,-2.4 -1.8,0 -2,2.4 -0.4,5.5 3,6.1 5.6,7.5 5,2.7 z m -26.4,-5.5 c 0.3,-1.5 0.2,-2.7 -0.3,-2.7 -1.3,0 -2.4,3.7 -1.6,5.1 0.9,1.3 1.1,1.1 1.9,-2.4 z m 29.6,-0.7 c 2.4,-2.4 4.9,-2.8 3,-0.5 -1.8,2.1 -0.9,1.9 2.9,-0.9 l 3.3,-2.4 -2.5,-1.7 c -2.2,-1.4 -3.1,-1.5 -6.7,-0.4 -2.3,0.7 -4.4,1.8 -4.7,2.5 -0.4,1.2 1.3,5.4 2.2,5.4 0.3,0 1.4,-0.9 2.5,-2 z m 180.8,-7.9 c 0.3,-0.8 -0.1,-1.2 -0.9,-0.9 -0.7,0.2 -1.5,1 -1.7,1.7 -0.3,0.8 0.1,1.2 0.9,0.9 0.7,-0.2 1.5,-1 1.7,-1.7 z m 27.5,-4 c 0.2,-1 0.1,-2.5 -0.4,-3.2 -0.5,-0.8 -0.9,-1 -0.9,-0.5 0,0.5 -0.9,0.1 -2,-0.9 -1.1,-1 -2,-2.9 -2,-4.2 0,-2.9 -2.5,-3.1 -4,-0.2 -0.7,1.1 -1,2.2 -0.8,2.3 0.2,0.1 1.5,1 3,1.9 1.6,1 2.8,2.5 2.8,3.5 0,2 1.9,4.4 3,3.7 0.4,-0.3 1,-1.3 1.3,-2.4 z m 75.9,-2.6 c -0.3,-1.5 -3.5,-1.2 -4,0.3 -0.3,0.9 0.3,1.3 1.9,1 1.3,-0.2 2.3,-0.8 2.1,-1.3 z m 13.8,-0.5 c 1.4,-1 2.2,-2.2 1.8,-2.6 -0.9,-0.8 -5.8,2.2 -5.8,3.6 0,1.5 1.2,1.2 4,-1 z m -114.1,-2.9 c 1.3,-0.8 1.3,-1.2 0.1,-2.6 -1.3,-1.6 -1.5,-1.6 -2.7,0.1 -0.7,1 -1.3,2.1 -1.3,2.6 0,1.1 2.1,1 3.9,-0.1 z m 22.6,-1 c -0.3,-0.6 -1.1,-1.1 -1.7,-1.1 -0.6,0 -0.6,0.6 0.2,1.5 1.4,1.7 2.6,1.3 1.5,-0.4 z m 5.5,0.9 c 0,-0.6 -0.7,-1 -1.6,-1 -0.8,0 -1.2,0.4 -0.9,1 0.3,0.5 1,1 1.6,1 0.5,0 0.9,-0.5 0.9,-1 z m -20.2,-5.1 c -1.3,-0.8 -2.8,0.7 -2.8,3 0,1.1 0.5,1 2,-0.4 1.5,-1.4 1.7,-2 0.8,-2.6 z m -217.3,1 c 0.4,-1.1 0.4,-3.7 0,-5.7 -0.5,-2.6 -0.9,-3.2 -1.6,-2.1 -1.2,1.9 -1.2,9.9 0,9.9 0.5,0 1.3,-0.9 1.6,-2.1 z m 3.9,-2.5 c 0.3,-0.9 0.6,-4.3 0.6,-7.6 0,-5.3 -0.2,-5.9 -1.5,-4.8 -1.2,1 -1.5,2.9 -1.3,7.6 0.2,6.3 1,8 2.2,4.8 z m 359.6,-6.3 c 0,-1.7 -1.8,-4.1 -3.1,-4.1 -0.3,0 -0.5,1 -0.4,2.2 0.1,1.3 0.3,2.8 0.4,3.5 0.2,1.9 3.1,0.3 3.1,-1.6 z m -369.2,-0.9 c 0.2,-1.5 -0.2,-2.2 -1.2,-2.2 -1.1,0 -1.6,0.9 -1.6,2.6 0,3.1 2.3,2.8 2.8,-0.4 z m 235.7,-4.3 c 1.1,-1.7 -0.1,-2.1 -1.5,-0.4 -0.8,0.9 -0.8,1.5 -0.2,1.5 0.6,0 1.4,-0.5 1.7,-1.1 z m -217.5,-3 c 1.6,-2.8 -1,-3.6 -3.2,-1 -1,1.3 -1.6,2.7 -1.3,3.2 0.8,1.2 3.4,0 4.5,-2.2 z m -15.5,-1.9 c 0.4,-2.1 0.4,-4.8 0,-6 -0.3,-1.1 -0.2,-2 0.3,-2 0.6,0 1.2,0.5 1.4,1.2 0.3,0.7 1.1,-0.9 2,-3.6 1.3,-3.9 1.3,-4.6 0.2,-4.2 -1.2,0.5 -1.2,0 0.1,-2.4 0.8,-1.6 1.5,-3.7 1.5,-4.7 -0.1,-1.6 -0.3,-1.5 -2,0.5 -1.1,1.3 -2.2,4 -2.6,6 -0.4,2 -1.4,4.2 -2.2,4.8 -2.1,1.5 -2.7,14.4 -0.7,14.4 0.8,0 1.6,-1.6 2,-4 z m 26.1,2.5 c -1.9,-1.4 -3.6,-1.2 -3.6,0.6 0,0.5 1.2,0.9 2.7,0.9 2.7,-0.1 2.7,-0.1 0.9,-1.5 z m -21.6,-3.5 c 0.6,-1.1 0.8,-2.5 0.5,-3 -1.1,-1.9 -2.3,-1 -2.7,2 -0.5,3.4 0.6,3.9 2.2,1 z m 297,-3.5 c -0.7,-0.9 -1.5,-1.3 -1.7,-1.1 -0.7,0.7 0.7,2.6 1.9,2.6 0.6,0 0.6,-0.6 -0.2,-1.5 z m -273.5,-0.5 c 0.3,-0.6 0.3,-1.9 0,-3 -0.7,-2.2 -4.5,-3.6 -7,-2.6 -1.3,0.4 -1.4,1 -0.5,2.6 1.4,2.7 3,2.5 3.1,-0.3 0.1,-2 0.2,-2 0.6,-0.2 0.8,3.6 1.2,4.5 2.2,4.5 0.5,0 1.3,-0.5 1.6,-1 z m 9,-5 c 0.3,-0.5 -0.2,-1 -1.1,-1 -1.9,0 -5.4,2.7 -5.4,4.2 0,1 5.6,-1.7 6.5,-3.2 z m 260,3 c 0.4,-0.6 0.1,-1.7 -0.5,-2.6 -1,-1.1 -1.6,-1.2 -2.6,-0.3 -1.1,0.9 -1.1,1.5 -0.3,2.5 1.4,1.7 2.5,1.8 3.4,0.4 z m -258.7,-6.3 c -0.3,-0.6 -1.7,-1.3 -3.1,-1.5 -1.5,-0.2 -2.7,-0.7 -2.7,-1.1 0,-0.4 0.9,-1.6 2,-2.6 1.1,-1 2,-2.4 2,-3.1 0,-0.7 -1.2,-2.2 -2.7,-3.4 -1.7,-1.4 -3,-1.7 -3.6,-1.1 -1.5,1.5 -3.6,8.1 -2.7,8.6 0.4,0.2 1.5,-0.4 2.5,-1.5 2.5,-2.7 3.7,-2.5 2.4,0.4 -1.5,3.3 0.4,6.6 3.7,6.6 1.6,0 2.4,-0.5 2.2,-1.3 z m -16,-1.1 c 1.8,-1 2.1,-1.5 1,-2.3 -1.6,-1.2 -8.8,-1.4 -8.8,-0.3 0,1.3 3,4 4.3,4 0.7,-0.1 2.2,-0.6 3.5,-1.4 z m -9.4,-4.2 c 0.4,-1.4 0.5,-2.9 0.2,-3.1 -0.9,-0.9 -2.6,0.8 -2.6,2.7 0,1 -0.5,2.2 -1,2.5 -0.6,0.3 -1,1.1 -1,1.6 0,2 3.8,-1.1 4.4,-3.7 z m 4.4,-8 c -0.5,-2.8 -2.8,-2.9 -2.8,-0.2 0,1.4 0.3,2.8 0.7,3.1 1,1.1 2.5,-0.9 2.1,-2.9 z m 321.7,-2.3 c -0.7,-4.6 -2,-7.1 -3.6,-7.1 -1.3,0 -1.1,1.4 0.7,7.6 1.9,6.6 3.9,6.3 2.9,-0.5 z m -30,3 c -0.3,-0.6 -1.1,-1.1 -1.7,-1.1 -0.6,0 -0.6,0.6 0.2,1.5 1.4,1.7 2.6,1.3 1.5,-0.4 z m 13.5,-6.4 c 1.6,-3.1 1.6,-3.6 0.3,-4.2 -2.1,-0.7 -4.5,1.4 -3.8,3.4 0.2,0.9 0,2.3 -0.5,3.1 -0.8,1.2 -1,1 -1,-0.9 0,-2 -0.2,-2.1 -1.5,-1.1 -0.8,0.7 -1.5,2.3 -1.5,3.6 0,2.2 0.1,2.2 3.1,1 1.9,-0.8 3.9,-2.8 4.9,-4.9 z m -313.2,-1.6 c -0.2,-0.9 0.4,-1.6 1.2,-1.6 1.9,0 3,-2.6 1.8,-4.2 -1.5,-1.8 -3.5,-0.5 -5.7,3.7 -1.4,2.7 -1.6,4.1 -0.8,4.9 1.4,1.4 3.8,-0.5 3.5,-2.8 z m 15.2,0.9 c 0,-1.8 -1.9,-1.1 -3,1.1 -1.1,1.9 -1,2 0.9,0.9 1.2,-0.6 2.1,-1.5 2.1,-2 z m 290.8,-1.8 c -0.3,-0.4 -1.1,-2.1 -1.8,-3.7 -0.8,-1.7 -4,-5.5 -7.3,-8.5 -4.9,-4.62 -6.1,-5.24 -7.5,-4.21 -0.9,0.67 -2.8,1.69 -4.2,2.31 -2,0.8 -2.2,1.2 -1,1.9 0.8,0.6 2.9,1 4.6,1 3.4,0 7.5,2.8 12.3,8.2 1.8,2.1 3.7,3.8 4.3,3.8 0.5,0 0.8,-0.3 0.6,-0.8 z m -285.7,-2.4 c 0.7,-1.3 1.4,-3.6 1.6,-5.2 0.2,-1.7 0.8,-3.5 1.4,-4.1 0.7,-0.7 0.8,-0.4 0.4,1 -0.6,1.7 -0.4,1.7 1.5,-0.4 1.4,-1.6 2,-3.48 1.8,-5.52 -0.2,-1.7 -0.8,-3.08 -1.3,-3.08 -0.6,0 -2.7,3.37 -4.8,7.5 -2.1,4.1 -4.2,7.6 -4.7,7.8 -1.2,0.4 0.7,4.2 2,4.2 0.5,0 1.5,-1 2.1,-2.2 z m 291.4,-6.6 c -0.7,-3.8 -6.2,-11.43 -9.6,-13.24 -1.6,-0.87 -1.9,-0.7 -1.9,1.06 0,1.16 0.4,1.83 0.9,1.51 0.6,-0.32 1.5,0.41 2.2,1.63 0.6,1.22 2,3.13 3.1,4.24 1,1.1 2.2,3.2 2.5,4.6 0.5,2.2 1.9,3.9 3.2,4 0.2,0 0,-1.7 -0.4,-3.8 z m 14,0.1 c -0.9,-5 -1.4,-5.63 -3.1,-4.2 -1.5,1.2 -1.1,4.2 0.8,6.6 2,2.5 3,1.4 2.3,-2.4 z m -19.5,-2.2 c -1.9,-3.85 -3.7,-5.74 -4.6,-4.88 -0.4,0.44 5.5,8.78 6.2,8.78 0.2,0 -0.5,-1.8 -1.6,-3.9 z M 173.5,97.92 c 0.4,-1.92 1.6,-3.33 3.2,-3.94 3,-1.15 2.5,-3.53 -0.7,-3.17 -2.4,0.28 -5.2,3.14 -4.4,4.45 0.3,0.4
-0.2,1.85 -1.1,3.22 -0.9,1.36 -1.4,2.97 -1,3.57 1,1.7 3.3,-0.6 4,-4.13 z m -9.8,1.96 c 1.3,-1.2 2.3,-2.55 2.3,-3 0,-1.48 -2,-0.88 -3.7,1.12 -0.9,1.07 -2,1.72 -2.5,1.44 -0.4,-0.28 -1.3,-0.2 -1.9,0.18 -0.8,0.43 -0.7,0.93 0.2,1.53 2.1,1.3 3.1,1.1 5.6,-1.27 z m 241.8,-0.92 c 2.9,-2 5.4,-4.79 7,-7.88 1.3,-2.63 3.1,-5.05 4,-5.37 0.8,-0.33 1.5,-1.36 1.5,-2.3 0,-0.94 0.7,-2.51 1.6,-3.5 1.3,-1.45 1.6,-3.97 1.6,-12.75 -0.1,-6.03 -0.6,-11.78 -1.1,-12.78 -0.6,-1.01 -1.7,-3.53 -2.5,-5.6 -0.9,-2.21 -2.8,-4.49 -4.6,-5.5 -1.6,-0.95 -3.3,-2.51 -3.6,-3.45 -0.7,-2.23 -5.4,-5.92 -6.5,-5.2 -0.5,0.31 -2.3,-0.59 -4,-2.01 -2.7,-2.28 -5.9,-3.41 -5.9,-2.09 0,0.93 8.5,9.14 11.3,10.88 1.7,1.08 4,4.31 5.8,8.29 1.7,3.59 3.3,7.6 3.5,8.91 0.2,1.31 0.9,3.55 1.4,4.98 1.1,2.93 1.3,9.46 0.4,11.96 -0.5,1.33 -0.8,1.4 -1.5,0.33 -0.5,-0.73 -0.9,-2.46 -0.9,-3.83 -0.1,-2.25 -0.2,-2.32 -1.1,-0.68 -0.6,1 -0.8,2.95 -0.5,4.34 0.5,1.74 0.3,2.29 -0.5,1.8 -0.8,-0.52 -0.8,-0.17 0,1.42 1,1.84 0.8,2.28 -1.3,3.26 -2.6,1.19 -4.9,5.93 -4,8.29 0.3,0.76 -0.5,3.11 -1.8,5.23 -3.7,5.94 -4,6.34 -3.4,6.34 0.3,0 2.6,-1.4 5.1,-3.09 z M 418,93.55 c 3.3,-3.03 6.4,-5.5 7,-5.5 0.5,0 1,-0.45 1,-1 0,-2.27 -3.4,-0.72 -8.1,3.71 -4.7,4.35 -7.7,8.29 -6.4,8.29 0.3,0 3.2,-2.48 6.5,-5.5 z m -50.4,0.08 c 1.5,-1.88 4.5,-7.17 6.6,-11.75 3.1,-6.75 3.7,-9.09 3.2,-12.33 -1,-7.6 -6.8,-20.18 -9.7,-21.1 -3,-0.95 -3.2,0.43 -0.5,3.36 3.3,3.64 6,11.22 6.1,17.15 0,4.76 -3.6,17.2 -5.9,20.09 -2.2,2.8 -4.5,8 -3.5,8 0.6,0 2.2,-1.54 3.7,-3.42 z M 183.3,93.61 c 0.7,-1.83 -2.9,-6.56 -5.1,-6.56 -1.2,0 -0.8,0.76 1.3,3 1.6,1.65 2.5,3 2.1,3 -0.4,0 -0.4,0.45 -0.1,1 0.8,1.35 1.2,1.26 1.8,-0.44 z m 290.6,-1.8 c -0.5,-1.79 -0.9,-3.45 -0.9,-3.7 0,-0.25 -0.5,0.05 -1.1,0.67 -1.5,1.47 -0.3,6.27 1.5,6.27 1.2,0 1.3,-0.68 0.5,-3.24 z M 163.4,89.55 c 0.3,-0.83 0.1,-1.5 -0.3,-1.5 -0.5,0 -1.1,0.67 -1.5,1.5 -0.3,0.82 -0.1,1.5 0.3,1.5 0.5,0 1.1,-0.68 1.5,-1.5 z m 315.1,-1.44 c 1.1,-1.81 -8.7,-10.15 -10.2,-8.66 -0.6,0.56 7.9,9.6 9,9.6 0.3,0 0.8,-0.42 1.2,-0.94 z m -49.4,-8.1 c 2.2,-1.21 2.6,-3.11 0.4,-2.43 -0.8,0.26 -2.2,0.69 -3.1,0.96 -0.8,0.27 -1.2,0.95 -0.9,1.5 0.8,1.26 1.2,1.26 3.6,-0.03 z M 333.4,73.8 c -0.4,-0.69 -1.2,-1.83 -1.7,-2.55 -0.8,-1.04 -1.2,-1.04 -1.8,-0.03 -0.4,0.69 -0.3,1.84 0.3,2.55 1.4,1.67 4.2,1.7 3.2,0.03 z m 72.4,-12.46 c -0.7,-2.63 -1.8,-5.5 -2.5,-6.37 -0.7,-0.87 -1.3,-2.26 -1.3,-3.09 0,-1.73 -5.1,-8.74 -6.4,-8.79 -1.3,-0.06 -10.6,-6.29 -10.6,-7.13 0,-0.41 -1.4,-1.05 -3,-1.41 -1.7,-0.37 -3.6,-1.25 -4.3,-1.96 -1.1,-1.05 -1.6,-1.06 -3.1,-0.02 -1.5,1.15 -1.2,1.54 3.6,3.72 7.8,3.6 12.6,7.14 16.1,12 6.1,8.21 7.6,11.3 8.4,16.76 0.8,6.16 1.3,6.77 2.9,3.79 1.2,-2.23 1.2,-3.54 0.2,-7.5 z m -44.8,4.1 c 0,-1.95 -0.7,-1.73 -2,0.59 -0.9,1.61 -0.8,1.87 0.5,1.39 0.8,-0.32 1.5,-1.21 1.5,-1.98 z m 92.4,1.78 c 0.7,-1.06 -8.7,-17.24 -11.4,-19.66 -4.1,-3.7 -3.2,-0.31 1.8,7.03 2.9,4.15 5.2,8 5.2,8.57 0,1.63 2,4.89 3,4.89 0.5,0 1.1,-0.37 1.4,-0.83 z M 426,60.57 c 0,-3.11 -2.9,-10.52 -4.1,-10.52 -1,0 -0.2,4.33 1.3,7.21 0.4,0.94 0.8,2.06 0.7,2.5 -0.3,1.85 0.2,3.29 1.1,3.29 0.5,0 1,-1.12 1,-2.48 z m 39.3,0.81 c -0.8,-2.01 -2.8,-4.36 -6.8,-8.08 -1.7,-1.51 -4.7,-4.44 -6.7,-6.5 -3.2,-3.27 -5.8,-4.73 -5.8,-3.3 0,1.44 6.6,9.81 9.8,12.43 2,1.7 4.4,3.71 5.3,4.48 1.4,1.15 2.6,1.82 4.6,2.56 0.1,0.04 -0.1,-0.67 -0.4,-1.59 z M 201,49.17 c 0,-0.48 -0.7,-1.44 -1.5,-2.12 -1.2,-1.01 -1.5,-0.97 -1.5,0.21 0,0.8 0.3,1.76 0.7,2.12 0.9,0.95 2.3,0.83 2.3,-0.21 z m 9.5,-7.12 c 1.3,0 3.6,-3.58 2.8,-4.35 -0.8,-0.82 -5.3,1.76 -8.7,4.98 -2.8,2.66 -2.9,2.68 -2.3,0.47 0.5,-2.21 0.5,-2.23 -1.4,-0.51 -1.9,1.76 -1.9,1.8 0.3,4.03 l 2.3,2.25 3,-3.44 c 1.6,-1.89 3.5,-3.43 4,-3.43 z M 365,45.11 c -1.2,-2.3 -2.9,-3.5 -3.7,-2.67 -0.7,0.7 2.6,4.61 3.9,4.61 0.5,0 0.4,-0.88 -0.2,-1.94 z m -28,-1.49 c 0,-1.04 -3.3,-3.57 -4.6,-3.57 -2,0 -0.7,1.92 2,3.01 2.6,1.08 2.6,1.07 2.6,0.56 z m 80.1,-2.33 c -1.4,-2.7 -5,-5.65 -5.9,-4.82 -0.4,0.41 0.8,2.06 2.6,3.66 1.8,1.61 3.5,2.92 3.8,2.92 0.2,0 0,-0.79 -0.5,-1.76 z M 435,31.07 c 0,-0.54 -1.8,-1.92 -4.1,-3.08 -2.8,-1.43 -4,-1.67 -3.7,-0.77 0.2,0.73 2,2.12 3.9,3.08 1.9,0.96 3.5,1.75 3.6,1.75 0.2,0 0.3,-0.44 0.3,-0.98 z m -51.7,-7.96 c 5.3,-1.73 4.7,-3.56 -1,-3.56 -4.3,0 -4.8,-0.25 -4.8,-2.16 0,-3.08 -1.5,-4.16 -2.1,-1.58 -0.4,1.2 -1.4,2.44 -2.5,2.76 -2,0.66 -7.5,-1.82 -10.2,-4.65 -1.8,-1.89 -6.7,-2.62 -6.7,-0.99 0,1.33 2.6,3.2 3.4,2.43 0.3,-0.38 2.3,0.95 4.4,2.95 2,2 5.2,4.28 7.1,5.05 3.8,1.6 7,1.53 12.4,-0.25 z M 282.4,20.44 c 0.9,-0.33 1.3,-1.07 0.9,-1.65 -0.4,-0.67 0.2,-0.85 1.5,-0.49 2.1,0.54 2.9,-0.23 1.6,-1.52 -0.9,-0.87 -7.4,2.44 -6.8,3.43 0.6,1 0.8,1.01 2.8,0.23 z M 370,9.79 c 0,-1.616 -6.8,-3.743 -12,-3.743 -2.2,0 -4,-0.479 -4,-1.064 0,-0.597 -1.4,-0.926 -3.3,-0.75 -3.9,0.377 -3.9,2.182 0,2.641 1.5,0.179 3.2,0.742 3.7,1.25 0.6,0.507 2.8,0.929 5,0.938 2.3,0.008 4.8,0.451 5.6,0.985 2.1,1.38 5,1.23 5,-0.257 z m -212.3,330.5 c 1,0.8 3.5,2.2 5.6,3.2 2.1,1 4.3,2.8 4.9,4.1 0.6,1.4 1.5,2.2 1.9,1.9 0.5,-0.3 0.6,0.1 0.3,0.9 -0.3,0.8 -0.1,1.7 0.4,2 1.3,0.9 7.2,-3.1 7.2,-4.8 0,-1.7 -1.6,-2 -2.5,-0.5 -0.4,0.6 -1.1,0.8 -1.6,0.5 -0.5,-0.4 -0.2,-1.6 0.6,-2.9 0.8,-1.2 1.2,-2.6 0.8,-2.9 -0.3,-0.4 0.6,-0.7 2,-0.7 1.7,0 3.1,-0.8 3.8,-2.3 0.7,-1.2 1.5,-7.2 1.7,-13.4 0.3,-8 0.1,-12 -0.9,-14.2 -0.8,-1.7 -2,-3.1 -2.6,-3.1 -0.7,0 -1.3,-0.6 -1.4,-1.3 -0.4,-6.1 -2,-9.7 -4.4,-9.7 -0.8,0 -1.3,2.1 -1.4,6.2 -0.1,3.3 -0.4,6.5 -0.7,7 -0.3,0.4 -0.1,0.8 0.5,0.8 0.5,0 1.1,-0.8 1.3,-1.7 0.3,-1.6 0.6,-1.5 2.8,0.7 l 2.5,2.5 -3.5,0.5 c -2,0.3 -3.4,1.1 -3.3,1.8 0.2,0.7 -0.4,1.2 -1.2,1.2 -1,0 -1.5,-1.5 -1.7,-5.7 -0.2,-3.1 -0.8,-5.8 -1.3,-6 -0.6,-0.2 -1.6,1 -2.2,2.7 -0.8,2.2 -0.8,3 0,3 0.6,0 0.4,0.7 -0.5,1.6 -0.9,0.9 -2.1,1.3 -2.7,1 -1.8,-1.1 -1.3,-5.4 0.9,-7.6 1.2,-1.2 1.8,-2.5 1.5,-2.9 -0.3,-0.5 -0.1,-2 0.4,-3.3 0.8,-2.3 -0.5,-6.8 -2,-6.8 -0.5,0 -1.1,1.6 -1.5,3.5 -0.3,1.9 -1,3.3 -1.4,3 -0.4,-0.3 -1.3,0.1 -1.8,0.8 -0.8,0.9 -0.7,2.1 0.4,4.2 1,1.9 1.1,3.2 0.4,3.9 -0.5,0.5 -1,2.4 -1,4 0,1.7 -0.4,3.7 -0.9,4.4 l -0.1,11 z m -11.8,-61.5 c 0.6,-0.6 1.1,-2 1.1,-3.1 0,-2 0,-2 -1.4,0 -0.6,0.7 -0.9,1.1 -1.1,1.3 z m -0.1,-8 c 1,0.2 1.4,-1.4 2.8,-12 0.5,-3.8 0.3,-4.7 -0.9,-4.7 -1.1,0 -1.7,1.5 -2.2,5 -0.4,2.7 -0.4,5.3 -0.1,5.8 0.3,0.6 -0.1,1.2 -0.9,1.6 z m 36.6,-213.7 c 1,0 -0.2,3.17 -2,5.23 -3,3.4 -5.6,7.87 -5,8.52 1,0.97 4.7,-3.02 7.2,-7.75 1.3,-2.48 3.2,-5.6 4.2,-6.95 1.6,-2.34 1.6,-2.42 -0.1,-1.76 -1.1,0.41 -1.6,0.29 -1.2,-0.3 z m -12.8,286 c -0.3,-0.8 -0.6,-3.9 -0.8,-6.8 -0.3,-5.7 1.1,-6.9 3,-2.7 1.5,3.3 1.5,5.4 -0.3,8.5 -1,1.9 -1.5,2.1 -1.9,1 z M 157,326.89 c 0,0 1.7,-11.5 3.8,-12.3 1.1,-0.4 1.3,0 0.7,1.7 -0.4,1.3 -0.9,5.3 -1.2,9 -0.4,4.9 -0.9,6.8 -1.9,6.8 -1,0 -1.4,-5.2 -1.4,-5.2 z m 51.5,203.3 c -0.3,-1.1 -0.1,-1.7 0.8,-2.5 1.3,-1.4 1.6,-1.4 2.1,0 0.3,0.9 0.6,2.4 0.6,3.5 0,1 0.6,1.9 1.4,1.9 2.7,0 2.4,-2.7 -1,-7.7 -3.5,-5.2 -7.8,-8.8 -9.3,-7.8 -0.2,0.1 -0.4,0 -0.6,-0.3 z"
     style="fill:#deddfa" />
</svg>
