<svg version="1.1" xmlns="http://www.w3.org/2000/svg" viewBox="0 0 1210.6135596668094 449.1284179687499" width="2421.2271193336187" height="898.2568359374998">
  <!-- svg-source:excalidraw -->
  
  <defs>
    <style class="style-fonts">
      @font-face {
        font-family: "Virgil";
        src: url("https://excalidraw.com/Virgil.woff2");
      }
      @font-face {
        font-family: "Cascadia";
        src: url("https://excalidraw.com/Cascadia.woff2");
      }
      @font-face {
        font-family: "Assistant";
        src: url("https://excalidraw.com/Assistant-Regular.woff2");
      }
    </style>
    
  </defs>
  <rect x="0" y="0" width="1210.6135596668094" height="449.1284179687499" fill="#ffffff"></rect><g stroke-linecap="round"><g transform="translate(139.11285958761096 54.53727213541653) rotate(0 -0.37890625 176.169921875)"><path d="M0.23 1.2 C0.3 60.11, 0.27 294.17, 0.15 352.69 M-1.11 0.78 C-1.1 59.39, -0.33 291.95, -0.32 350.74" stroke="#e03131" stroke-width="2" fill="none"></path></g></g><mask></mask><g stroke-linecap="round"><g transform="translate(139.96832833761096 408.1153971354165) rotate(0 220.705078125 -0.216796875)"><path d="M0.27 -0.07 C73.52 -0.14, 367.01 0.12, 440.38 -0.07 M-1.04 -1.15 C72.49 -1.62, 368.55 -2.15, 442.55 -2" stroke="#e03131" stroke-width="2" fill="none"></path></g></g><mask></mask><g transform="translate(297.75934396261084 414.1284179687499) rotate(0 31.499984741210938 12.5)"><text x="0" y="17.52" font-family="Virgil, Segoe UI Emoji" font-size="20px" fill="#e03131" text-anchor="start" style="white-space: pre;" direction="ltr" dominant-baseline="alphabetic">YAGNI</text></g><g transform="translate(10.199413686717094 213.16621445531433) rotate(359.0471798585452 61.109947204589844 12.5)"><text x="0" y="17.52" font-family="Virgil, Segoe UI Emoji" font-size="20px" fill="#e03131" text-anchor="start" style="white-space: pre;" direction="ltr" dominant-baseline="alphabetic">Code quality</text></g><g stroke-linecap="round"><g transform="translate(758.8129514129578 54.490119711210255) rotate(0 -0.37890625 176.169921875)"><path d="M-0.57 0.6 C-0.64 59.36, 0.01 293.12, -0.1 351.81 M1.33 -0.14 C1.13 58.86, -0.1 294.62, -0.7 353.07" stroke="#1971c2" stroke-width="2" fill="none"></path></g></g><mask></mask><g stroke-linecap="round"><g transform="translate(759.6684201629578 408.06824471121024) rotate(0 220.705078125 -0.216796875)"><path d="M0.66 -0.53 C74.25 -0.64, 367.3 -0.1, 440.95 -0.06 M-0.45 1.81 C72.98 1.27, 365.95 -1.87, 439.75 -1.98" stroke="#1971c2" stroke-width="2" fill="none"></path></g></g><mask></mask><g stroke-linecap="round"><g transform="translate(792.9262326629578 370.81043221121024) rotate(0 165.044921875 -123.279296875)"><path d="M-0.47 0.38 C22.49 -40.6, 85.61 -243.74, 138.38 -246.42 C191.15 -249.1, 285.47 -55.75, 316.14 -15.69 C346.82 24.36, 320.18 -8.82, 322.41 -6.09 C324.64 -3.35, 328.25 -0.51, 329.51 0.7 M1.49 -0.47 C24.33 -41.19, 85.67 -241.95, 138.01 -244.79 C190.36 -247.63, 284.82 -56.91, 315.57 -17.49 C346.33 21.93, 319.92 -11.42, 322.56 -8.27 C325.19 -5.11, 329.93 -0.07, 331.39 1.44" stroke="#1971c2" stroke-width="2" fill="none"></path></g></g><mask></mask><g transform="translate(917.4594357879575 414.0812655445436) rotate(0 31.499984741210938 12.5)"><text x="0" y="17.52" font-family="Virgil, Segoe UI Emoji" font-size="20px" fill="#1971c2" text-anchor="start" style="white-space: pre;" direction="ltr" dominant-baseline="alphabetic">YAGNI</text></g><g transform="translate(629.899505512064 213.11906203110806) rotate(359.0471798585452 61.109947204589844 12.5)"><text x="0" y="17.52" font-family="Virgil, Segoe UI Emoji" font-size="20px" fill="#1971c2" text-anchor="start" style="white-space: pre;" direction="ltr" dominant-baseline="alphabetic">Code quality</text></g><g stroke-linecap="round"><g transform="translate(165.4435887542777 380.0162760416666) rotate(0 161.0888671875 -133.46842447916663)"><path d="M1.03 0.77 C54.68 -43.68, 267.95 -221.93, 321.51 -266.57 M0.11 0.13 C54.19 -44.71, 270.27 -224.17, 323.87 -268.5" stroke="#e03131" stroke-width="2" fill="none"></path></g></g><mask></mask><g transform="translate(285.3173019297334 10) rotate(0 79.98993682861328 12.5)"><text x="0" y="17.52" font-family="Virgil, Segoe UI Emoji" font-size="20px" fill="#e03131" text-anchor="start" style="white-space: pre;" direction="ltr" dominant-baseline="alphabetic">Linearity fallacy</text></g><g transform="translate(899.6724019256644 17.744140625) rotate(0 34.07997131347656 12.500000000000007)"><text x="0" y="17.52" font-family="Virgil, Segoe UI Emoji" font-size="20px" fill="#1971c2" text-anchor="start" style="white-space: pre;" direction="ltr" dominant-baseline="alphabetic">Reality</text></g><g transform="translate(120.86055296733093 406.84570312499994) rotate(0 6.879997253417969 12.500000000000028)"><text x="0" y="17.52" font-family="Virgil, Segoe UI Emoji" font-size="20px" fill="#e03131" text-anchor="start" style="white-space: pre;" direction="ltr" dominant-baseline="alphabetic">0</text></g><g transform="translate(744.582471709193 408.8541666666666) rotate(0 6.879997253417969 12.499999999999972)"><text x="0" y="17.52" font-family="Virgil, Segoe UI Emoji" font-size="20px" fill="#1971c2" text-anchor="start" style="white-space: pre;" direction="ltr" dominant-baseline="alphabetic">0</text></g></svg>