<?xml version="1.0" encoding="UTF-8"?>
<!DOCTYPE svg PUBLIC "-//W3C//DTD SVG 1.1//EN" "http://www.w3.org/Graphics/SVG/1.1/DTD/svg11.dtd">
<svg xmlns="http://www.w3.org/2000/svg" xmlns:xlink="http://www.w3.org/1999/xlink" version="1.1" width="788" height="400"><defs><linearGradient id="boxwhisker-96" x1="0" y1="0" x2="0" y2="1"><stop offset="0" stop-color="rgb(40, 42, 54)" stop-opacity="1"></stop><stop offset="1" stop-color="rgb(40, 42, 54)" stop-opacity="1"></stop></linearGradient></defs><rect x="2" y="2" width="785" height="397" fill="url(#boxwhisker-96)" stroke-width="0" fill-opacity="1" stroke-opacity="1"></rect><text style="font-size:14px;font-family:'Arial', sans-serif" fill="#FFF" class="boxwhiskerchart-title" x="314.5234375" y="17.5">Real device cost / hour</text><g transform="translate(30,30)" class="boxplot"><line class="center-line" stroke="#FFF" stroke-width="3" x1="0" y1="112" x2="694.4" y2="112"></line><rect class="box whole-box" fill="#bd93f9" stroke="#FFF" stroke-width="1px" y="64" x="0" height="96" width="593.6"></rect><line class="median" stroke="#FFF" stroke-width="4px" x1="112" y1="54" x2="112" y2="170"></line><rect class="box half-box" fill="white" fill-opacity="0" stroke="none" y="0" x="0" width="112" height="320"></rect><rect class="box half-box" fill="white" fill-opacity="0" stroke="none" y="0" x="492.8" width="0" height="320"></rect><g class="whisker"><line class="whisker" stroke="#FFF" stroke-width="4" x1="0" y1="96" x2="0" y2="128"></line><text class="textlabel" fill="#FFF" text-anchor="middle" opacity="0" x="0" y="32">4</text></g><g class="whisker"><line class="whisker" stroke="#FFF" stroke-width="4" x1="694.4" y1="96" x2="694.4" y2="128"></line><text class="textlabel" fill="#FFF" text-anchor="middle" opacity="0" x="694.4" y="32">10</text></g><g class="x axis" transform="translate(0,300)"><g class="tick" transform="translate(0,0)" style="opacity: 1;"><line y2="-10" x2="0" stroke="#FFF" stroke-width="1px" transform="translate(0, 5)"></line><text dy="0em" y="-30" x="0" fill="#FFF" style="text-anchor: middle;">$4</text></g><g class="tick" transform="translate(56,0)" style="opacity: 1;"><line y2="-10" x2="0" stroke="#FFF" stroke-width="1px" transform="translate(0, 5)"></line><text dy="0em" y="-30" x="0" fill="#FFF" style="text-anchor: middle;">$4.5</text></g><g class="tick" transform="translate(112,0)" style="opacity: 1;"><line y2="-10" x2="0" stroke="#FFF" stroke-width="1px" transform="translate(0, 5)"></line><text dy="0em" y="-30" x="0" fill="#FFF" style="text-anchor: middle;">$5</text></g><g class="tick" transform="translate(168,0)" style="opacity: 1;"><line y2="-10" x2="0" stroke="#FFF" stroke-width="1px" transform="translate(0, 5)"></line><text dy="0em" y="-30" x="0" fill="#FFF" style="text-anchor: middle;">$5.5</text></g><g class="tick" transform="translate(224,0)" style="opacity: 1;"><line y2="-10" x2="0" stroke="#FFF" stroke-width="1px" transform="translate(0, 5)"></line><text dy="0em" y="-30" x="0" fill="#FFF" style="text-anchor: middle;">$6</text></g><g class="tick" transform="translate(280,0)" style="opacity: 1;"><line y2="-10" x2="0" stroke="#FFF" stroke-width="1px" transform="translate(0, 5)"></line><text dy="0em" y="-30" x="0" fill="#FFF" style="text-anchor: middle;">$6.5</text></g><g class="tick" transform="translate(336,0)" style="opacity: 1;"><line y2="-10" x2="0" stroke="#FFF" stroke-width="1px" transform="translate(0, 5)"></line><text dy="0em" y="-30" x="0" fill="#FFF" style="text-anchor: middle;">$7</text></g><g class="tick" transform="translate(392,0)" style="opacity: 1;"><line y2="-10" x2="0" stroke="#FFF" stroke-width="1px" transform="translate(0, 5)"></line><text dy="0em" y="-30" x="0" fill="#FFF" style="text-anchor: middle;">$7.5</text></g><g class="tick" transform="translate(448,0)" style="opacity: 1;"><line y2="-10" x2="0" stroke="#FFF" stroke-width="1px" transform="translate(0, 5)"></line><text dy="0em" y="-30" x="0" fill="#FFF" style="text-anchor: middle;">$8</text></g><g class="tick" transform="translate(504,0)" style="opacity: 1;"><line y2="-10" x2="0" stroke="#FFF" stroke-width="1px" transform="translate(0, 5)"></line><text dy="0em" y="-30" x="0" fill="#FFF" style="text-anchor: middle;">$8.5</text></g><g class="tick" transform="translate(560,0)" style="opacity: 1;"><line y2="-10" x2="0" stroke="#FFF" stroke-width="1px" transform="translate(0, 5)"></line><text dy="0em" y="-30" x="0" fill="#FFF" style="text-anchor: middle;">$9</text></g><g class="tick" transform="translate(616,0)" style="opacity: 1;"><line y2="-10" x2="0" stroke="#FFF" stroke-width="1px" transform="translate(0, 5)"></line><text dy="0em" y="-30" x="0" fill="#FFF" style="text-anchor: middle;">$9.5</text></g><g class="tick" transform="translate(672,0)" style="opacity: 1;"><line y2="-10" x2="0" stroke="#FFF" stroke-width="1px" transform="translate(0, 5)"></line><text dy="0em" y="-30" x="0" fill="#FFF" style="text-anchor: middle;">$10</text></g><g class="tick" transform="translate(728,0)" style="opacity: 1;"><line y2="-10" x2="0" stroke="#FFF" stroke-width="1px" transform="translate(0, 5)"></line><text dy="0em" y="-30" x="0" fill="#FFF" style="text-anchor: middle;">$10.5</text></g><path class="domain" d="M0,0V0H728V0" fill="none" shape-rendering="crispEdges" stroke="#FFF" stroke-width="2px"></path></g></g></svg>